<?xml version="1.0" encoding="UTF-8"?>
<svg width="16px" height="16px" viewBox="0 0 16 16" version="1.1" xmlns="http://www.w3.org/2000/svg" xmlns:xlink="http://www.w3.org/1999/xlink">
    <g id="组件分类" stroke="none" stroke-width="1" fill="none" fill-rule="evenodd">
        <g id="Icon图标-Light" transform="translate(-456.000000, -798.000000)">
            <g id="导航菜单" transform="translate(120.000000, 750.000000)">
                <g id="General/Icon/连接" transform="translate(336.000000, 48.000000)">
                    <g id="1.通用/1.Icon图标/连接">
                        <rect id="矩形" fill-rule="nonzero" x="0" y="0" width="16" height="16"></rect>
                        <path d="M7.61164511,11.0306099 C7.86680098,11.031158 8.07350926,11.2378663 8.0740574,11.4930222 L8.07352437,12.2793224 L13.8746307,12.2803189 C14.1214033,12.2917844 14.3155818,12.4951941 14.3155818,12.7422329 C14.3155818,12.9892718 14.1214033,13.1926815 13.8746307,13.2041469 L8.07352437,13.2031504 L8.0740574,13.9655327 C8.08315498,14.0872409 8.04016762,14.2070912 7.95578817,14.2952715 C7.87140873,14.3834519 7.75356745,14.4316747 7.63157668,14.427945 L3.88842897,14.427945 C3.6332731,14.4273968 3.42656482,14.2206885 3.42601668,13.9655327 L3.42548366,13.2031504 L2.12636593,13.2041469 C1.87959325,13.1926815 1.68541481,12.9892718 1.68541481,12.7422329 C1.68541481,12.4951941 1.87959325,12.2917844 2.12636593,12.2803189 L3.42548366,12.2793224 L3.42601668,11.4930222 C3.42656482,11.2378663 3.6332731,11.031158 3.88842897,11.0306099 L7.61164511,11.0306099 Z M7.1462431,11.956431 L4.35084125,11.956431 L4.35084125,13.504117 L7.1462431,13.504117 L7.1462431,11.956431 Z M11.9557295,6.35480965 C12.2108853,6.35535779 12.4175936,6.56206607 12.4181418,6.81722194 L12.4176087,7.60252556 L13.8746307,7.60352214 C14.0447752,7.59561698 14.20549,7.68188752 14.2929266,7.82806039 C14.3803633,7.97423326 14.3803633,8.156639 14.2929266,8.30281187 C14.20549,8.44898474 14.0447752,8.53525528 13.8746307,8.52735012 L12.4176087,8.52635355 L12.4181418,9.28973245 C12.4272393,9.41144068 12.384252,9.53129099 12.2998725,9.61947131 C12.2154931,9.70765163 12.0976518,9.75587449 11.975661,9.75214473 L8.23251333,9.75214473 C7.97735747,9.7515966 7.77064918,9.54488831 7.77010105,9.28973245 L7.76956802,8.52635355 L2.12536935,8.52735012 C1.95522477,8.53525528 1.79450997,8.44898474 1.70707335,8.30281187 C1.61963674,8.156639 1.61963674,7.97423326 1.70707335,7.82806039 C1.79450997,7.68188752 1.95522477,7.59561698 2.12536935,7.60352214 L7.76956802,7.60252556 L7.77010105,6.81722194 C7.77064918,6.56206607 7.97735747,6.35535779 8.23251333,6.35480965 L11.9557295,6.35480965 Z M11.491324,7.2806308 L8.69492562,7.2806308 L8.69708085,7.94734917 C8.71750701,8.0247101 8.71750701,8.10616216 8.69708085,8.18352309 L8.69492562,8.82831674 L11.491324,8.82831674 L11.491324,7.2806308 Z M7.61164511,1.57185365 C7.86680098,1.57240179 8.07350926,1.77911007 8.0740574,2.03426594 L8.07352437,2.81956956 L13.8746307,2.81956956 C14.0447752,2.8116644 14.20549,2.89793494 14.2929266,3.04410781 C14.3803633,3.19028068 14.3803633,3.37268642 14.2929266,3.51885929 C14.2200628,3.64067001 14.0963113,3.7208819 13.9586215,3.73966082 L13.8796135,3.74339755 L8.07352437,3.74339755 L8.0740574,4.50677644 C8.0828583,4.62831874 8.03973853,4.74789739 7.95539371,4.83585156 C7.87104889,4.92380573 7.75338091,4.97189539 7.63157668,4.96819215 L3.88842897,4.96819215 C3.6332731,4.96764402 3.42656482,4.76093573 3.42601668,4.50577987 L3.42548366,3.74339755 L2.12636593,3.74339755 C1.95622135,3.7513027 1.79550654,3.66503216 1.70806993,3.51885929 C1.62063332,3.37268642 1.62063332,3.19028068 1.70806993,3.04410781 C1.79550654,2.89793494 1.95622135,2.8116644 2.12636593,2.81956956 L3.42548366,2.81956956 L3.42601668,2.03426594 C3.42656482,1.77911007 3.6332731,1.57240179 3.88842897,1.57185365 L7.61164511,1.57185365 Z M7.1462431,2.49568164 L4.35084125,2.49568164 L4.35276466,3.14844475 C4.378815,3.23517319 4.378815,3.32779391 4.35276466,3.41452235 L4.35084125,4.04436416 L7.1462431,4.04436416 L7.1462431,2.49568164 Z" id="形状" fill="currentColor" fill-rule="evenodd"></path>
                    </g>
                </g>
            </g>
        </g>
    </g>
</svg>