<?xml version="1.0" encoding="UTF-8"?>
<svg width="16px" height="16px" viewBox="0 0 16 16" version="1.1" xmlns="http://www.w3.org/2000/svg" xmlns:xlink="http://www.w3.org/1999/xlink">
    <g id="组件分类" stroke="none" stroke-width="1" fill="none" fill-rule="evenodd">
        <g id="Icon图标-Light" transform="translate(-336.000000, -798.000000)">
            <g id="导航菜单" transform="translate(120.000000, 750.000000)">
                <g id="General/Icon/数据集成" transform="translate(216.000000, 48.000000)">
                    <g>
                        <rect id="矩形" fill-rule="nonzero" x="0" y="0" width="16" height="16"></rect>
                        <path d="M4.5287014,9.84640014 C4.60238007,9.81432415 4.68597497,9.81436659 4.75949231,9.84629858 L4.76576865,9.8491137 L5.36867917,10.1281763 C5.51921902,10.197855 5.46708265,10.3318296 5.21227007,10.5301 L2.99217113,11.5769922 L7.86092291,13.7217016 L13.0346013,11.5769609 L10.8168354,10.6013476 C10.576925,10.5052712 10.4554008,10.3071365 10.6875217,10.2057192 L10.7019499,10.1998356 L11.3614133,9.94954232 C11.4283164,9.92414986 11.5021702,9.92447437 11.5687314,9.95028867 L11.5753627,9.95295506 L14.8218777,11.3051139 C15.0569616,11.4030253 15.059361,11.7336894 14.829008,11.8363238 L14.8219564,11.8393636 L7.96852205,14.6961588 C7.89804587,14.7255362 7.81891221,14.7258356 7.74834301,14.6971892 L7.74175276,14.6944188 L1.17395806,11.8376237 C0.944373365,11.7377612 0.942026097,11.4144235 1.16698683,11.3100197 L1.1738734,11.3069235 L4.5287014,9.84640014 Z M4.5287014,6.13913757 C4.60177308,6.10732584 4.68462561,6.10709554 4.75774203,6.13828269 L4.76416771,6.14111603 L5.36420266,6.41442472 C5.59139879,6.51790982 5.4608078,6.73068925 5.23524156,6.83210865 L3.00581045,7.86397319 L7.85804469,9.91932158 L12.9853083,7.8639419 L10.7110709,6.84670512 C10.4699915,6.75016063 10.4528759,6.59149518 10.6869814,6.49168079 L10.6941472,6.4887295 L10.701531,6.48589944 L11.3638699,6.24136008 C11.4301778,6.2168788 11.5030711,6.21753848 11.5688128,6.24305771 L11.5753627,6.24569249 L14.8218777,7.59785131 C15.0569616,7.69576271 15.059361,8.02642685 14.829008,8.12906122 L14.8219564,8.13210108 L7.96852205,10.9888962 C7.89804587,11.0182736 7.81891221,11.018573 7.74834301,10.9899267 L7.74175276,10.9871563 L1.17395806,8.13036114 C0.944373365,8.03049863 0.942026097,7.70716097 1.16698683,7.60275717 L1.1738734,7.59966089 L4.5287014,6.13913757 Z M8.2454816,1.17463917 L14.822164,3.885414 L14.822164,3.885414 C15.0569227,3.98348542 15.0592506,4.31374176 14.8291752,4.4164294 L14.8221321,4.41947102 L8.25884236,7.1336401 C8.00968783,7.23667494 7.72948428,7.23473461 7.48178055,7.12825918 L1.17374564,4.41675082 L1.17374564,4.41675082 C0.944386012,4.31676777 0.942112218,3.99369841 1.1668971,3.88928128 L1.17377826,3.88618451 L7.46955283,1.18043694 C7.71687271,1.07414578 7.996601,1.07205564 8.2454816,1.17463917 Z M7.86229212,2.04050379 L2.9910838,4.15929893 L7.86424869,6.24790245 L12.9910838,4.15939454 L7.86229212,2.04050379 Z" id="数据集成" fill="currentColor"></path>
                    </g>
                </g>
            </g>
        </g>
    </g>
</svg>