<?xml version="1.0" encoding="UTF-8"?>
<svg width="16px" height="16px" viewBox="0 0 16 16" version="1.1" xmlns="http://www.w3.org/2000/svg" xmlns:xlink="http://www.w3.org/1999/xlink">
    <g id="组件分类" stroke="none" stroke-width="1" fill="none" fill-rule="evenodd">
        <g id="Icon图标-Light" transform="translate(-816.000000, -310.000000)">
            <g id="方向和建议" transform="translate(120.000000, 262.000000)">
                <g id="General/Icon/删除" transform="translate(696.000000, 48.000000)">
                    <g id="1.通用/1.Icon图标/删除">
                        <rect id="矩形" fill-rule="nonzero" x="0" y="0" width="16" height="16"></rect>
                        <path d="M13.632,3.52 C13.888,3.52 14.088,3.728 14.088,3.976 C14.088,4.224 13.88,4.432 13.624,4.432 L12.688,4.431 L12.6880911,13.168 C12.696,13.8 12.176,14.312 11.552,14.312 L4.448,14.312 C3.816,14.312 3.304,13.8 3.304,13.168 L3.304,4.431 L2.376,4.432 C2.12,4.432 1.92,4.224 1.92,3.976 C1.92,3.72 2.128,3.52 2.376,3.52 L13.632,3.52 Z M11.776,4.431 L4.216,4.431 L4.216,13.168 C4.216,13.296 4.32,13.4 4.448,13.4 L11.544,13.4 C11.672,13.4 11.776,13.296 11.776,13.168 L11.776,4.431 Z M6.792,12.256 C6.536,12.256 6.336,12.048 6.336,11.8 L6.336,5.848 C6.336,5.592 6.544,5.392 6.792,5.392 C7.04,5.392 7.248,5.6 7.248,5.848 L7.248,11.8 C7.248,12.048 7.04,12.256 6.792,12.256 Z M9.496,12.256 C9.24,12.256 9.04,12.048 9.04,11.8 L9.04,5.848 C9.04,5.592 9.248,5.392 9.496,5.392 C9.744,5.392 9.952,5.6 9.952,5.848 L9.952,11.8 C9.96,12.048 9.752,12.256 9.496,12.256 Z M8.912,2.6 L7.088,2.6 C6.832,2.6 6.632,2.392 6.632,2.144 C6.632,1.896 6.84,1.688 7.088,1.688 L8.92,1.688 C9.176,1.688 9.376,1.896 9.376,2.144 C9.376,2.392 9.168,2.6 8.912,2.6 Z" id="形状" fill="currentColor" fill-rule="evenodd"></path>
                    </g>
                </g>
            </g>
        </g>
    </g>
</svg>