<?xml version="1.0" encoding="UTF-8"?>
<svg width="16px" height="16px" viewBox="0 0 16 16" version="1.1" xmlns="http://www.w3.org/2000/svg" xmlns:xlink="http://www.w3.org/1999/xlink">
    <g id="组件分类" stroke="none" stroke-width="1" fill="none" fill-rule="evenodd">
        <g id="Icon图标-Light" transform="translate(-216.000000, -798.000000)">
            <g id="导航菜单" transform="translate(120.000000, 750.000000)">
                <g id="General/Icon/管理" transform="translate(96.000000, 48.000000)">
                    <g id="1.通用/1.Icon图标/管理">
                        <rect id="矩形" fill-rule="nonzero" x="0" y="0" width="16" height="16"></rect>
                        <path d="M8.00008137,10.9121533 C6.39839707,10.9121533 5.0879281,9.60168429 5.0879281,8 C5.0879281,6.39831571 6.39839707,5.08784674 8.00008137,5.08784674 C9.60176566,5.08784674 10.9122346,6.39831571 10.9122346,8 C10.9122346,9.60168429 9.60176566,10.9121533 8.00008137,10.9121533 Z M8.00008137,6.05856449 C6.93229184,6.05856449 6.05864586,6.93221047 6.05864586,8 C6.05864586,9.06778953 6.93229184,9.94143551 8.00008137,9.94143551 C9.0678709,9.94143551 9.94151688,9.06778953 9.94151688,8 C9.94151688,6.93221047 9.0678709,6.05856449 8.00008137,6.05856449 Z M9.14067473,14.7950243 L6.88375595,14.7950243 C6.17998558,14.7950243 5.59755492,14.2125936 5.59755492,13.5088233 C5.59755492,13.3874835 5.52475109,13.2661438 5.40341137,13.2176079 C5.20926782,13.1205362 5.01512427,12.9991964 4.82098072,12.8778567 C4.699641,12.8050529 4.57830128,12.8050529 4.48122951,12.8535888 C3.85026297,13.2176079 3.07368876,12.9991964 2.70966961,12.3682299 L1.5448083,10.4267944 C1.37493269,10.1355791 1.32639681,9.7715599 1.42346858,9.43180869 C1.52054036,9.09205747 1.73895185,8.82511009 2.03016718,8.65523448 C2.12723895,8.58243065 2.20004278,8.46109093 2.20004278,8.33975121 L2.20004278,7.66024879 C2.20004278,7.53890907 2.1515069,7.41756935 2.03016718,7.34476552 C1.39920064,6.98074636 1.20505709,6.20417215 1.5448083,5.57320561 L2.68540166,3.60750216 C3.04942082,2.97653562 3.82599502,2.78239207 4.45696156,3.12214328 C4.55403334,3.17067917 4.699641,3.17067917 4.79671278,3.09787534 C4.99085633,2.97653562 5.18499988,2.8551959 5.37914343,2.75812413 C5.50048315,2.70958824 5.57328698,2.58824852 5.57328698,2.4669088 C5.57328698,1.78740637 6.15571763,1.20497572 6.85948801,1.20497572 L9.11640678,1.20497572 C9.8444451,1.20497572 10.4268758,1.78740637 10.4268758,2.49117674 C10.4268758,2.61251646 10.4996796,2.73385618 10.6210193,2.78239207 C10.8151629,2.87946385 11.0093064,3.00080356 11.20345,3.12214328 C11.3247897,3.19494712 11.4461294,3.19494712 11.5674691,3.14641123 C11.8586844,2.97653562 12.2227036,2.92799973 12.5381869,3.02507151 C12.8779381,3.12214328 13.1448855,3.34055478 13.3147611,3.63177011 L14.4553544,5.59747356 C14.8193736,6.2284401 14.6009621,7.0050143 13.9699956,7.36903346 C13.8729238,7.44183729 13.8001199,7.56317701 13.8001199,7.68451673 L13.8001199,8.36401916 C13.8001199,8.48535888 13.8486558,8.6066986 13.9699956,8.67950243 C14.2612109,8.84937804 14.4796224,9.14059336 14.5766942,9.45607663 C14.6737659,9.7715599 14.62523,10.1355791 14.4553544,10.4510623 L13.3147611,12.3682299 C12.9507419,12.9749285 12.1741677,13.19334 11.5432012,12.8535888 C11.4461294,12.7807849 11.3005217,12.8050529 11.179182,12.8778567 C10.9850385,12.9991964 10.7908949,13.1205362 10.5967514,13.2176079 C10.4754116,13.2661438 10.4026078,13.3874835 10.4026078,13.5088233 C10.4268758,14.2125936 9.8444451,14.7950243 9.14067473,14.7950243 Z M4.60256923,11.8343351 C4.84524866,11.8343351 5.11219605,11.907139 5.33060754,12.0527466 C5.47621521,12.1498184 5.64609081,12.2468902 5.81596642,12.319694 C6.25278941,12.5381055 6.54400473,12.9991964 6.54400473,13.4845553 C6.54400473,13.6544309 6.6896124,13.8000386 6.85948801,13.8000386 L9.11640678,13.8000386 C9.28628239,13.8000386 9.43189005,13.6544309 9.43189005,13.4845553 C9.43189005,12.9991964 9.69883744,12.5381055 10.1599284,12.319694 C10.329804,12.2468902 10.4754116,12.1498184 10.6452872,12.0527466 C11.0578423,11.7857992 11.5917371,11.7615313 12.0042921,12.0042107 C12.1498998,12.1012825 12.3683113,12.0284787 12.4411151,11.882871 L13.5817085,9.91716756 C13.6302443,9.84436373 13.6302443,9.74729196 13.6059764,9.67448813 C13.5817085,9.60168429 13.5331726,9.52888046 13.4603687,9.48034458 C13.0235457,9.23766514 12.7808663,8.7765742 12.8051343,8.26694738 L12.8051343,7.73305262 C12.7808663,7.2234258 13.0235457,6.76233486 13.4603687,6.51965542 C13.6059764,6.42258365 13.6787802,6.2284401 13.5817085,6.08283244 L12.489651,4.11712898 C12.4411151,4.04432515 12.3683113,3.99578926 12.2955074,3.97152132 C12.2227036,3.94725338 12.1256318,3.97152132 12.052828,3.99578926 C11.616005,4.2384687 11.1063782,4.21420076 10.6938231,3.94725338 C10.5482155,3.8501816 10.3783399,3.75310982 10.2084643,3.68030599 C9.77164127,3.4618945 9.48042594,3.00080356 9.48042594,2.51544469 C9.456158,2.32130114 9.31055033,2.17569347 9.14067473,2.17569347 L6.88375595,2.17569347 C6.6896124,2.17569347 6.54400473,2.32130114 6.54400473,2.49117674 C6.54400473,2.97653562 6.27705735,3.43762655 5.81596642,3.65603805 C5.64609081,3.72884188 5.50048315,3.82591366 5.33060754,3.92298543 C4.9180525,4.18993281 4.38415773,4.21420076 3.94733474,3.97152132 C3.80172708,3.87444954 3.58331558,3.94725338 3.51051175,4.09286104 L2.39418633,6.05856449 C2.29711456,6.20417215 2.36991839,6.42258365 2.51552605,6.49538748 C2.95234904,6.73806692 3.19502848,7.19915785 3.17076054,7.70878467 L3.17076054,8.24267944 C3.19502848,8.75230626 2.95234904,9.21339719 2.51552605,9.45607663 C2.44272222,9.50461252 2.39418633,9.57741635 2.36991839,9.65022018 C2.34565045,9.72302401 2.36991839,9.82009579 2.39418633,9.89289962 L3.5347797,11.8586031 C3.63185147,12.0042107 3.82599502,12.0770146 3.97160269,11.9799428 C4.16574624,11.882871 4.38415773,11.8343351 4.60256923,11.8343351 Z" id="形状" fill="currentColor" fill-rule="evenodd"></path>
                    </g>
                </g>
            </g>
        </g>
    </g>
</svg>