<?xml version="1.0" encoding="UTF-8"?>
<svg width="16px" height="16px" viewBox="0 0 16 16" version="1.1" xmlns="http://www.w3.org/2000/svg" xmlns:xlink="http://www.w3.org/1999/xlink">
    <g id="组件分类" stroke="none" stroke-width="1" fill="none" fill-rule="evenodd">
        <g id="Icon图标-Light" transform="translate(-432.000000, -798.000000)">
            <g id="导航菜单" transform="translate(120.000000, 750.000000)">
                <g id="General/Icon/质量" transform="translate(312.000000, 48.000000)">
                    <g id="1.通用/1.Icon图标/质量">
                        <rect id="矩形" fill-rule="nonzero" x="0" y="0" width="16" height="16"></rect>
                        <path d="M7.98543506,0.85 C8.52579596,0.85 10.7011228,1.33538484 13.3807522,1.99367394 C13.7926119,2.09348521 14.093416,2.44808399 14.1428546,2.8726566 L14.1500002,2.99004516 L14.1500002,7.96738008 C14.1500002,10.234228 13.0836871,12.0472442 11.3032127,13.4458614 C10.2154016,14.3003703 9.08852144,14.8418676 8.29188709,15.1012542 C8.0941999,15.1662486 7.88181088,15.1662486 7.68453189,15.1013878 C6.89594188,14.8446198 5.76801661,14.3004542 4.68456015,13.4459004 C2.98878837,12.1083955 1.94366697,10.3919277 1.85599246,8.26214737 L1.85,7.9691577 L1.85,2.99193293 C1.84965227,2.51802189 2.16432069,2.10448192 2.61295844,1.99374511 L4.66616943,1.50052426 C6.42235252,1.08870325 7.58837327,0.85 7.98543506,0.85 Z M7.98543506,1.88326809 C7.80144054,1.88326809 7.20744545,1.99405881 6.32074663,2.18727631 L5.15143456,2.45048575 L4.60399738,2.57793252 L2.872,2.993 L2.87226235,7.96738008 C2.87226235,9.82540579 3.74872547,11.3394286 5.22924637,12.5419106 L5.44482918,12.7115779 C6.0115048,13.1438865 6.61940023,13.5020889 7.22725609,13.7899042 L7.85124948,14.0746184 C7.89258193,14.0949818 7.92247563,14.1116511 7.93882522,14.1246894 L8.10502502,14.0656568 C8.26718304,14.0044686 8.48647118,13.9130936 8.7477741,13.790023 C9.35854832,13.5023558 9.96935889,13.1442705 10.5387479,12.7120286 C12.0834607,11.5393862 13.0342497,10.0564114 13.1174935,8.23055304 L13.1234543,7.96738008 L13.123,2.993 L11.9410072,2.70939112 L10.5611176,2.3886066 L9.45746698,2.14437017 C8.67701927,1.97774781 8.15539908,1.88326809 7.98543506,1.88326809 Z M11.6392896,5.64582101 C11.8345517,5.84108316 11.8345517,6.15766565 11.6392896,6.3529278 L7.75765043,10.2345669 L7.75765043,10.2345669 C7.69256305,10.2996543 7.61399563,10.3430459 7.53093487,10.3647417 L7.44670916,10.3792055 L7.44670916,10.3792055 L7.36148493,10.3792055 C7.24807452,10.369563 7.13732683,10.3213501 7.05054365,10.2345669 L4.83586997,8.01989323 C4.64060783,7.82463109 4.64060783,7.5080486 4.83586997,7.31278645 C5.03113212,7.11752431 5.34771461,7.11752431 5.54297676,7.31278645 L7.40399971,9.174 L10.9321828,5.64582101 C11.1274449,5.45055887 11.4440274,5.45055887 11.6392896,5.64582101 Z" id="路径_52" fill="currentColor" fill-rule="evenodd"></path>
                    </g>
                </g>
            </g>
        </g>
    </g>
</svg>