<?xml version="1.0" encoding="UTF-8"?>
<svg width="16px" height="16px" viewBox="0 0 16 16" version="1.1" xmlns="http://www.w3.org/2000/svg" xmlns:xlink="http://www.w3.org/1999/xlink">
    <g id="组件分类" stroke="none" stroke-width="1" fill="none" fill-rule="evenodd">
        <g id="Icon图标-Light" transform="translate(-408.000000, -798.000000)">
            <g id="导航菜单" transform="translate(120.000000, 750.000000)">
                <g id="General/Icon/资源管理" transform="translate(288.000000, 48.000000)">
                    <g id="1.通用/1.Icon图标/资源管理">
                        <rect id="矩形" fill-rule="nonzero" x="0" y="0" width="16" height="16"></rect>
                        <path d="M11.2,8.11471339 C13.0225397,8.11471339 14.5,9.59217372 14.5,11.4147134 C14.5,13.2372531 13.0225397,14.7147134 11.2,14.7147134 C9.37746033,14.7147134 7.9,13.2372531 7.9,11.4147134 C7.9,9.59217372 9.37746033,8.11471339 11.2,8.11471339 Z M11.2,9.07398051 C9.90724893,9.07398051 8.85926712,10.1219623 8.85926712,11.4147134 C8.85926712,12.7074645 9.90724893,13.7554463 11.2,13.7554463 C12.4927511,13.7554463 13.5407329,12.7074645 13.5407329,11.4147134 C13.5407329,10.1219623 12.4927511,9.07398051 11.2,9.07398051 Z M13.6006787,1.50731255 C14.1524582,1.50731255 14.5999639,1.95423956 14.6006778,2.50601859 L14.6074412,7.73289299 C14.6074412,8.00903536 14.3835836,8.23289299 14.1074412,8.23289299 C13.8619813,8.23289299 13.6578329,8.05601783 13.6154969,7.82276862 L13.6074412,7.73289299 L13.6070422,3 C13.6069767,2.72387409 13.3831259,2.50004216 13.107,2.5 L10.1622574,2.5 C9.93672837,2.5 9.71782137,2.57623597 9.5410809,2.71632929 L7.92248909,3.99930586 L2.8164029,4.00540361 C2.54049387,4.0057331 2.317,4.22949403 2.317,4.50540325 L2.317,11.391 C2.31701089,11.6671381 2.54086188,11.890994 2.817,11.8910109 L6.7204398,11.8910959 C6.96589969,11.8910959 7.17004818,12.0679711 7.21238414,12.3012203 L7.2204398,12.3910959 C7.2204398,12.6365558 7.04356464,12.8407043 6.81031544,12.8830403 L6.7204398,12.8910959 L2.32438189,12.8845313 C1.77268083,12.8837075 1.32587518,12.4362341 1.32587518,11.8845324 L1.32587518,4.01329385 C1.32587518,3.46154841 1.77274907,3.01405687 2.32449398,3.0132948 L7.606,3.006 L9.28288098,1.71494945 C9.45774812,1.58031716 9.67224007,1.50731255 9.89293073,1.50731255 L13.6006787,1.50731255 Z M12.5978241,10.4266394 C12.774795,10.5597657 12.8257574,10.8231188 12.5978241,11.0841047 C11.8755507,11.8129048 11.8755507,11.8129048 11.2033733,12.422704 C11.0020437,12.5649257 10.797555,12.6020227 10.6143162,12.4852787 L10.5400076,12.4267999 L9.81168252,11.7270357 C9.62223271,11.5450151 9.60240381,11.2588941 9.81168252,11.0841047 C9.99131107,10.9340791 10.2340507,11.0195822 10.4038676,11.175443 L10.8646333,11.607662 L11.9492464,10.5465106 C12.1364341,10.3621645 12.3773723,10.2608046 12.5978241,10.4266394 Z" id="形状结合" fill="currentColor" fill-rule="evenodd"></path>
                    </g>
                </g>
            </g>
        </g>
    </g>
</svg>