<?xml version="1.0" encoding="UTF-8"?>
<svg width="16px" height="16px" viewBox="0 0 16 16" version="1.1" xmlns="http://www.w3.org/2000/svg" xmlns:xlink="http://www.w3.org/1999/xlink">
    <g id="组件分类" stroke="none" stroke-width="1" fill="none" fill-rule="evenodd">
        <g id="Icon图标-Light" transform="translate(-384.000000, -798.000000)">
            <g id="导航菜单" transform="translate(120.000000, 750.000000)">
                <g id="General/Icon/服务" transform="translate(264.000000, 48.000000)">
                    <g id="1.通用/1.Icon图标/服务">
                        <rect id="矩形" fill-rule="nonzero" x="0" y="0" width="16" height="16"></rect>
                        <path d="M12.6480096,10.9190909 L13.5,10.9220222 L13.5,11.0099595 C13.3804974,13.2255589 11.7600726,15.0123099 9.83248233,14.9999331 L9.64502251,14.9933309 L7.92902986,14.9933309 C7.81483033,14.9949203 7.70490018,14.9439597 7.62414289,14.8519938 C7.56357492,14.7830194 7.52326129,14.6953576 7.50746541,14.6009729 L7.49994073,14.5047903 L7.49994073,13.5277091 C7.49863602,13.3976593 7.5433856,13.2724715 7.62414289,13.1805056 C7.68471086,13.1115311 7.76168856,13.0656222 7.84456984,13.0476492 L7.92902986,13.0391685 L9.64502251,13.0391685 C9.75922204,13.0375791 9.86915219,13.0885397 9.94990948,13.1805056 C10.0104774,13.24948 10.0507911,13.3371418 10.0665736,13.4315265 L10.0740207,13.5277091 L10.0740207,13.9761894 C11.3928584,13.8912957 12.4614532,12.6671235 12.6314829,11.1929684 L12.6480096,11.0070282 L12.6480096,10.9190909 Z M8,1 C11.0037528,1 13.4523167,3.32717791 13.5672122,6.24036487 L13.5714286,6.54 C14.0832133,6.71873022 14.4388901,7.16942717 14.4928736,7.69097944 L14.5,7.82272727 L14.5,9.64090909 C14.4973097,10.172874 14.180794,10.6507428 13.6960383,10.8734042 L13.5714286,10.9236364 L12.6428571,10.9190909 C12.1310724,10.7403607 11.7753956,10.2896637 11.7214121,9.76811147 L11.7142857,9.63636364 L11.7142857,7.81818182 C11.7173358,7.28652524 12.0338186,6.80907337 12.5183165,6.58656361 L12.6428571,6.53636364 L12.6428571,6.45454545 C12.6428571,3.94416023 10.5641792,1.90909091 8,1.90909091 C5.50908307,1.90909091 3.47632078,3.82953183 3.36219634,6.24057 L3.35714286,6.53545455 C3.86892758,6.71418476 4.22460439,7.16488172 4.27858793,7.68643398 L4.28571429,7.81818182 L4.28571429,9.63636364 C4.28571429,10.3894792 3.6621109,11 2.89285714,11 C2.16885361,11 1.57386908,10.4591927 1.50637611,9.76769092 L1.5,9.63636364 L1.5,7.81818182 C1.50305004,7.28652524 1.81953287,6.80907337 2.30403079,6.58656361 L2.42857143,6.53636364 L2.42857143,6.45454545 C2.42857143,3.44208318 4.92298497,1 8,1 Z M2.88773006,7.3650546 C2.66064202,7.3650546 2.47177336,7.52601744 2.4326061,7.73828271 L2.42515337,7.8200728 L2.42515337,9.64014561 C2.42515337,9.89144522 2.63225601,10.0951638 2.88773006,10.0951638 C3.11481811,10.0951638 3.30368676,9.93420097 3.34285402,9.7219357 L3.35030675,9.64014561 L3.35030675,7.8200728 C3.35030675,7.56877319 3.14320411,7.3650546 2.88773006,7.3650546 Z M13.1122699,7.3650546 C12.8851819,7.3650546 12.6963132,7.52601744 12.657146,7.73828271 L12.6496933,7.8200728 L12.6496933,9.64014561 C12.6496933,9.89144522 12.8567959,10.0951638 13.1122699,10.0951638 C13.339358,10.0951638 13.5282266,9.93420097 13.5673939,9.7219357 L13.5748466,9.64014561 L13.5748466,7.8200728 C13.5748466,7.56877319 13.367744,7.3650546 13.1122699,7.3650546 Z" id="形状" fill="currentColor" fill-rule="evenodd"></path>
                    </g>
                </g>
            </g>
        </g>
    </g>
</svg>