<?xml version="1.0" encoding="UTF-8"?>
<svg width="16px" height="16px" viewBox="0 0 16 16" version="1.1" xmlns="http://www.w3.org/2000/svg" xmlns:xlink="http://www.w3.org/1999/xlink">
    <g id="组件分类" stroke="none" stroke-width="1" fill="none" fill-rule="evenodd">
        <g id="Icon图标-Light" transform="translate(-240.000000, -798.000000)">
            <g id="导航菜单" transform="translate(120.000000, 750.000000)">
                <g id="General/Icon/用户/2" transform="translate(120.000000, 48.000000)">
                    <g id="1.通用/1.Icon图标/用户/2">
                        <rect id="矩形" fill-rule="nonzero" x="0" y="0" width="16" height="16"></rect>
                        <path d="M14.8637069,13.671405 C14.1779926,11.6142621 12.4637069,10.0142621 10.5208497,9.32854783 C11.6637069,8.52854783 12.5779926,7.04283355 12.5779926,5.44283355 C12.5779926,2.92854783 10.5208497,0.871404971 8.00656402,0.871404971 C5.49227831,0.871404971 3.43513545,2.92854783 3.43513545,5.44283355 C3.43513545,7.04283355 4.34942116,8.52854783 5.60656402,9.32854783 C3.54942116,10.0142621 1.94942116,11.6142621 1.14942116,13.671405 C1.03513545,14.0142621 1.14942116,14.3571193 1.49227831,14.471405 C1.83513545,14.5856907 2.17799259,14.471405 2.29227831,14.0142621 C3.32084973,11.7285478 5.49227831,10.0142621 8.00656402,10.0142621 C10.5208497,10.0142621 12.6922783,11.7285478 13.606564,14.1285478 C13.7208497,14.3571193 13.9494212,14.5856907 14.1779926,14.5856907 L14.406564,14.5856907 C14.7494212,14.471405 14.9779926,14.0142621 14.8637069,13.671405 Z M4.5779926,5.44283355 C4.5779926,3.49997641 6.06370688,2.01426211 8.00656402,2.01426211 C9.94942116,2.01426211 11.4351354,3.49997639 11.4351354,5.44283355 C11.4351354,7.38569071 9.94942116,8.87140497 8.00656402,8.87140497 C6.06370688,8.87140497 4.5779926,7.38569069 4.5779926,5.44283355 Z" id="形状" fill="currentColor" fill-rule="evenodd"></path>
                    </g>
                </g>
            </g>
        </g>
    </g>
</svg>