<?xml version="1.0" encoding="UTF-8"?>
<svg width="16px" height="16px" viewBox="0 0 16 16" version="1.1" xmlns="http://www.w3.org/2000/svg" xmlns:xlink="http://www.w3.org/1999/xlink">
    <g id="组件分类" stroke="none" stroke-width="1" fill="none" fill-rule="evenodd">
        <g id="Icon图标-Light" transform="translate(-456.000000, -310.000000)">
            <g id="方向和建议" transform="translate(120.000000, 262.000000)">
                <g id="General/Icon/激活" transform="translate(336.000000, 48.000000)">
                    <g id="1.通用/1.Icon图标/激活">
                        <rect id="矩形" fill-rule="nonzero" x="0" y="0" width="16" height="16"></rect>
                        <path d="M8,1 C11.8659932,1 15,4.13400675 15,8 C15,11.8659932 11.8659932,15 8,15 C6.06700338,15 4.31700338,14.2164983 3.05025253,12.9497475 C2.96790859,12.8601061 2.91680825,12.7401065 2.91680825,12.6081718 C2.91680825,12.3320294 3.14066588,12.1081718 3.41680825,12.1081718 C3.5156461,12.1081718 3.60778578,12.13685 3.68536013,12.1863393 L3.75735931,12.2426407 C4.84314575,13.3284271 6.34314575,14 8,14 C11.3137085,14 14,11.3137085 14,8 C14,4.6862915 11.3137085,2 8,2 C6.34314575,2 4.84314575,2.67157288 3.75735931,3.75735931 C3.6686056,3.84000848 3.54914191,3.89060355 3.41786111,3.89060355 C3.14171874,3.89060355 2.91786111,3.66674593 2.91786111,3.39060355 C2.91786111,3.2924196 2.94616114,3.20084547 2.99504912,3.12359324 L3.05025253,3.05025253 C4.31700338,1.78350169 6.06700338,1 8,1 Z M8.26690382,5.08726484 L8.33615171,5.14512029 L10.837478,7.64644661 C10.9025654,7.71153399 10.945957,7.79010141 10.9676528,7.87316218 L10.9821167,7.95738789 L10.9821167,8.08413362 C10.9748847,8.16919143 10.945957,8.25275145 10.8953335,8.32582701 L10.837478,8.39507489 L8.33615171,10.8964012 C8.14088956,11.0916634 7.82430707,11.0916634 7.62904493,10.8964012 C7.45547857,10.7228349 7.43619342,10.4534105 7.57118947,10.2585423 L7.62904493,10.1892944 L9.28861836,8.53067368 L1.49166406,8.53097637 C1.27170957,8.53097637 1.08877387,8.35410121 1.05083698,8.120852 L1.04361836,8.03097637 C1.04361836,7.78551648 1.20211467,7.581368 1.41112728,7.53903204 L1.49166406,7.53097637 L9.30661836,7.53067368 L7.62904493,5.85222707 C7.45547857,5.67866072 7.43619342,5.40923631 7.57118947,5.21436817 L7.62904493,5.14512029 C7.80261128,4.97155393 8.07203568,4.95226878 8.26690382,5.08726484 Z" id="形状结合" fill="currentColor" fill-rule="evenodd"></path>
                    </g>
                </g>
            </g>
        </g>
    </g>
</svg>