<?xml version="1.0" encoding="UTF-8"?>
<svg width="16px" height="16px" viewBox="0 0 16 16" version="1.1" xmlns="http://www.w3.org/2000/svg" xmlns:xlink="http://www.w3.org/1999/xlink">
    <g id="组件分类" stroke="none" stroke-width="1" fill="none" fill-rule="evenodd">
        <g id="Icon图标-Light" transform="translate(-1080.000000, -310.000000)">
            <g id="方向和建议" transform="translate(120.000000, 262.000000)">
                <g id="General/Icon/添加/line" transform="translate(960.000000, 48.000000)">
                    <g id="1.通用/1.Icon图标/添加/line">
                        <rect id="矩形" fill-rule="nonzero" x="0" y="0" width="16" height="16"></rect>
                        <path d="M8,3 C8.27614237,3 8.5,3.22385763 8.5,3.5 L8.5,7.5 L12.5,7.5 C12.7761424,7.5 13,7.72385763 13,8 C13,8.27614237 12.7761424,8.5 12.5,8.5 L8.5,8.5 L8.5,12.5 C8.5,12.7761424 8.27614237,13 8,13 C7.72385763,13 7.5,12.7761424 7.5,12.5 L7.5,8.499 L3.5,8.5 C3.22385763,8.5 3,8.27614237 3,8 C3,7.72385763 3.22385763,7.5 3.5,7.5 L7.5,7.499 L7.5,3.5 C7.5,3.22385763 7.72385763,3 8,3 Z" id="路径" fill="currentColor" fill-rule="evenodd"></path>
                    </g>
                </g>
            </g>
        </g>
    </g>
</svg>