<?xml version="1.0" encoding="UTF-8"?>
<svg width="16px" height="16px" viewBox="0 0 16 16" version="1.1" xmlns="http://www.w3.org/2000/svg" xmlns:xlink="http://www.w3.org/1999/xlink">
    <g id="组件分类" stroke="none" stroke-width="1" fill="none" fill-rule="evenodd">
        <g id="Icon图标-Light" transform="translate(-1104.000000, -310.000000)">
            <g id="方向和建议" transform="translate(120.000000, 262.000000)">
                <g id="General/Icon/添加/fill" transform="translate(984.000000, 48.000000)">
                    <g id="1.通用/1.Icon图标/添加/fill">
                        <rect id="矩形" fill-rule="nonzero" x="0" y="0" width="16" height="16"></rect>
                        <path d="M8,1 C4.13359375,1 1,4.13359375 1,8 C1,11.8664062 4.13359375,15 8,15 C11.8664062,15 15,11.8664062 15,8 C15,4.13359375 11.8664062,1 8,1 Z M12.0637638,7.99929676 C12.0637638,8.23875722 11.8683272,8.4341735 11.6298247,8.43323585 L8.43416356,8.43274935 L8.43385054,11.6306165 C8.43387065,11.8681613 8.23848745,12.0635445 7.99998492,12.0644821 C7.76244014,12.0644821 7.56702386,11.8690457 7.56604583,11.630543 L7.56512933,8.43345646 L4.36938352,8.43385054 C4.13183874,8.43387065 3.93645555,8.23848745 3.9355179,7.99998492 C3.9355179,7.76244014 4.13095429,7.56702386 4.36945699,7.56604583 L7.56512933,7.56512933 L7.56543114,4.37010184 C7.56541103,4.13255706 7.76079422,3.93717387 7.99929676,3.93623622 C8.23875722,3.93623622 8.4341735,4.13167277 8.43323585,4.37017531 L8.43345646,7.56512933 L11.6298982,7.56543114 C11.8674429,7.56541103 12.0628261,7.76079422 12.0637638,7.99929676 Z" id="合并形状" fill="currentColor" fill-rule="evenodd"></path>
                    </g>
                </g>
            </g>
        </g>
    </g>
</svg>