<?xml version="1.0" encoding="UTF-8"?>
<svg width="16px" height="16px" viewBox="0 0 16 16" version="1.1" xmlns="http://www.w3.org/2000/svg" xmlns:xlink="http://www.w3.org/1999/xlink">
    <g id="组件分类" stroke="none" stroke-width="1" fill="none" fill-rule="evenodd">
        <g id="Icon图标-Light" transform="translate(-912.000000, -310.000000)">
            <g id="方向和建议" transform="translate(120.000000, 262.000000)">
                <g id="General/Icon/附件" transform="translate(792.000000, 48.000000)">
                    <g id="1.通用/1.Icon图标/附件">
                        <rect id="矩形" fill-rule="nonzero" x="0" y="0" width="16" height="16"></rect>
                        <path d="M10.3100191,4.96053362 C10.5180719,5.14809813 10.5180719,5.41069781 10.3100191,5.59827405 L5.85747045,9.59358679 C5.56619912,9.83743354 5.56619912,10.2688448 5.85747045,10.5502092 C6.12795342,10.8128088 6.6065022,10.8128088 6.91858792,10.5502092 L12.1409697,5.82336787 C12.8691871,5.16685106 12.8691871,4.07893472 12.1409697,3.42242964 C11.4127524,2.76592455 10.2059862,2.76591283 9.47776887,3.42242964 L8.85357141,3.98513487 L8.68712136,4.13520524 L3.8808842,8.46814113 C2.69491944,9.53731627 2.69491944,11.2442318 3.8808842,12.3133952 C5.06683595,13.3825704 6.96020368,13.3825704 8.14616844,12.3133952 L10.973207,9.99921228 C11.0564255,9.96169469 11.0980413,9.90542416 11.139657,9.84915364 C11.3477098,9.66157741 11.6390072,9.66157741 11.84706,9.84915364 C12.0551128,10.0367299 12.0551258,10.2993296 11.84706,10.4869058 L11.8054572,10.5244234 C11.7638285,10.5431763 11.7222257,10.5994468 11.68061,10.6369644 L8.85357141,12.9511474 C7.29310379,14.3579457 4.73393584,14.3579457 3.17345521,12.9511474 C1.61297458,11.5443491 1.6130006,9.23719899 3.17345521,7.83038898 L8.77035289,2.76592455 C9.8938875,1.75301994 11.7248381,1.75301994 12.8691871,2.76592455 C13.9927217,3.77881744 13.9927217,5.42945075 12.8691871,6.46110829 L7.62599089,11.1879613 C6.93937629,11.8069605 5.81585469,11.8069605 5.15005447,11.1879613 C4.46343987,10.5689621 4.46343987,9.5560692 5.15005447,8.95583464 L9.58178877,4.94176896 C9.78985459,4.79171032 10.0811519,4.79171032 10.3100191,4.96053362 Z" id="路径" fill="currentColor" fill-rule="evenodd"></path>
                    </g>
                </g>
            </g>
        </g>
    </g>
</svg>