<?xml version="1.0" encoding="UTF-8"?>
<svg width="16px" height="16px" viewBox="0 0 16 16" version="1.1" xmlns="http://www.w3.org/2000/svg" xmlns:xlink="http://www.w3.org/1999/xlink">
    <g id="组件分类" stroke="none" stroke-width="1" fill="none" fill-rule="evenodd">
        <g id="Icon图标-Light" transform="translate(-816.000000, -414.000000)">
            <g id="业务相关" transform="translate(120.000000, 366.000000)">
                <g id="General/Icon/柱图" transform="translate(696.000000, 48.000000)">
                    <g id="1.通用/1.Icon图标/柱图">
                        <rect id="矩形" x="0" y="0" width="16" height="16"></rect>
                        <path d="M2.52020202,8.24444444 L3.81919192,8.24444444 C4.0953343,8.24444444 4.31919192,8.46830206 4.31919192,8.74444444 L4.31919192,12.8010101 C4.31919192,13.0771525 4.0953343,13.3010101 3.81919192,13.3010101 L2.52020202,13.3010101 C2.24405964,13.3010101 2.02020202,13.0771525 2.02020202,12.8010101 L2.02020202,8.74444444 C2.02020202,8.46830206 2.24405964,8.24444444 2.52020202,8.24444444 Z M5.73838384,2.72727273 L7.03737373,2.72727273 C7.31351611,2.72727273 7.53737373,2.95113036 7.53737373,3.22727273 L7.53737373,12.8010101 C7.53737373,13.0771525 7.31351611,13.3010101 7.03737373,13.3010101 L5.73838384,13.3010101 C5.46224147,13.3010101 5.23838384,13.0771525 5.23838384,12.8010101 L5.23838384,3.22727273 C5.23838384,2.95113036 5.46224147,2.72727273 5.73838384,2.72727273 Z M8.95656566,6.40404041 L10.2555556,6.40404041 C10.5316979,6.40404041 10.7555556,6.62789803 10.7555556,6.90404041 L10.7555556,12.7989899 C10.7555556,13.0751323 10.5316979,13.2989899 10.2555556,13.2989899 L8.95656566,13.2989899 C8.68042328,13.2989899 8.45656566,13.0751323 8.45656566,12.7989899 L8.45656566,6.90404041 C8.45656566,6.62789803 8.68042328,6.40404041 8.95656566,6.40404041 Z M12.1747475,9.62222222 L13.4737374,9.62222222 C13.7498797,9.62222222 13.9737374,9.84607984 13.9737374,10.1222222 L13.9737374,12.7989899 C13.9737374,13.0751323 13.7498797,13.2989899 13.4737374,13.2989899 L12.1747475,13.2989899 C11.8986051,13.2989899 11.6747475,13.0751323 11.6747475,12.7989899 L11.6747475,10.1222222 C11.6747475,9.84607984 11.8986051,9.62222222 12.1747475,9.62222222 Z" id="形状" fill="currentColor" fill-rule="evenodd"></path>
                    </g>
                </g>
            </g>
        </g>
    </g>
</svg>