<?xml version="1.0" encoding="UTF-8"?>
<svg width="16px" height="16px" viewBox="0 0 16 16" version="1.1" xmlns="http://www.w3.org/2000/svg" xmlns:xlink="http://www.w3.org/1999/xlink">
    <g id="组件分类" stroke="none" stroke-width="1" fill="none" fill-rule="evenodd">
        <g id="Icon图标-Light" transform="translate(-264.000000, -798.000000)">
            <g id="导航菜单" transform="translate(120.000000, 750.000000)">
                <g id="General/Icon/铃铛" transform="translate(144.000000, 48.000000)">
                    <g id="1.通用/1.Icon图标/铃铛">
                        <rect id="矩形" fill-rule="nonzero" x="0" y="0" width="16" height="16"></rect>
                        <path d="M13.4375,13 L13,13 L13,6 C13,3.428125 11.059375,1.3109375 8.5625,1.03125 L8.5625,0.5625 C8.5625,0.2515625 8.3109375,0 8,0 C7.6890625,0 7.4375,0.2515625 7.4375,0.5625 L7.4375,1.03125 C4.940625,1.3109375 3,3.428125 3,6 L3,13 L2.5625,13 C2.2515625,13 2,13.2515625 2,13.5625 C2,13.8734375 2.2515625,14.125 2.5625,14.125 L6.875,14.125 L6.875,14.875 C6.875,15.496875 7.378125,16 8,16 C8.621875,16 9.125,15.496875 9.125,14.875 L9.125,14.125 L13.4375,14.125 C13.7484375,14.125 14,13.8734375 14,13.5625 C14,13.2515625 13.7484375,13 13.4375,13 Z M12,13 L4,13 L4,5.91954023 C4,3.75431034 5.79032258,2 8,2 C10.2096774,2 12,3.75431034 12,5.91954023 L12,13 Z" id="Shape" fill="currentColor" fill-rule="evenodd"></path>
                    </g>
                </g>
            </g>
        </g>
    </g>
</svg>