<?xml version="1.0" encoding="UTF-8"?>
<svg width="16px" height="16px" viewBox="0 0 16 16" version="1.1" xmlns="http://www.w3.org/2000/svg" xmlns:xlink="http://www.w3.org/1999/xlink">
    <g id="组件分类" stroke="none" stroke-width="1" fill="none" fill-rule="evenodd">
        <g id="Icon图标-Light" transform="translate(-192.000000, -414.000000)">
            <g id="业务相关" transform="translate(120.000000, 366.000000)">
                <g id="General/Icon/债券小" transform="translate(72.000000, 48.000000)">
                    <g id="1.通用/1.Icon图标/债券小">
                        <rect id="矩形" x="0" y="0" width="16" height="16"></rect>
                        <path d="M14,2.5 C14.5522847,2.5 15,2.94771525 15,3.5 L15,12.5 C15,13.0522847 14.5522847,13.5 14,13.5 L2,13.5 C1.44771525,13.5 1,13.0522847 1,12.5 L1,3.5 C1,2.94771525 1.44771525,2.5 2,2.5 L14,2.5 Z M2.00056176,10.7903755 L2,12.5 L3.80129405,12.5006704 C3.67257891,11.5877709 2.92752481,10.8728626 2.00056176,10.7903755 Z M11.1902475,3.50103568 L4.80975252,3.50103568 C4.68237603,4.97659257 3.48687339,6.14670996 2.00029208,6.23434035 L2.00029208,9.78769297 C3.47983589,9.87490851 4.67105046,11.0343863 4.80787178,12.5000623 L11.1921282,12.5000623 C11.3289807,11.0340524 12.5207069,9.87438025 14.0007191,9.78763353 L14.0007191,6.23439979 C12.5136688,6.14724055 11.3176528,4.97692713 11.1902475,3.50103568 Z M12.1987059,12.5006704 L14,12.5 L14.0004466,10.790286 C13.1275703,10.8675172 12.4158086,11.5055014 12.2277427,12.3416574 L12.1987059,12.5006704 Z M9.69401346,10.2176921 C9.86794369,10.2176921 10.008942,10.3586905 10.008942,10.5326207 C10.008942,10.7065509 9.86794369,10.8475492 9.69401346,10.8475492 L6.30598654,10.8475492 C6.13205631,10.8475492 5.99105799,10.7065509 5.99105799,10.5326207 C5.99105799,10.3586905 6.13205631,10.2176921 6.30598654,10.2176921 L9.69401346,10.2176921 Z M9.69401346,9.08797802 C9.86794369,9.08797802 10.008942,9.22897633 10.008942,9.40290657 C10.008942,9.5768368 9.86794369,9.71783512 9.69401346,9.71783512 L6.30598654,9.71783512 C6.13205631,9.71783512 5.99105799,9.5768368 5.99105799,9.40290657 C5.99105799,9.22897633 6.13205631,9.08797802 6.30598654,9.08797802 L9.69401346,9.08797802 Z M8,4.9673793 C8.86737713,4.9673793 9.57052522,5.6705274 9.57052522,6.53790453 C9.57052522,7.40528165 8.86737713,8.10842975 8,8.10842975 C7.13262287,8.10842975 6.42947478,7.40528165 6.42947478,6.53790453 C6.42947478,5.6705274 7.13262287,4.9673793 8,4.9673793 Z M3.80410841,3.50061725 L2,3.5 L2.00056176,5.23165784 C2.93453513,5.14854688 3.68383771,4.42341299 3.80410841,3.50061725 Z M14,3.5 L12.1958916,3.50061725 C12.3162056,4.42374508 13.0660043,5.14906877 14.0004466,5.23174731 L14,3.5 Z" id="形状" fill="currentColor" fill-rule="evenodd"></path>
                    </g>
                </g>
            </g>
        </g>
    </g>
</svg>