<?xml version="1.0" encoding="UTF-8"?>
<svg width="88px" height="88px" viewBox="0 0 88 88" version="1.1" xmlns="http://www.w3.org/2000/svg" xmlns:xlink="http://www.w3.org/1999/xlink">
    <g id="组件分类" stroke="none" stroke-width="1" fill="none" fill-rule="evenodd">
        <g id="Icon图标-Light" transform="translate(-312.000000, -622.000000)">
            <g id="其他" transform="translate(120.000000, 574.000000)">
                <g id="General/Icon/债券" transform="translate(192.000000, 48.000000)">
                    <g id="1.通用/1.Icon图标/其他/债券默认">
                        <g id="logo">
                            <rect id="Rectangle-2" stroke="#ADB8D1" fill="#C4CCDF" x="0.5" y="0.5" width="87" height="87" rx="4"></rect>
                            <g id="bond" transform="translate(21.000000, 30.000000)" fill="#FFFFFF">
                                <path d="M36.160568,-0.000197083779 C36.0768892,0.520198584 36.0333333,1.05479164 36.0333333,1.6 C36.0333333,6.9019336 40.1523136,11.2 45.2333333,11.2 C45.4916041,11.2 45.7473892,11.1888949 46.000274,11.1671174 L46.000274,18.6328826 C45.7473892,18.6111051 45.4916041,18.6 45.2333333,18.6 C40.2162138,18.6 36.1370881,22.7906391 36.0352815,28.0004476 L9.963,28 L9.96288041,27.9218956 C9.82184494,22.7485799 5.75854567,18.6 0.766666667,18.6 C0.508430832,18.6 0.252679985,18.6111021 -0.000171434036,18.6328738 L-0.00052628109,10.2671743 C0.498292566,10.3545299 1.01072415,10.4 1.53333333,10.4 C6.61435303,10.4 10.7333333,6.1019336 10.7333333,0.8 C10.7333333,0.530491005 10.7226902,0.263575915 10.7018187,-0.00031258813 L36.160568,-0.000197083779 Z M28.3666667,21.6 L17.6333333,21.6 L17.6333333,24 L28.3666667,24 L28.3666667,21.6 Z M28.3666667,17 L17.6333333,17 L17.6333333,19.4 L28.3666667,19.4 L28.3666667,17 Z M23,4.6 C20.2385763,4.6 18,6.83857625 18,9.6 C18,12.3614237 20.2385763,14.6 23,14.6 C25.7614237,14.6 28,12.3614237 28,9.6 C28,6.83857625 25.7614237,4.6 23,4.6 Z" id="合并形状"></path>
                                <path d="M46,0 L46,28 L0,28 L0,0 L46,0 Z M44,2 L2,2 L2,26 L44,26 L44,2 Z" id="合并形状"></path>
                            </g>
                        </g>
                    </g>
                </g>
            </g>
        </g>
    </g>
</svg>