<?xml version="1.0" encoding="UTF-8"?>
<svg width="16px" height="16px" viewBox="0 0 16 16" version="1.1" xmlns="http://www.w3.org/2000/svg" xmlns:xlink="http://www.w3.org/1999/xlink">
    <g stroke="none" stroke-width="1" fill="none" fill-rule="evenodd">
        <g transform="translate(-240.000000, -414.000000)">
            <g transform="translate(120.000000, 366.000000)">
                <g transform="translate(120.000000, 48.000000)">
                    <g>
                        <rect fill-rule="nonzero" x="0" y="0" width="16" height="16"></rect>
                        <path d="M10.9285476,9.00066778 C11.1681568,9.00066778 11.3671386,8.82784751 11.4083987,8.59961503 L11.4162493,8.51165971 C11.4146912,8.2413773 11.1965498,8.02265164 10.9269894,8.02265164 L5.07145242,8.02265164 C4.8318432,8.02265164 4.63286135,8.19547191 4.5916013,8.42370439 L4.5837507,8.51165971 C4.5837507,8.78194213 4.80189204,9.00066778 5.07145242,9.00066778 L10.9285476,9.00066778 Z M10.9285476,11.3899693 C11.1681568,11.3899693 11.3671386,11.217149 11.4083987,10.9889165 L11.4162493,10.9009612 C11.4146912,10.6306788 11.1965498,10.4119531 10.9269894,10.4119531 L5.07145242,10.4119531 C4.8318432,10.4119531 4.63286135,10.5847734 4.5916013,10.8130059 L4.5837507,10.9009612 C4.5837507,11.1712436 4.80189204,11.3899693 5.07145242,11.3899693 L10.9285476,11.3899693 Z M12.0753478,3.0024533 L12.0753478,2.48967585 C12.0753478,2.21939343 11.8572065,2.00066778 11.5876461,2.00066778 C11.3180857,2.00066778 11.0999444,2.21939343 11.0999444,2.48967585 L11.0999444,3.0024533 L4.8984975,3.0024533 L4.8984975,2.48967585 C4.8984975,2.21939343 4.68035615,2.00066778 4.41079577,2.00066778 C4.14123539,2.00066778 3.92309405,2.21939343 3.92309405,2.48967585 L3.92309405,3.0024533 L2.12186978,3.0024533 C1.5017251,3.0024533 1,3.3786394 1,4.00044519 L1,12.8744574 C1,13.4962632 1.5017251,13.9993322 2.12186978,13.9993322 L13.8781302,13.9993322 C14.4982749,13.9993322 15,13.4962632 15,12.8744574 L15,4.00044519 C14.9984418,3.38020173 14.4967168,3.0024533 13.8765721,3.0024533 L12.0753478,3.0024533 Z M3.9246522,4.00044519 L3.9246522,4.25354201 C3.9246522,4.52382443 4.14279354,4.74255008 4.41235392,4.74255008 C4.6819143,4.74255008 4.90005565,4.52382443 4.90005565,4.25354201 L4.90005565,4.00044519 L11.1015025,4.00044519 L11.1015025,4.25354201 C11.1015025,4.52382443 11.3196439,4.74255008 11.5892042,4.74255008 C11.8587646,4.74255008 12.076906,4.52382443 12.076906,4.25354201 L12.076906,4.00044519 L14.0053458,4.00044519 L14.0053458,5.53308709 L2.002499,5.53308709 L2.002499,4.00044519 L3.9246522,4.00044519 Z M2.00753075,13.0055902 L2.00753075,6.49633037 L14.0099105,6.49633037 L14.0099105,13.0055902 L2.00753075,13.0055902 Z" fill="currentColor" fill-rule="evenodd"></path>
                    </g>
                </g>
            </g>
        </g>
    </g>
</svg>