<?xml version="1.0" encoding="UTF-8"?>
<svg width="16px" height="16px" viewBox="0 0 16 16" version="1.1" xmlns="http://www.w3.org/2000/svg" xmlns:xlink="http://www.w3.org/1999/xlink">
    <g id="组件分类" stroke="none" stroke-width="1" fill="none" fill-rule="evenodd">
        <g id="Icon图标-Light" transform="translate(-1008.000000, -310.000000)">
            <g id="方向和建议" transform="translate(120.000000, 262.000000)">
                <g id="General/Icon/勾选/fill" transform="translate(888.000000, 48.000000)">
                    <g id="1.通用/1.Icon图标/勾选/fill">
                        <rect id="Rectangle-18" x="0" y="0" width="16" height="16"></rect>
                        <path d="M8,1 C11.865625,1 15,4.134375 15,8 C15,11.865625 11.865625,15 8,15 C4.134375,15 1,11.865625 1,8 C1,4.134375 4.134375,1 8,1 Z M11.6399379,5.83459594 C11.4446758,5.63933379 11.1280933,5.63933379 10.9328312,5.83459594 L10.9328312,5.83459594 L7.40506019,9.36233643 L5.54362515,7.50156137 C5.348363,7.30629923 5.03178051,7.30629923 4.83651837,7.50156137 C4.64125622,7.69682352 4.64125622,8.01340601 4.83651837,8.20866815 L4.83651837,8.20866815 L7.05119205,10.4233418 L7.12043993,10.4811973 C7.31530807,10.6161933 7.58473248,10.5969082 7.75829883,10.4233418 L7.75829883,10.4233418 L11.6399379,6.54170272 C11.8352001,6.34644057 11.8352001,6.02985808 11.6399379,5.83459594 Z" id="形状结合" fill="currentColor" fill-rule="evenodd"></path>
                    </g>
                </g>
            </g>
        </g>
    </g>
</svg>