<?xml version="1.0" encoding="UTF-8"?>
<svg width="16px" height="16px" viewBox="0 0 16 16" version="1.1" xmlns="http://www.w3.org/2000/svg" xmlns:xlink="http://www.w3.org/1999/xlink">
    <g id="组件分类" stroke="none" stroke-width="1" fill="none" fill-rule="evenodd">
        <g id="Icon图标-Light" transform="translate(-1056.000000, -310.000000)">
            <g id="方向和建议" transform="translate(120.000000, 262.000000)">
                <g id="General/Icon/清除/fill" transform="translate(936.000000, 48.000000)">
                    <g id="1.通用/1.Icon图标/清除/fill">
                        <rect id="矩形" fill-rule="nonzero" x="0" y="0" width="16" height="16"></rect>
                        <path d="M8,1 C11.8664062,1 15,4.13359375 15,8 C15,11.8664062 11.8664062,15 8,15 C4.13359375,15 1,11.8664062 1,8 C1,4.13359375 4.13359375,1 8,1 Z M10.8730177,5.12598781 C10.7037079,4.95800406 10.4273943,4.95800406 10.259439,5.12598781 L10.259439,5.12598781 L7.999,7.386 L5.73967035,5.12698234 C5.57168661,4.95767255 5.29532626,4.95767255 5.12598781,5.12698234 C4.95800406,5.29629212 4.95800406,5.57260568 5.12598781,5.74056098 L5.12598781,5.74056098 L7.385,8 L5.12596648,10.2603296 C4.95801117,10.4296681 4.95801117,10.7060284 5.12596648,10.8740122 C5.29527626,11.0419959 5.57158982,11.0419959 5.73954512,10.8740122 L5.73954512,10.8740122 L7.999,8.614 L10.2603296,10.8740335 C10.4296681,11.0419888 10.7060284,11.0419888 10.8740122,10.8740335 C11.0419959,10.7047237 11.0419959,10.4284102 10.8740122,10.2604549 L10.8740122,10.2604549 L8.613,7.999 L10.8730177,5.73967035 C11.0423274,5.57168661 11.0423274,5.29532626 10.8730177,5.12598781 Z" id="合并形状" fill="currentColor" fill-rule="evenodd"></path>
                    </g>
                </g>
            </g>
        </g>
    </g>
</svg>