<?xml version="1.0" encoding="UTF-8"?>
<svg width="16px" height="16px" viewBox="0 0 16 16" version="1.1" xmlns="http://www.w3.org/2000/svg" xmlns:xlink="http://www.w3.org/1999/xlink">
    <g id="组件分类" stroke="none" stroke-width="1" fill="none" fill-rule="evenodd">
        <g id="Icon图标-Light" transform="translate(-1032.000000, -310.000000)">
            <g id="方向和建议" transform="translate(120.000000, 262.000000)">
                <g id="General/Icon/清除/line" transform="translate(912.000000, 48.000000)">
                    <g id="1.通用/1.Icon图标/清除/line">
                        <rect id="矩形" fill-rule="nonzero" x="0" y="0" width="16" height="16"></rect>
                        <path d="M8.72498327,8.03407227 L11.8536648,4.90354673 C12.0524464,4.70476084 12.0524464,4.38107062 11.8536648,4.18228473 C11.6548833,3.98349884 11.3312001,3.98349884 11.1324186,4.18228473 L8.003737,7.31105636 L4.87330158,4.18228473 C4.67452003,3.98349884 4.35083687,3.98349884 4.15205531,4.18228473 C3.95327376,4.38107062 3.95327376,4.70476084 4.15205531,4.90354673 L7.28249074,8.03407227 L4.15205531,11.1628439 C3.95327376,11.3616298 3.95327376,11.68532 4.15205531,11.8841059 C4.35083687,12.0828918 4.67452003,12.0828918 4.87330158,11.8841059 L8.003737,8.75358036 L11.1341724,11.8841059 C11.332954,12.0828918 11.6566371,12.0828918 11.8554187,11.8841059 C12.0524464,11.68532 12.0524464,11.3616298 11.8536503,11.1628439 L8.72498327,8.03407227 Z" id="路径" fill="currentColor" fill-rule="evenodd"></path>
                    </g>
                </g>
            </g>
        </g>
    </g>
</svg>