<?xml version="1.0" encoding="UTF-8"?>
<svg width="16px" height="16px" viewBox="0 0 16 16" version="1.1" xmlns="http://www.w3.org/2000/svg" xmlns:xlink="http://www.w3.org/1999/xlink">
    <g stroke="none" stroke-width="1" fill="none" fill-rule="evenodd">
        <g transform="translate(-120.000000, -310.000000)">
            <g transform="translate(120.000000, 262.000000)">
                <g transform="translate(0.000000, 48.000000)">
                    <g>
                        <rect fill-rule="nonzero" x="0" y="0" width="16" height="16"></rect>
                        <path d="M7.61513487,5.34604828 C7.62431968,5.33654492 7.6365661,5.33337714 7.64575091,5.32545767 C7.6472817,5.32387378 7.64881252,5.31912209 7.65034331,5.3175382 C7.87077879,5.09104144 8.22745566,5.09262533 8.44636034,5.32070599 L12.7782277,9.8614157 C12.9971324,10.0894964 12.9956016,10.4569596 12.7751661,10.6834564 C12.6659689,10.7948569 12.5215632,10.8513491 12.3786884,10.8513491 C12.2342827,10.8513491 12.0888565,10.793273 11.979149,10.6787047 L8.03916701,6.5482234 L4.01703196,10.6533624 C3.90783474,10.7647629 3.7649599,10.8212551 3.62055424,10.8212551 C3.47461779,10.8212551 3.33072241,10.763179 3.22101493,10.6486107 C3.00211024,10.4236979 3.00517185,10.0546507 3.22560733,9.82815394 L7.61513487,5.34604828 Z" fill="currentColor" fill-rule="evenodd"></path>
                    </g>
                </g>
            </g>
        </g>
    </g>
</svg>