<?xml version="1.0" encoding="UTF-8"?>
<svg width="16px" height="16px" viewBox="0 0 16 16" version="1.1" xmlns="http://www.w3.org/2000/svg" xmlns:xlink="http://www.w3.org/1999/xlink">
    <g stroke="none" stroke-width="1" fill="none" fill-rule="evenodd">
        <g transform="translate(-216.000000, -310.000000)">
            <g transform="translate(120.000000, 262.000000)">
                <g transform="translate(96.000000, 48.000000)">
                    <g>
                        <rect fill-rule="nonzero" x="0" y="0" width="16" height="16"></rect>
                        <path d="M3.56276558,7 C3.70717124,7 3.85259742,7.05807609 3.9623049,7.17264438 L7.90228692,11.3031257 L11.924422,7.19798667 C12.0336192,7.08658617 12.176494,7.03009396 12.3208997,7.03009396 C12.4668361,7.03009396 12.6107315,7.08817005 12.720439,7.20273835 C12.9393437,7.42765122 12.9362821,7.7966984 12.7158466,8.02319516 L8.32631906,12.5053008 C8.31713426,12.5148042 8.30488783,12.517972 8.29570303,12.5258914 L8.29111062,12.5338109 C8.07067514,12.7603077 7.71399827,12.7587238 7.49509359,12.5306431 L3.16322626,7.98993339 C2.94432158,7.76185274 2.94585238,7.39438947 3.16628787,7.1678927 C3.27548508,7.0564922 3.41989072,7 3.56276558,7 Z M3.56276558,3 C3.70717124,3 3.85259742,3.05807609 3.9623049,3.17264438 L7.90228692,7.3031257 L11.924422,3.19798667 C12.0336192,3.08658617 12.176494,3.03009396 12.3208997,3.03009396 C12.4668361,3.03009396 12.6107315,3.08817005 12.720439,3.20273835 C12.9393437,3.42765122 12.9362821,3.7966984 12.7158466,4.02319516 L8.32631906,8.50530081 C8.31713426,8.51480417 8.30488783,8.51797196 8.29570303,8.52589143 L8.29111062,8.53381089 C8.07067514,8.76030765 7.71399827,8.75872377 7.49509359,8.5306431 L3.16322626,3.98993339 C2.94432158,3.76185274 2.94585238,3.39438947 3.16628787,3.1678927 C3.27548508,3.0564922 3.41989072,3 3.56276558,3 Z" fill="currentColor" fill-rule="evenodd" transform="translate(7.941454, 7.851349) scale(1, -1) translate(-7.941454, -7.851349) "></path>
                    </g>
                </g>
            </g>
        </g>
    </g>
</svg>