<?xml version="1.0" encoding="UTF-8"?>
<svg width="16px" height="16px" viewBox="0 0 16 16" version="1.1" xmlns="http://www.w3.org/2000/svg" xmlns:xlink="http://www.w3.org/1999/xlink">
    <g id="组件分类" stroke="none" stroke-width="1" fill="none" fill-rule="evenodd">
        <g id="Icon图标-Light" transform="translate(-168.000000, -798.000000)">
            <g id="导航菜单" transform="translate(120.000000, 750.000000)">
                <g id="General/Icon/组合" transform="translate(48.000000, 48.000000)">
                    <g id="1.通用/1.Icon图标/组合">
                        <rect id="矩形" fill-rule="nonzero" x="0" y="0" width="16" height="16"></rect>
                        <path d="M6.12676056,9 L5,9 L5,6.34525661 C5,5.98847237 5.1426192,5.64630109 5.396483,5.39401654 C5.65034679,5.14173199 5.99465999,5 6.35367762,5 L9,5 L9,6.11975117 L6.68231612,6.11975117 C6.37422981,6.12400393 6.12673084,6.37342746 6.12676056,6.67962675 L6.12676056,9 Z M12,6.03548154 L12,5 L13.748191,5 C14.0801914,5 14.3985939,5.13198214 14.6333536,5.36691185 C14.8681134,5.60184157 15,5.92047464 15,6.25271542 L15,13.7472846 C15,14.4391402 14.439546,15 13.748191,15 L6.25180897,15 C5.56045397,15 5,14.4391402 5,13.7472846 L5,12 L6.04920405,12 L6.04920405,13.3345402 C6.04920405,13.6784684 6.32781123,13.9572773 6.67149059,13.9572773 L13.4370478,13.9572773 C13.7247793,13.9572773 13.9580318,13.7238559 13.9580318,13.435916 L13.9580318,6.66545981 C13.9580318,6.31753242 13.676185,6.03548154 13.3285094,6.03548154 L12,6.03548154 Z M1,2.25180897 L1,9.74819103 C1.00395546,10.4379022 1.56250484,10.9960474 2.25271542,11 L9.74728458,11 C10.4374952,10.9960474 10.9960445,10.4379022 11,9.74819103 L11,2.25180897 C10.9960445,1.56209782 10.4374952,1.0039526 9.74728458,1 L2.25271542,1 C1.56250484,1.0039526 1.00395546,1.56209782 1,2.25180897 Z M2.00730594,2.50410959 C2.01892221,2.22499191 2.24669179,2.00363837 2.5260274,2 L9.4739726,2 C9.76448951,2 10,2.23551049 10,2.5260274 L10,9.4739726 C10,9.76448951 9.76448951,10 9.4739726,10 L2.5260274,10 C2.23551049,10 2,9.76448951 2,9.4739726 L2,2.51141553 L2.00730594,2.50410959 Z" id="形状" fill="currentColor" fill-rule="evenodd"></path>
                    </g>
                </g>
            </g>
        </g>
    </g>
</svg>