<?xml version="1.0" encoding="UTF-8"?>
<svg width="16px" height="16px" viewBox="0 0 16 16" version="1.1" xmlns="http://www.w3.org/2000/svg" xmlns:xlink="http://www.w3.org/1999/xlink">
    <g id="组件分类" stroke="none" stroke-width="1" fill="none" fill-rule="evenodd">
        <g id="Icon图标-Light" transform="translate(-744.000000, -414.000000)">
            <g id="业务相关" transform="translate(120.000000, 366.000000)">
                <g id="General/Icon/评论" transform="translate(624.000000, 48.000000)">
                    <g id="1.通用/1.Icon图标/评论">
                        <rect id="矩形" x="0" y="0" width="16" height="16"></rect>
                        <path d="M5.93333333,14.2666667 L5.8,14.2666667 C5.46666667,14.2 5.2,14 5.06666667,13.7333333 L4.6,12.6 L3.53333333,12.6 C2.33333333,12.6 1.33333333,11.6 1.33333333,10.4 L1.33333333,3.93333333 C1.33333333,2.66666667 2.33333333,1.73333333 3.53333333,1.73333333 L12.4666667,1.73333333 C13.6666667,1.73333333 14.6666667,2.66666667 14.6666667,3.93333333 L14.6666667,10.4 C14.6666667,11.6 13.6666667,12.6 12.4666667,12.6 L7.66666667,12.6 L6.66666667,13.9333333 C6.53333334,14.1333333 6.26666667,14.2666667 5.93333333,14.2666667 Z M3.53333333,2.73333333 C2.86666666,2.73333333 2.33333333,3.26666666 2.33333333,3.93333333 L2.33333333,10.4 C2.33333333,11.0666667 2.86666666,11.6 3.53333333,11.6 L5.26666667,11.6 L5.93333333,13.2 L7.13333333,11.6 L12.4,11.6 C13.0666667,11.6 13.6,11.0666667 13.6,10.4 L13.6,3.93333333 C13.6,3.26666666 13.0666667,2.73333333 12.4,2.73333333 L3.53333333,2.73333333 Z M3.66666667,7.33333333 C3.66666667,7.77516113 4.02483887,8.13333333 4.46666667,8.13333333 C4.90849447,8.13333333 5.26666667,7.77516113 5.26666667,7.33333333 C5.26666667,6.89150553 4.90849447,6.53333333 4.46666667,6.53333333 C4.02483887,6.53333333 3.66666667,6.89150553 3.66666667,7.33333333 L3.66666667,7.33333333 Z M7.2,7.33333333 C7.2,7.77516113 7.5581722,8.13333333 8,8.13333333 C8.4418278,8.13333333 8.8,7.77516113 8.8,7.33333333 C8.8,7.04752085 8.64752088,6.78341922 8.40000001,6.64051298 C8.15247914,6.49760673 7.84752086,6.49760673 7.59999999,6.64051298 C7.35247912,6.78341922 7.2,7.04752085 7.2,7.33333333 L7.2,7.33333333 Z M10.7333333,7.33333333 C10.7333333,7.77516113 11.0915055,8.13333333 11.5333333,8.13333333 C11.9751611,8.13333333 12.3333333,7.77516113 12.3333333,7.33333333 C12.3333333,6.89150553 11.9751611,6.53333333 11.5333333,6.53333333 C11.0915055,6.53333333 10.7333333,6.89150553 10.7333333,7.33333333 L10.7333333,7.33333333 Z" id="形状" fill="currentColor" fill-rule="evenodd"></path>
                    </g>
                </g>
            </g>
        </g>
    </g>
</svg>