<?xml version="1.0" encoding="UTF-8"?>
<svg width="16px" height="16px" viewBox="0 0 16 16" version="1.1" xmlns="http://www.w3.org/2000/svg" xmlns:xlink="http://www.w3.org/1999/xlink">
    <g id="组件分类" stroke="none" stroke-width="1" fill="none" fill-rule="evenodd">
        <g id="Icon图标-Light" transform="translate(-576.000000, -414.000000)">
            <g id="业务相关" transform="translate(120.000000, 366.000000)">
                <g id="General/Icon/企业小" transform="translate(456.000000, 48.000000)">
                    <g id="1.通用/1.Icon图标/企业小">
                        <rect id="矩形" x="0" y="0" width="16" height="16"></rect>
                        <path d="M15,13.5 L14.5,13.5 L14.5,6.5 C14.5,5.4 13.6,4.5 12.5,4.5 L9.5,4.5 L9.5,3.5 C9.5,2.4 8.6,1.5 7.5,1.5 L3.5,1.5 C2.4,1.5 1.5,2.4 1.5,3.5 L1.5,13.5 L1,13.5 C0.72,13.5 0.5,13.72 0.5,14 C0.5,14.28 0.72,14.5 1,14.5 L15,14.5 C15.28,14.5 15.5,14.28 15.5,14 C15.5,13.72 15.28,13.5 15,13.5 Z M8.5,4.5 L8.5,5.5 L8.5,13.5 L2.5,13.5 L2.5,3.5 C2.5,2.95 2.95,2.5 3.5,2.5 L7.5,2.5 C8.05,2.5 8.5,2.95 8.5,3.5 L8.5,4.5 Z M13.5,13.5 L9.5,13.5 L9.5,5.5 L12.5,5.5 C13.05,5.5 13.5,5.95 13.5,6.5 L13.5,13.5 Z M7,4.5 L4,4.5 C3.72,4.5 3.5,4.72 3.5,5 C3.5,5.28 3.72,5.5 4,5.5 L7,5.5 C7.28,5.5 7.5,5.28 7.5,5 C7.5,4.72 7.28,4.5 7,4.5 Z M7,7.5 L4,7.5 C3.72,7.5 3.5,7.72 3.5,8 C3.5,8.28 3.72,8.5 4,8.5 L7,8.5 C7.28,8.5 7.5,8.28 7.5,8 C7.5,7.72 7.28,7.5 7,7.5 Z M7,10.5 L4,10.5 C3.72,10.5 3.5,10.72 3.5,11 C3.5,11.28 3.72,11.5 4,11.5 L7,11.5 C7.28,11.5 7.5,11.28 7.5,11 C7.5,10.72 7.28,10.5 7,10.5 Z M12,7.5 L11,7.5 C10.72,7.5 10.5,7.72 10.5,8 C10.5,8.28 10.72,8.5 11,8.5 L12,8.5 C12.28,8.5 12.5,8.28 12.5,8 C12.5,7.72 12.28,7.5 12,7.5 Z M12,10.5 L11,10.5 C10.72,10.5 10.5,10.72 10.5,11 C10.5,11.28 10.72,11.5 11,11.5 L12,11.5 C12.28,11.5 12.5,11.28 12.5,11 C12.5,10.72 12.28,10.5 12,10.5 Z" id="形状" fill="currentColor" fill-rule="evenodd"></path>
                    </g>
                </g>
            </g>
        </g>
    </g>
</svg>