<?xml version="1.0" encoding="UTF-8"?>
<svg width="88px" height="88px" viewBox="0 0 88 88" version="1.1" xmlns="http://www.w3.org/2000/svg" xmlns:xlink="http://www.w3.org/1999/xlink">
    <g id="组件分类" stroke="none" stroke-width="1" fill="none" fill-rule="evenodd">
        <g id="Icon图标-Light" transform="translate(-216.000000, -622.000000)">
            <g id="其他" transform="translate(120.000000, 574.000000)">
                <g id="General/Icon/企业默认" transform="translate(96.000000, 48.000000)">
                    <g id="1.通用/1.Icon图标/其他/企业默认">
                        <g id="logo">
                            <rect id="Rectangle-2" stroke="#ADB8D1" fill="#C4CCDF" x="0.5" y="0.5" width="87" height="87" rx="4"></rect>
                            <g id="企业" transform="translate(18.000000, 18.000000)" fill-rule="nonzero">
                                <rect id="矩形" fill="#000000" opacity="0" x="0" y="0" width="52" height="52"></rect>
                                <path d="M46.8965455,48.8638172 L46.8965455,4.18089423 L40.5025455,0 L17.1951818,10.1910577 L17.1951818,18.0776049 L4.31518182,22.4715383 L4.31518182,48.8638172 L3,48.8638172 L3,52 L7.20481818,52 L7.20481818,24.3008076 L24.2896364,18.8150483 L24.2896364,52 L36.1179091,52 L36.1179091,48.6036636 L33.4896364,48.6036636 L33.4896364,18.2906441 L27.288,14.6321056 L20.3461818,17.0001182 L20.3461818,12.0182785 L37.1696364,4.7012015 L37.1696364,51.9979515 L49,51.9979515 L49,48.8617688 L46.8965455,48.8617688 L46.8965455,48.8638172 Z M9,32 L21,28.1431452 L21,23 L9,27.1149194 L9,32 L9,32 Z M9,39 L21,36.3326365 L21,31 L9,34.2004181 L9,39 L9,39 Z M9,46 L21,44.383479 L21,39 L9,40.8845342 L9,46 Z M9,52 L21,51.7611049 L21,47 L9,47.4777902 L9,52 L9,52 Z" id="形状" fill="#FEFEFE"></path>
                            </g>
                        </g>
                    </g>
                </g>
            </g>
        </g>
    </g>
</svg>