<?xml version="1.0" encoding="UTF-8"?>
<svg width="16px" height="16px" viewBox="0 0 16 16" version="1.1" xmlns="http://www.w3.org/2000/svg" xmlns:xlink="http://www.w3.org/1999/xlink">
    <g id="组件分类" stroke="none" stroke-width="1" fill="none" fill-rule="evenodd">
        <g id="Icon图标-Light" transform="translate(-456.000000, -518.000000)">
            <g id="控制" transform="translate(120.000000, 470.000000)">
                <g id="General/Icon/复制" transform="translate(336.000000, 48.000000)">
                    <g id="1.通用/1.Icon图标/复制">
                        <rect id="矩形" fill-rule="nonzero" x="0" y="0" width="16" height="16"></rect>
                        <path d="M13.0095505,3.64117647 L12.0123529,3.64117647 L12.0123529,2.40588235 C12.0123529,1.91176471 11.6005882,1.5 11.1064706,1.5 L3.03588235,1.5 C2.54176471,1.5 2.13,1.91176471 2.13,2.40588235 L2.13,11.6294118 C2.13,12.1235294 2.54176471,12.5352941 3.03588235,12.5352941 L4.03307996,12.5352941 L4.03307996,13.7705882 C4.03307996,14.2647059 4.44484467,14.6764706 4.93896231,14.6764706 L13.0095505,14.6764706 C13.5036682,14.6764706 13.9154329,14.2647059 13.9154329,13.7705882 L13.9154329,4.46470588 C13.9977858,3.97058824 13.5036682,3.64117647 13.0095505,3.64117647 Z M4.1154329,4.46470588 L4.1154329,11.4647059 L3.18086959,11.4647059 L3.18086959,2.40588235 L11.004399,2.40588235 L11.004399,3.55882353 L5.1036682,3.55882353 C4.52719761,3.64117647 4.1154329,3.97058824 4.1154329,4.46470588 Z M12.9271976,13.6058824 L5.1036682,13.6058824 L5.1036682,4.54705882 L12.9271976,4.54705882 L12.9271976,13.6058824 Z" id="形状" fill="currentColor" fill-rule="evenodd"></path>
                    </g>
                </g>
            </g>
        </g>
    </g>
</svg>