<?xml version="1.0" encoding="UTF-8"?>
<svg width="16px" height="16px" viewBox="0 0 16 16" version="1.1" xmlns="http://www.w3.org/2000/svg" xmlns:xlink="http://www.w3.org/1999/xlink">
    <g id="组件分类" stroke="none" stroke-width="1" fill="none" fill-rule="evenodd">
        <g id="Icon图标-Light" transform="translate(-1032.000000, -414.000000)">
            <g id="业务相关" transform="translate(120.000000, 366.000000)">
                <g id="General/Icon/客户" transform="translate(912.000000, 48.000000)">
                    <g id="1.通用/1.Icon图标/客户">
                        <rect id="矩形" x="0" y="0" width="16" height="16"></rect>
                        <path d="M14.55,12.2807572 C14.55,10.4521622 13.4056259,8.88897223 11.7878421,8.25121085 C12.5715073,7.73297885 13.0877435,6.85009522 13.0877435,5.84726881 C13.0877435,4.47816214 12.1256306,3.33229137 10.8346142,3.03408811 C10.822335,3.03125679 10.8113008,3.03287289 10.8002797,3.03691943 C10.7854451,3.03570421 10.7714492,3.03245947 10.7566277,3.03245947 C10.4807068,3.03245947 10.2569166,3.25409179 10.2569166,3.52718901 C10.2569166,3.77395243 10.4400165,3.97654224 10.6786281,4.01381295 C10.7210089,4.03123936 10.7765339,4.04420581 10.7786568,4.04500759 C11.5267295,4.29621844 12.065008,4.99598073 12.065008,5.82133593 C12.065008,6.74150279 11.3953411,7.50648569 10.5120665,7.66653051 C10.5107953,7.66653051 10.5099566,7.66896093 10.5086724,7.66936183 C10.2149551,7.68800346 9.98142815,7.92706218 9.98142815,8.22244665 C9.98142815,8.52229109 10.2217434,8.76539633 10.5218164,8.77714758 C10.5239394,8.7779619 10.5256299,8.78119412 10.5277529,8.78160754 C12.3036327,8.96069487 13.5628439,10.4582633 13.5628439,12.2807698 C13.5628439,12.5506223 13.7836724,12.7694232 14.0561992,12.7694232 C14.3223701,12.7694232 14.5372622,12.5607574 14.5478508,12.3002257 C14.5482702,12.2973944 14.55,12.2953649 14.55,12.2929344 C14.55,12.2921326 14.5495413,12.2913183 14.5495413,12.2901031 L14.5495413,12.2901031 C14.5495413,12.2868584 14.55,12.2840145 14.55,12.2811832 L14.55,12.2807572 L14.55,12.2807572 L14.55,12.2807572 L14.55,12.2807572 L14.55,12.2807572 L14.55,12.2807572 Z M8.63533236,8.33265518 C9.57073774,7.71191932 10.187422,6.6564128 10.187422,5.45788697 C10.187422,3.54784761 8.62304009,1.99924019 6.69372961,1.99924019 C4.76398668,1.99924019 3.19960474,3.54784762 3.19960474,5.45788697 C3.19960474,6.65681369 3.81628901,7.71191932 4.7516944,8.33265518 C2.81773176,9.09642288 1.45,10.9663477 1.45,13.1539317 C1.45,13.2771067 1.45720762,13.3982521 1.46653821,13.5189967 L1.46737692,13.5189967 C1.46737692,13.7852035 1.68564998,14.0007598 1.95436329,14.0007598 C2.22350907,14.0007598 2.44136276,13.7852036 2.44136276,13.5189967 C2.44136276,13.5040133 2.43840109,13.4898191 2.43669746,13.4748356 C2.42737997,13.3686736 2.41932054,13.2625241 2.41932054,13.1539317 C2.41932054,10.8172398 4.3329446,8.92301072 6.69331028,8.92301072 C9.05408219,8.92301072 10.9677194,10.8172398 10.9677194,13.1539317 C10.9677194,13.2665707 10.9596599,13.3775935 10.9494906,13.4874012 C10.9494906,13.4930764 10.947787,13.4983381 10.947787,13.5040133 C10.947787,13.5060303 10.9482064,13.5076589 10.9482064,13.509275 C10.9482064,13.5125198 10.9482064,13.515752 10.947787,13.5185958 L10.9494906,13.5185958 C10.9575369,13.7779123 11.1711578,13.9861773 11.4347734,13.9861773 C11.698402,13.9861773 11.9120229,13.7779123 11.9200692,13.5185958 L11.9213404,13.5185958 C11.9302385,13.3982522 11.9365944,13.2767058 11.9365944,13.1539317 C11.9370268,10.9663477 10.5693081,9.09642288 8.63533236,8.33265518 L8.63533236,8.33265518 L8.63533236,8.33265518 L8.63533236,8.33265518 Z M6.69372962,7.94205814 C5.30736288,7.94205814 4.1837599,6.8298375 4.1837599,5.45788698 C4.1837599,4.08593646 5.30736288,2.97370329 6.69372962,2.97370329 C8.079677,2.97370329 9.20328,4.08592394 9.20328,5.45788698 C9.20328,6.82982497 8.079677,7.94205814 6.69372962,7.94205814 L6.69372962,7.94205814 L6.69372962,7.94205814 L6.69372962,7.94205814 Z" id="形状" fill="currentColor" fill-rule="evenodd"></path>
                    </g>
                </g>
            </g>
        </g>
    </g>
</svg>