<?xml version="1.0" encoding="UTF-8"?>
<svg width="16px" height="16px" viewBox="0 0 16 16" version="1.1" xmlns="http://www.w3.org/2000/svg" xmlns:xlink="http://www.w3.org/1999/xlink">
    <g id="组件分类" stroke="none" stroke-width="1" fill="none" fill-rule="evenodd">
        <g id="Icon图标-Light" transform="translate(-984.000000, -414.000000)">
            <g id="业务相关" transform="translate(120.000000, 366.000000)">
                <g id="General/Icon/客户" transform="translate(864.000000, 48.000000)">
                    <g id="1.通用/1.Icon图标/客户">
                        <rect id="矩形" x="0" y="0" width="16" height="16"></rect>
                        <path d="M8.771496,1.58397136 C10.3679304,1.93270142 11.5007586,3.29892541 11.5,4.87462736 C11.4944668,5.90311622 11.0082022,6.87456294 10.176,7.51967976 C12.734743,8.23616284 14.4959285,10.4912112 14.5,13.0561941 C14.4978021,13.8527081 13.827515,14.4978844 13,14.5 L3,14.5 C2.172485,14.4978844 1.50219793,13.8527081 1.5,13.0561941 C1.50407148,10.4912112 3.26525699,8.23616284 5.82399999,7.51967976 C4.53940646,6.54296012 4.12860832,4.84026554 4.83456094,3.41860834 C5.54051356,1.99695115 7.17506155,1.23524131 8.771496,1.58397136 Z M8.00000001,8.72222222 C7.69925946,8.72222222 7.45546108,8.93783658 7.45546106,9.20381038 C7.45334094,9.35583031 7.5344916,9.49936899 7.67327663,9.58908093 L7.67327663,9.58908093 L6.93705997,11.877588 C6.88413213,12.0395607 6.93599601,12.2141558 7.07210564,12.3322073 L7.07210564,12.3322073 L7.8083223,12.9833145 C7.85843138,13.0294672 7.9276519,13.0555556 8.00000001,13.0555556 C8.07234812,13.0555556 8.14156863,13.0294672 8.19167772,12.9833145 L8.19167772,12.9833145 L8.92789438,12.3322073 C9.06400399,12.2141558 9.11586787,12.0395607 9.06294003,11.877588 L9.06294003,11.877588 L8.32672337,9.58908093 C8.4655084,9.49936899 8.54665907,9.35583031 8.54453896,9.20381038 C8.54453894,8.93783658 8.30074055,8.72222222 8.00000001,8.72222222 Z" id="形状结合" fill="currentColor" fill-rule="evenodd"></path>
                    </g>
                </g>
            </g>
        </g>
    </g>
</svg>