<?xml version="1.0" encoding="UTF-8"?>
<svg width="16px" height="16px" viewBox="0 0 16 16" version="1.1" xmlns="http://www.w3.org/2000/svg" xmlns:xlink="http://www.w3.org/1999/xlink">
    <g id="组件分类" stroke="none" stroke-width="1" fill="none" fill-rule="evenodd">
        <g id="Icon图标-Light" transform="translate(-480.000000, -414.000000)">
            <g id="业务相关" transform="translate(120.000000, 366.000000)">
                <g id="General/Icon/数据" transform="translate(360.000000, 48.000000)">
                    <g id="1.通用/1.Icon图标/数据">
                        <rect id="矩形" x="0" y="0" width="16" height="16"></rect>
                        <path d="M4.5,14.3393146 C4.17786877,14.3393146 3.91675597,14.1354111 3.91675597,13.8132799 C3.91675597,13.4911486 4.17786877,13.322253 4.5,13.3222036 L7.52296052,13.3222036 L7.52296052,11.4824619 L2.33431395,11.4824619 C1.52052966,11.4824619 1,11.1691859 1,10.3590412 L1,2.90460908 C1,2.07729282 1.51256313,1.5657952 2.33431395,1.5657952 L13.7458656,1.5657952 C14.5048687,1.5657952 15,2.13244724 15,2.90460908 L15,10.3590412 C15,11.2052089 14.4593267,11.4824619 13.7458656,11.4824619 L8.49872864,11.4824619 L8.49872864,13.3222036 L11.5,13.3222036 C11.8221312,13.322253 12.083244,13.4911486 12.083244,13.8132799 C12.083244,14.1354111 11.8221312,14.3393146 11.5,14.3393146 L4.5,14.3393146 Z M8,10.5304059 L13.4370422,10.5304059 C13.7592083,10.5304059 14.0203755,10.2692387 14.0203755,9.94707255 L14.0203755,3.08072847 C14.0203755,2.75856236 13.7592083,2.49739513 13.4370422,2.49739513 L2.59297836,2.49739513 C2.17729232,2.49739513 2.00964502,2.66954235 2.00964502,3.08072847 L2.00964502,9.94707255 C2.00964502,10.2692387 2.27081226,10.5304059 2.59297836,10.5304059 L3.61916666,10.5304059 L5.76,7.0957952 C5.91698756,6.86159629 6.21901145,6.77319905 6.4775,6.8857952 L8.35946689,8 L10.0008333,5.9057952 C9.59282472,5.22368539 9.6957407,4.35227966 10.2514263,3.78398541 C10.8071119,3.21569117 11.6759896,3.0932529 12.3670806,3.48585712 C13.0581716,3.87846133 13.3978871,4.68749345 13.1942634,5.45579169 C12.9906396,6.22408993 12.2948228,6.75867264 11.5,6.75746186 C11.3009353,6.75658198 10.9495054,6.75658198 10.6746809,6.51390051 L8.82805433,8.80496186 C8.66068382,8.99129866 8.39304188,9.04999207 8.16305433,8.9507952 L6.2949509,7.90214526 L4.75578343,10.5304059 L8,10.5304059 Z M10.8011751,4.60399911 C10.657017,4.85365879 10.657017,5.16126494 10.8011751,5.41092462 C10.9453331,5.66058429 11.2117436,5.81436018 11.5000342,5.81431607 C11.9455992,5.81424783 12.3067649,5.45302689 12.3067649,5.00746186 C12.3067649,4.56189684 11.9455992,4.2006759 11.5000342,4.20060766 C11.2117436,4.20056355 10.9453331,4.35433943 10.8011751,4.60399911 Z" id="形状" fill="currentColor" fill-rule="evenodd"></path>
                    </g>
                </g>
            </g>
        </g>
    </g>
</svg>