<?xml version="1.0" encoding="UTF-8"?>
<svg width="16px" height="16px" viewBox="0 0 16 16" version="1.1" xmlns="http://www.w3.org/2000/svg" xmlns:xlink="http://www.w3.org/1999/xlink">
    <g id="组件分类" stroke="none" stroke-width="1" fill="none" fill-rule="evenodd">
        <g id="Icon图标-Light" transform="translate(-1199.000000, -414.000000)">
            <g id="业务相关" transform="translate(120.000000, 366.000000)">
                <g id="General/Icon/时间" transform="translate(1079.000000, 48.000000)">
                    <g id="1.通用/1.Icon图标/时间">
                        <rect id="矩形" x="0" y="0" width="16" height="16"></rect>
                        <path d="M8,1.1 C4.18923523,1.1 1.1,4.18923523 1.1,8 C1.1,11.8107648 4.18923523,14.9 8,14.9 C11.8107648,14.9 14.9,11.8107648 14.9,8 C14.9,4.18923523 11.8107648,1.1 8,1.1 Z M8,2.1 C11.25848,2.1 13.9,4.74151998 13.9,8 C13.9,11.25848 11.25848,13.9 8,13.9 C4.74151998,13.9 2.1,11.25848 2.1,8 C2.1,4.74151998 4.74151998,2.1 8,2.1 Z M8.5,7.5 L8.5,4 C8.5,3.72385763 8.27614237,3.5 8,3.5 C7.72385763,3.5 7.5,3.72385763 7.5,4 L7.5,7.6 C7.5,8.0968 7.9032,8.5 8.4,8.5 L12,8.5 C12.2761424,8.5 12.5,8.27614237 12.5,8 C12.5,7.72385763 12.2761424,7.5 12,7.5 L8.5,7.5 Z" id="形状" fill="currentColor" fill-rule="evenodd"></path>
                    </g>
                </g>
            </g>
        </g>
    </g>
</svg>