<?xml version="1.0" encoding="UTF-8"?>
<svg width="16px" height="16px" viewBox="0 0 16 16" version="1.1" xmlns="http://www.w3.org/2000/svg" xmlns:xlink="http://www.w3.org/1999/xlink">
    <g id="组件分类" stroke="none" stroke-width="1" fill="none" fill-rule="evenodd">
        <g id="Icon图标-Light" transform="translate(-360.000000, -414.000000)">
            <g id="业务相关" transform="translate(120.000000, 366.000000)">
                <g id="General/Icon/桌面" transform="translate(240.000000, 48.000000)">
                    <g id="1.通用/1.Icon图标/桌面">
                        <rect id="矩形" x="0" y="0" width="16" height="16"></rect>
                        <path d="M14,2.04791874 C14.5128358,2.04791874 14.9355072,2.43395893 14.9932723,2.93129761 L15,3.04791874 L15,10.0479187 C15,10.5607546 14.6139598,10.9834259 14.1166211,11.041191 L14,11.0479187 L8.5,11.0479187 L8.5,12.9520813 L11,12.9520813 C11.2761424,12.9520813 11.5,13.1759389 11.5,13.4520813 C11.5,13.6975412 11.3231248,13.9016896 11.0898756,13.9440256 L11,13.9520813 L5,13.9520813 C4.72385763,13.9520813 4.5,13.7282236 4.5,13.4520813 C4.5,13.2066214 4.67687516,13.0024729 4.91012437,12.9601369 L5,12.9520813 L7.5,12.9520813 L7.5,11.0479187 L2,11.0479187 C1.48716416,11.0479187 1.06449284,10.6618785 1.00672773,10.1645399 L1,10.0479187 L1,3.04791874 C1,2.5350829 1.38604019,2.11241158 1.88337887,2.05464647 L2,2.04791874 L14,2.04791874 Z M14,3.04791874 L2,3.04791874 L2,10.0479187 L14,10.0479187 L14,3.04791874 Z" id="形状" fill="currentColor" fill-rule="evenodd"></path>
                    </g>
                </g>
            </g>
        </g>
    </g>
</svg>