<?xml version="1.0" encoding="UTF-8"?>
<svg width="16px" height="16px" viewBox="0 0 16 16" version="1.1" xmlns="http://www.w3.org/2000/svg" xmlns:xlink="http://www.w3.org/1999/xlink">
    <g id="组件分类" stroke="none" stroke-width="1" fill="none" fill-rule="evenodd">
        <g id="Icon图标-Light" transform="translate(-360.000000, -798.000000)">
            <g id="导航菜单" transform="translate(120.000000, 750.000000)">
                <g id="General/Icon/开发" transform="translate(240.000000, 48.000000)">
                    <g id="1.通用/1.Icon图标/开发">
                        <rect id="矩形" fill-rule="nonzero" x="0" y="0" width="16" height="16"></rect>
                        <path d="M14.3337066,1.71935411 C14.7016903,1.71935411 15,2.01766383 15,2.38564751 L15,2.38564751 L15,10.6320081 C15,10.9999918 14.7016903,11.2983015 14.3337066,11.2983015 L14.3337066,11.2983015 L8.496,11.2973541 L8.496,13.2803541 L12.3311952,13.2806459 C12.6645451,13.2806459 12.9347786,13.5045035 12.9347786,13.7806459 C12.9347786,14.0540268 12.6699227,14.2761635 12.3411765,14.2805789 L3.68510115,14.2806459 C3.35175123,14.2806459 3.08151772,14.0567883 3.08151772,13.7806459 C3.08151772,13.5072649 3.34637358,13.2851283 3.67511979,13.2807129 L7.496,13.2803541 L7.496,11.2973541 L1.66629339,11.2983015 C1.33176277,11.2983015 1.05481395,11.0517645 1.00722433,10.730468 L1,10.6320081 L1,2.38564751 C1,2.01766383 1.29830971,1.71935411 1.66629339,1.71935411 L1.66629339,1.71935411 Z M13.499989,2.67932366 L2.49998902,2.67932366 C2.22384665,2.67932366 1.99998902,2.90318129 1.99998902,3.17932366 L1.99998902,3.17932366 L1.99998902,9.8157138 C1.99998902,10.0918562 2.22384665,10.3157138 2.49998902,10.3157138 L2.49998902,10.3157138 L13.499989,10.3157138 C13.7761314,10.3157138 13.999989,10.0918562 13.999989,9.8157138 L13.999989,9.8157138 L13.999989,3.17932366 C13.999989,2.90318129 13.7761314,2.67932366 13.499989,2.67932366 L13.499989,2.67932366 Z M5.40278169,4.69666954 C5.62444221,4.53437512 5.87036831,4.52147645 6.07303605,4.7335585 C6.30103726,4.9721508 6.1803448,5.29838956 5.9417525,5.52639078 L5.9417525,5.52639078 L4.72942413,6.68849185 C4.74968196,6.70801576 4.77164221,6.72928458 4.79530488,6.75229832 L4.79530488,6.75229832 L6.01591163,7.96618519 C6.24566115,8.28451733 6.28203619,8.53017771 6.06051657,8.74950813 C5.83899694,8.96883855 5.5350469,8.89454098 5.30095107,8.65721986 L5.30095107,8.65721986 L3.76455689,7.09965777 L3.68980207,7.00741767 C3.53263262,6.76892869 3.56279866,6.44435985 3.77726205,6.23941646 L3.77726205,6.23941646 L5.31365623,4.77122268 Z M10.8878683,4.76438524 L10.8951404,4.77122268 L12.4315346,6.23941646 C12.6728059,6.46997777 12.6808259,6.85194004 12.4512687,7.09241428 L12.4442397,7.09965777 L10.9078455,8.65721986 C10.6737497,8.89454098 10.3697997,8.96883855 10.14828,8.74950813 C9.92676042,8.53017771 9.96313546,8.28451733 10.192885,7.96618519 L10.8037021,7.35499652 C11.1123442,7.04732743 11.3375677,6.82515921 11.4793725,6.68849185 L10.2670441,5.52639078 C10.0284518,5.29838956 9.90775935,4.9721508 10.1357606,4.7335585 C10.3637618,4.4949662 10.6465118,4.54111511 10.8878683,4.76438524 Z" id="形状结合" fill="currentColor" fill-rule="evenodd"></path>
                    </g>
                </g>
            </g>
        </g>
    </g>
</svg>