<?xml version="1.0" encoding="UTF-8"?>
<svg width="16px" height="16px" viewBox="0 0 16 16" version="1.1" xmlns="http://www.w3.org/2000/svg" xmlns:xlink="http://www.w3.org/1999/xlink">
    <g id="组件分类" stroke="none" stroke-width="1" fill="none" fill-rule="evenodd">
        <g id="Icon图标-Light" transform="translate(-384.000000, -310.000000)">
            <g id="方向和建议" transform="translate(120.000000, 262.000000)">
                <g id="General/Icon/下载" transform="translate(264.000000, 48.000000)">
                    <g id="1.通用/1.Icon图标/下载">
                        <rect id="矩形" x="0" y="0" width="16" height="16"></rect>
                        <path d="M7.6328125,12.2559437 C7.7375,12.3606429 7.8765625,12.4137739 8.015625,12.4137739 C8.1546875,12.4137739 8.2921875,12.3606429 8.3984375,12.2559437 L10.834375,9.81973435 C11.0453125,9.6087733 11.0453125,9.26654761 10.834375,9.05558656 C10.7328125,8.95401272 10.596875,8.89775645 10.453125,8.89775645 C10.309375,8.89775645 10.1734375,8.95401272 10.071875,9.05558656 L8.5578125,10.5698181 L8.5578125,1.54068534 C8.5578125,1.24221453 8.315625,1 8.0171875,1 C7.71875,1 7.4765625,1.24221453 7.4765625,1.54068534 L7.4765625,10.5698181 L5.9625,9.05558656 C5.7515625,8.84462552 5.409375,8.84462552 5.2,9.05558656 C4.9890625,9.26654761 4.9890625,9.6087733 5.1984375,9.81973435 L7.6328125,12.2559437 Z M14.459375,10.0072553 C14.1609375,10.0072553 13.91875,10.2494698 13.91875,10.5479406 L13.91875,13.6014064 C13.91875,13.7779886 13.775,13.9233173 13.596875,13.9233173 L2.4015625,13.9233173 C2.225,13.9233173 2.0796875,13.7795513 2.0796875,13.6014064 L2.0796875,10.5463779 C2.0796875,10.2479071 1.8375,10.0056926 1.5390625,10.0056926 C1.240625,10.0056926 1,10.2494698 1,10.5463779 L1,14.0295792 C1,14.5655765 1.4359375,15 1.9703125,15 L14.0296875,15 C14.565625,15 15,14.5640138 15,14.0295792 L15,10.5463779 C15,10.2494698 14.7578125,10.0072553 14.459375,10.0072553 Z" id="形状" fill="currentColor" fill-rule="evenodd"></path>
                    </g>
                </g>
            </g>
        </g>
    </g>
</svg>