<?xml version="1.0" encoding="UTF-8"?>
<svg width="16px" height="16px" viewBox="0 0 16 16" version="1.1" xmlns="http://www.w3.org/2000/svg" xmlns:xlink="http://www.w3.org/1999/xlink">
    <g id="组件分类" stroke="none" stroke-width="1" fill="none" fill-rule="evenodd">
        <g id="Icon图标-Light" transform="translate(-432.000000, -310.000000)">
            <g id="方向和建议" transform="translate(120.000000, 262.000000)">
                <g id="General/Icon/下降" transform="translate(312.000000, 48.000000)">
                    <g id="1.通用/1.Icon图标/下降">
                        <rect id="矩形" fill-rule="nonzero" x="0" y="0" width="16" height="16"></rect>
                        <path d="M8.35355339,2.61855987 L11.8890873,6.15409378 C12.0843494,6.34935593 12.0843494,6.66593842 11.8890873,6.86120056 C11.6938252,7.05646271 11.3772427,7.05646271 11.1819805,6.86120056 L8.49946609,4.17911327 L8.5,13.0278867 C8.5,13.3040291 8.27614237,13.5278867 8,13.5278867 C7.72385763,13.5278867 7.5,13.3040291 7.5,13.0278867 L7.49946609,4.17711327 L4.81801948,6.86120056 C4.62275734,7.05646271 4.30617485,7.05646271 4.1109127,6.86120056 C3.91565056,6.66593842 3.91565056,6.34935593 4.1109127,6.15409378 L7.64644661,2.61855987 C7.84170876,2.42329773 8.15829124,2.42329773 8.35355339,2.61855987 Z" id="矩形-2备份" fill="currentColor" fill-rule="evenodd" transform="translate(8.000000, 8.000000) scale(1, -1) translate(-8.000000, -8.000000) "></path>
                    </g>
                </g>
            </g>
        </g>
    </g>
</svg>