<?xml version="1.0" encoding="UTF-8"?>
<svg width="16px" height="16px" viewBox="0 0 16 16" version="1.1" xmlns="http://www.w3.org/2000/svg" xmlns:xlink="http://www.w3.org/1999/xlink">
    <g id="组件分类" stroke="none" stroke-width="1" fill="none" fill-rule="evenodd">
        <g id="Icon图标-Light" transform="translate(-600.000000, -310.000000)">
            <g id="方向和建议" transform="translate(120.000000, 262.000000)">
                <g id="General/Icon/编辑/1" transform="translate(480.000000, 48.000000)">
                    <g id="1.通用/1.Icon图标/编辑/1">
                        <rect id="矩形" fill-rule="nonzero" x="0" y="0" width="16" height="16"></rect>
                        <path d="M13.5,13 C13.7761424,13 14,13.2238576 14,13.5 C14,13.7761424 13.7761424,14 13.5,14 L2.5,14 C2.22385763,14 2,13.7761424 2,13.5 C2,13.2238576 2.22385763,13 2.5,13 L13.5,13 Z M10.8949487,1 C11.2582801,1 11.6216115,1.15451353 11.8895684,1.42718447 L11.8895684,1.42718447 L12.5753564,2.11567857 C12.8455842,2.383805 13,2.74736623 13,3.11092749 C13,3.43131584 12.8819173,3.72670935 12.6661893,3.94257384 L12.6661893,3.94257384 L5.3972905,11.2137988 C5.37458228,11.2365214 5.3450616,11.2478827 5.31327011,11.2478827 C5.3109993,11.2478827 5.30872848,11.2433381 5.30418684,11.2433381 L5.30418684,11.2433381 L2.5860138,11.9840942 C2.54513902,11.9954555 2.50426425,12 2.46338946,12 C2.33849429,12 2.2226824,11.9522826 2.13412038,11.8659368 C2.0183085,11.7455071 1.97289207,11.5728155 2.01603768,11.4137575 L2.01603768,11.4137575 L2.76313787,8.67341458 C2.76540869,8.65750876 2.77676279,8.64387523 2.78584608,8.63251393 C2.79038772,8.62569715 2.7881169,8.61433588 2.79720019,8.6075191 L2.79720019,8.6075191 L10.0638282,1.33402189 C10.2795562,1.1181574 10.5747629,1 10.8949487,1 Z M3.50115477,9.48233835 L3.12192763,10.8752324 L4.51167021,10.4934931 L3.50115477,9.48233835 Z M9.32354043,3.49721131 L4.07794336,8.74612683 L5.2587704,9.92770088 L10.4952842,4.6878744 L9.32354043,3.49721131 Z M11.2333011,2.08159471 C11.1061351,1.94980375 10.8881362,1.93389796 10.7745952,2.04751084 L10.7745952,2.04751084 L10.0638282,2.75872753 L11.2333011,3.94939062 L11.9554222,3.22681265 C12.0053803,3.17682296 12.0326302,3.10638299 12.034901,3.03139847 C12.034901,2.93596365 11.9940262,2.84280108 11.9213599,2.77008883 L11.9213599,2.77008883 Z" id="合并形状" fill="currentColor" fill-rule="evenodd"></path>
                    </g>
                </g>
            </g>
        </g>
    </g>
</svg>