<?xml version="1.0" encoding="UTF-8"?>
<svg width="16px" height="16px" viewBox="0 0 16 16" version="1.1" xmlns="http://www.w3.org/2000/svg" xmlns:xlink="http://www.w3.org/1999/xlink">
    <g id="组件分类" stroke="none" stroke-width="1" fill="none" fill-rule="evenodd">
        <g id="Icon图标-Light" transform="translate(-624.000000, -310.000000)">
            <g id="方向和建议" transform="translate(120.000000, 262.000000)">
                <g id="General/Icon/编辑/2" transform="translate(504.000000, 48.000000)">
                    <g id="1.通用/1.Icon图标/编辑/2">
                        <rect id="矩形" fill-rule="nonzero" x="0" y="0" width="16" height="16"></rect>
                        <path d="M9.34143714,2 C9.56670256,2 9.74949991,2.18794495 9.74949991,2.41955386 C9.74949991,2.65116279 9.56670256,2.83910774 9.34143714,2.83910774 L9.34143714,2.83910774 L3.33866749,2.83910774 C3.05062318,2.83910774 2.81427912,3.08020883 2.81427912,3.37826294 L2.81427912,3.37826294 L2.81427912,12.6236355 C2.81427912,12.9216896 3.05062318,13.1627907 3.33866749,13.1627907 L3.33866749,13.1627907 L12.6594861,13.1627907 C12.9493768,13.1627907 13.1838744,12.9197912 13.1838744,12.6236355 L13.1838744,12.6236355 L13.1838744,6.95870906 C13.1838744,6.72710014 13.3685182,6.5391552 13.5919372,6.5391552 C13.8153562,6.5391552 13.9981536,6.72710014 14,6.95681063 L14,6.95681063 L14,12.6862838 C14,13.4114855 13.4276042,14 12.722265,14 L12.722265,14 L3.27773503,14 C2.57239575,14 2,13.4114855 2,12.6862838 L2,12.6862838 L2,3.31371618 C2,2.58851447 2.57424219,2 3.27773503,2 L3.27773503,2 Z M12.2776853,2 C12.5749565,2 12.8722276,2.12642016 13.0914651,2.34951457 L13.0914651,2.34951457 L13.6525643,2.91282792 C13.8736598,3.13220409 14,3.42966328 14,3.72712249 C14,3.98925841 13.9033869,4.23094402 13.7268821,4.40756041 L13.7268821,4.40756041 L7.77960132,10.3567445 C7.76102186,10.3753357 7.73686859,10.3846313 7.71085736,10.3846313 C7.70899943,10.3846313 7.70714148,10.380913 7.70342559,10.380913 L7.70342559,10.380913 L5.47946584,10.9869862 C5.44602283,10.9962818 5.41257984,11 5.37913683,11 C5.27694988,11 5.18219469,10.9609585 5.10973485,10.8903119 C5.01497968,10.7917786 4.97782078,10.6504854 5.01312174,10.520347 L5.01312174,10.520347 L5.62438553,8.27824829 C5.62624347,8.26523444 5.63553319,8.25407973 5.64296497,8.24478413 C5.64668086,8.23920676 5.64482292,8.22991117 5.6522547,8.22433381 L5.6522547,8.22433381 L11.5976776,2.27329063 C11.7741823,2.09667424 12.0157151,2 12.2776853,2 Z M6.22821754,8.94009502 L5.91794079,10.0797356 L7.0550029,9.76740342 L6.22821754,8.94009502 Z M10.9919876,4.04317289 L6.70013548,8.33774013 L7.66626669,9.30448254 L11.9506871,5.01735178 L10.9919876,4.04317289 Z M12.5545191,2.88494112 C12.4504742,2.77711216 12.2721115,2.76409833 12.1792142,2.85705432 L12.1792142,2.85705432 L11.5976776,3.43895889 L12.5545191,4.41313778 L13.1453455,3.82193762 C13.1862202,3.78103697 13.2085156,3.72340426 13.2103735,3.6620533 C13.2103735,3.58397026 13.1769305,3.50774634 13.1174763,3.44825449 L13.1174763,3.44825449 Z" id="形状" fill="currentColor" fill-rule="evenodd"></path>
                    </g>
                </g>
            </g>
        </g>
    </g>
</svg>