<?xml version="1.0" encoding="UTF-8"?>
<svg width="16px" height="16px" viewBox="0 0 16 16" version="1.1" xmlns="http://www.w3.org/2000/svg" xmlns:xlink="http://www.w3.org/1999/xlink">
    <g id="组件分类" stroke="none" stroke-width="1" fill="none" fill-rule="evenodd">
        <g id="Icon图标-Light" transform="translate(-1176.000000, -310.000000)">
            <g id="方向和建议" transform="translate(120.000000, 262.000000)">
                <g id="General/Icon/说明示例" transform="translate(1056.000000, 48.000000)">
                    <g id="1.通用/1.Icon图标/说明示例">
                        <rect id="矩形" fill-rule="nonzero" x="0" y="0" width="16" height="16"></rect>
                        <path d="M12.6428571,1.5 C13.6685288,1.5 14.5,2.33147118 14.5,3.35714286 L14.5,12.6428571 C14.5,13.6685288 13.6685288,14.5 12.6428571,14.5 L3.35714286,14.5 C2.33147118,14.5 1.5,13.6685288 1.5,12.6428571 L1.5,3.35714286 C1.5,2.33147118 2.33147118,1.5 3.35714286,1.5 L12.6428571,1.5 Z M12.6428571,2.42857143 L3.35714286,2.42857143 C2.88093815,2.42857143 2.48845764,2.78703732 2.43481861,3.24885181 L2.42857143,3.35714286 L2.42857143,12.6428571 C2.42857143,13.1190619 2.78703732,13.5115424 3.24885181,13.5651814 L3.35714286,13.5714286 L12.6428571,13.5714286 C13.1190619,13.5714286 13.5115424,13.2129627 13.5651814,12.7511482 L13.5714286,12.6428571 L13.5714286,3.35714286 C13.5714286,2.88093815 13.2129627,2.48845764 12.7511482,2.43481861 L12.6428571,2.42857143 Z M8.04779155,10.4133333 C8.23445822,10.4133333 8.42112488,10.5066667 8.51445822,10.6 C8.79445822,10.88 8.79445822,11.3466667 8.51445822,11.6266667 C8.42112488,11.72 8.23445822,11.8133333 8.04779155,11.8133333 C7.76779155,11.8133333 7.58112488,11.72 7.48779155,11.6266667 C7.20779155,11.3466667 7.29792707,10.8155425 7.48779155,10.6288758 C7.67765603,10.4422091 7.86112488,10.4133333 8.04779155,10.4133333 Z M8.14666667,4.8564649 C8.89333333,4.8564649 9.395504,5.18666667 9.76883733,5.56 C10.1421707,5.93333333 10.2933333,6.4 10.2933333,6.86666667 C10.2933333,7.24 10.2,7.61333333 9.92,7.98666667 L9.68493827,8.21353452 C9.54090535,8.3473251 9.33925926,8.52592593 9.08,8.73333333 C8.89333333,8.82666667 8.8,9.01333333 8.70666667,9.2 C8.54666667,9.36 8.52380952,9.52 8.52054422,9.68 L8.52,9.85333333 L7.4,9.85333333 L7.4,9.76 C7.4,9.38666667 7.49333333,9.10666667 7.58666667,8.82666667 C7.82,8.43777778 8.11814815,8.1137037 8.48111111,7.8004321 L8.70666667,7.61333333 L8.8,7.52 C8.98666667,7.33333333 9.15034798,7.14666667 9.15034798,6.86666667 C9.15034798,6.58666667 9.06868827,6.35387514 8.88767747,6.15840934 C8.70666667,5.96294353 8.48087036,5.82192383 8.09764021,5.82192383 C7.71441006,5.82192383 7.4,6.03910412 7.25781249,6.25056258 C7.13593747,6.43181269 7.05316964,6.75499623 7.03200893,7.01996193 L7.02666667,7.14666667 L6,7.14666667 C6,6.58666667 6.09528754,6.02666667 6.56195421,5.56 C7.02862088,5.09333333 7.4,4.8564649 8.14666667,4.8564649 Z" id="形状" fill="currentColor" fill-rule="evenodd"></path>
                    </g>
                </g>
            </g>
        </g>
    </g>
</svg>