<?xml version="1.0" encoding="UTF-8"?>
<svg width="16px" height="16px" viewBox="0 0 16 16" version="1.1" xmlns="http://www.w3.org/2000/svg" xmlns:xlink="http://www.w3.org/1999/xlink">
    <g id="组件分类" stroke="none" stroke-width="1" fill="none" fill-rule="evenodd">
        <g id="Icon图标-Light" transform="translate(-408.000000, -414.000000)">
            <g id="业务相关" transform="translate(120.000000, 366.000000)">
                <g id="-General/Icon/exl" transform="translate(288.000000, 48.000000)">
                    <g id="1.通用/1.Icon图标/exl">
                        <rect id="矩形" x="0" y="0" width="16" height="16"></rect>
                        <path d="M13.5,1 L4.5,1 C3.67289062,1 3,1.67289062 3,2.5 L3,4 L2,4 C1.44771875,4 1,4.44771875 1,5 L1,11 C1,11.5522969 1.44771875,12 2,12 L3,12 L3,13.5 C3,14.3271094 3.67289062,15 4.5,15 L13.5,15 C14.3271094,15 15,14.3271094 15,13.5 L15,2.5 C15,1.67289062 14.3271094,1 13.5,1 Z M6.80645312,9.8064375 L5.6096875,9.8064375 L5.00001562,8.90321875 L4.3903125,9.8064375 L3.1935625,9.8064375 L4.3903125,8.00001562 L3.1935625,6.1935625 L4.3903125,6.1935625 L5.00001562,7.09678125 L5.6096875,6.1935625 L6.80645312,6.1935625 L5.6096875,8.00001562 L6.80645312,9.8064375 Z M14,13.5 C14,13.7757031 13.7757031,14 13.5,14 L4.5,14 C4.22429688,14 4,13.7757031 4,13.5 L4,12 L8,12 C8.55229687,12 9,11.5522969 9,11 L9,10 L12.5,10 C12.7761406,10 13,9.77615625 13,9.5 C13,9.22384375 12.7761406,9 12.5,9 L9,9 L9,8 L12.5,8 C12.7761406,8 13,7.77615625 13,7.5 C13,7.22385937 12.7761406,7 12.5,7 L9,7 L9,6 L12.5,6 C12.7761406,6 13,5.77615625 13,5.5 C13,5.22385937 12.7761406,5 12.5,5 L9,5 C9,4.44771875 8.55229687,4 8,4 L4,4 L4,2.5 C4,2.22429687 4.22429688,2 4.5,2 L13.5,2 C13.7757031,2 14,2.22429687 14,2.5 L14,13.5 Z" id="形状" fill="currentColor" fill-rule="evenodd"></path>
                    </g>
                </g>
            </g>
        </g>
    </g>
</svg>