<?xml version="1.0" encoding="UTF-8"?>
<svg width="16px" height="16px" viewBox="0 0 16 16" version="1.1" xmlns="http://www.w3.org/2000/svg" xmlns:xlink="http://www.w3.org/1999/xlink">
    <g stroke="none" stroke-width="1" fill="none" fill-rule="evenodd">
        <g transform="translate(-144.000000, -310.000000)">
            <g transform="translate(120.000000, 262.000000)">
                <g transform="translate(24.000000, 48.000000)">
                    <g>
                        <rect x="0" y="0" width="16" height="16"></rect>
                        <path d="M8.38486513,10.6539517 C8.37568032,10.6634551 8.3634339,10.6666229 8.35424909,10.6745423 C8.3527183,10.6761262 8.35118748,10.6808779 8.34965669,10.6824618 C8.12922121,10.9089586 7.77254434,10.9073747 7.55363966,10.679294 L3.22177233,6.1385843 C3.00286765,5.91050365 3.00439844,5.54304037 3.22483394,5.31654361 C3.33403115,5.20514311 3.47843679,5.14865091 3.62131165,5.14865091 C3.7657173,5.14865091 3.91114348,5.206727 4.02085097,5.32129529 L7.96083299,9.4517766 L11.982968,5.34663757 C12.0921653,5.23523707 12.2350401,5.17874487 12.3794458,5.17874487 C12.5253822,5.17874487 12.6692776,5.23682096 12.7789851,5.35138925 C12.9978898,5.57630213 12.9948282,5.9453493 12.7743927,6.17184606 L8.38486513,10.6539517 Z" fill="currentColor" fill-rule="evenodd"></path>
                    </g>
                </g>
            </g>
        </g>
    </g>
</svg>