<?xml version="1.0" encoding="UTF-8"?>
<svg width="16px" height="16px" viewBox="0 0 16 16" version="1.1" xmlns="http://www.w3.org/2000/svg" xmlns:xlink="http://www.w3.org/1999/xlink">
    <g id="组件分类" stroke="none" stroke-width="1" fill="none" fill-rule="evenodd">
        <g id="Icon图标-Light" transform="translate(-504.000000, -310.000000)">
            <g id="方向和建议" transform="translate(120.000000, 262.000000)">
                <g id="General/Icon/导出" transform="translate(384.000000, 48.000000)">
                    <g id="1.通用/1.Icon图标/导出">
                        <rect id="矩形" x="0" y="0" width="16" height="16"></rect>
                        <path d="M9.91688766,2 L13.4163316,2 C13.5775825,2 13.7149666,2.05705453 13.8286549,2.17278882 C13.942942,2.28510155 14,2.42230614 14,2.58448811 L14,6.08277733 C14,6.24495931 13.942942,6.38216389 13.8287404,6.49627295 C13.7149666,6.61029646 13.5775825,6.66735098 13.4163316,6.66735098 C13.2551663,6.66735098 13.1177822,6.61029645 13.0040084,6.49627295 C12.8896357,6.3821639 12.8328343,6.24495931 12.8328343,6.08277733 L12.8328343,3.99237481 L7.99325422,8.83063274 C7.88119126,8.94294547 7.74449155,9 7.58315511,9 C7.41600165,9 7.27716334,8.94465626 7.16612691,8.83422538 C7.05509049,8.72191266 7,8.58291174 7,8.41722267 C7,8.25504069 7.05586039,8.11954689 7.16826553,8.00552337 L12.0079312,3.16726544 L9.91637439,3.16726544 C9.75520904,3.16726544 9.61816716,3.11021091 9.50370896,2.9961874 C9.39019174,2.88207836 9.33279156,2.74487376 9.33279156,2.58448811 C9.33279156,2.42230613 9.39019174,2.28510155 9.50370896,2.17107803 C9.61816716,2.05705452 9.75520904,2 9.91628885,2 L9.91688766,2 L9.91688766,2 Z M7.45380364,2 C7.60444264,2 7.73260178,2.05335965 7.83964107,2.16159893 C7.94596036,2.26663822 7.99948,2.39495737 7.99948,2.54663635 C7.99948,2.69663535 7.94588035,2.8250345 7.83964107,2.93167379 C7.73260178,3.03831308 7.60444264,3.09167272 7.45380364,3.09167272 L3.6356691,3.09167272 C3.4851101,3.09167272 3.35647096,3.14495236 3.25031167,3.25167166 C3.14311239,3.35831095 3.09015274,3.48663009 3.09015274,3.63830908 L3.09015274,12.3649709 C3.09015274,12.5149699 3.14311238,12.643289 3.25031167,12.7499283 C3.35647097,12.8565676 3.48511011,12.9099273 3.6356691,12.9099273 L12.3628109,12.9099273 C12.5134499,12.9099273 12.6416091,12.8565676 12.7486483,12.7499283 C12.8549676,12.643289 12.9084873,12.5148899 12.9084873,12.3648909 L12.9084873,8.54667635 C12.9084873,8.39667735 12.9620869,8.26835821 13.0683262,8.16171892 C13.1752855,8.05499964 13.3036046,8.00171999 13.4543236,8.00171999 C13.6049626,8.00171999 13.7331218,8.05499964 13.8401611,8.16171892 C13.9463204,8.26835821 14,8.39667735 14,8.54667635 L14,12.3650509 C14,12.8166479 13.8401611,13.2016853 13.5206432,13.5216832 C13.2009653,13.8416811 12.8151279,14 12.3638509,14 L3.63638909,14 C3.18455211,14 2.79935468,13.8416011 2.4795168,13.5216032 C2.15983893,13.2016053 2,12.8166479 2,12.3649709 L2,3.63838907 C2,3.18671208 2.15983893,2.80175465 2.4795168,2.48175679 C2.79935467,2.16175892 3.1845521,2.00175999 3.63638909,2.00175999 L7.45380364,2 Z" id="形状" fill="currentColor" fill-rule="evenodd"></path>
                    </g>
                </g>
            </g>
        </g>
    </g>
</svg>