<?xml version="1.0" encoding="UTF-8"?>
<svg width="16px" height="16px" viewBox="0 0 16 16" version="1.1" xmlns="http://www.w3.org/2000/svg" xmlns:xlink="http://www.w3.org/1999/xlink">
    <g id="组件分类" stroke="none" stroke-width="1" fill="none" fill-rule="evenodd">
        <g id="Icon图标-Light" transform="translate(-648.000000, -310.000000)">
            <g id="方向和建议" transform="translate(120.000000, 262.000000)">
                <g id="General/Icon/筛选/line" transform="translate(528.000000, 48.000000)">
                    <g id="1.通用/1.Icon图标/筛选/line">
                        <rect id="矩形" fill-rule="nonzero" x="0" y="0" width="16" height="16"></rect>
                        <path d="M8.48194929,7.49220043 L8.48194929,11.8626822 C8.48194929,11.9731392 8.39240624,12.0626822 8.28194929,12.0626822 C8.22561903,12.0626822 8.17190052,12.0389274 8.13399747,11.9972566 L7.60817875,11.4191685 C7.5244537,11.3271207 7.4780583,11.207162 7.4780583,11.0827326 L7.4780583,7.49220043 L7.4780583,7.49220043 L4.61351087,3.81472827 C4.56818195,3.75653553 4.55879979,3.67802861 4.5891391,3.61079297 C4.61916603,3.54424956 4.6853971,3.50147383 4.75840149,3.50147383 L11.2764274,3.50147383 C11.3494759,3.50147383 11.4157596,3.54423832 11.4458688,3.61079297 C11.4762202,3.6778829 11.4663954,3.75632515 11.4204353,3.81385717 L8.48194929,7.49220043 L8.48194929,7.49220043 Z M4.32610012,2.50725952 C3.95105761,2.50725952 3.61738009,2.71706535 3.45550512,3.05602455 C3.29330443,3.39113987 3.3395327,3.78993708 3.57408474,4.07897474 L6.48342186,7.6965638 L6.48342186,11.3525204 C6.48342186,11.5518108 6.56890948,11.7414402 6.71865072,11.8720002 L8.37325003,13.3211337 C8.57635326,13.5006338 8.86609886,13.543379 9.11230439,13.4301637 C9.35993355,13.31972 9.51873744,13.0730016 9.51685392,12.8016538 L9.51685392,7.6965638 L12.4259153,4.07925075 C12.6604673,3.7902131 12.7066956,3.3914159 12.5444949,3.05630057 C12.3856017,2.71945319 12.0460512,2.50532587 11.6738999,2.50725952 L4.32610012,2.50725952 Z" id="-" fill="currentColor" fill-rule="evenodd"></path>
                    </g>
                </g>
            </g>
        </g>
    </g>
</svg>