<?xml version="1.0" encoding="UTF-8"?>
<svg width="16px" height="16px" viewBox="0 0 16 16" version="1.1" xmlns="http://www.w3.org/2000/svg" xmlns:xlink="http://www.w3.org/1999/xlink">
    <g id="组件分类" stroke="none" stroke-width="1" fill="none" fill-rule="evenodd">
        <g id="Icon图标-Light" transform="translate(-672.000000, -310.000000)">
            <g id="方向和建议" transform="translate(120.000000, 262.000000)">
                <g id="General/Icon/筛选/fill" transform="translate(552.000000, 48.000000)">
                    <g id="1.通用/1.Icon图标/筛选/fill">
                        <rect id="矩形" fill-rule="nonzero" x="0" y="0" width="16" height="16"></rect>
                        <path d="M4.32610012,2.52166022 C3.95105761,2.52166022 3.61738009,2.73147903 3.45550512,3.07043823 C3.29330443,3.40555355 3.3395327,3.80435076 3.57408474,4.09338842 L6.68549648,7.71097749 L6.68549648,11.7663901 C6.68549648,11.9245023 6.76028214,12.0732976 6.88716613,12.1676369 L8.51716613,13.3795555 C8.73876863,13.5443188 9.05197999,13.4982416 9.21674329,13.2766391 C9.28086781,13.1903932 9.31549648,13.0857811 9.31549648,12.9783087 L9.31549648,7.71097749 L12.4259153,4.09366444 C12.6604673,3.80462678 12.7066956,3.40582958 12.5444949,3.07071426 C12.3856017,2.73386687 12.0460512,2.51973956 11.6738999,2.52166022 L4.32610012,2.52166022 Z" id="路径" fill="currentColor" fill-rule="evenodd"></path>
                    </g>
                </g>
            </g>
        </g>
    </g>
</svg>