<?xml version="1.0" encoding="UTF-8"?>
<svg width="16px" height="16px" viewBox="0 0 16 16" version="1.1" xmlns="http://www.w3.org/2000/svg" xmlns:xlink="http://www.w3.org/1999/xlink">
    <g id="组件分类" stroke="none" stroke-width="1" fill="none" fill-rule="evenodd">
        <g id="Icon图标-Light" transform="translate(-120.000000, -414.000000)">
            <g id="业务相关" transform="translate(120.000000, 366.000000)">
                <g id="General/Icon/财务预警" transform="translate(0.000000, 48.000000)">
                    <g id="1.通用/1.Icon图标/财务预警">
                        <rect id="矩形" x="0" y="0" width="16" height="16"></rect>
                        <path d="M9.81340625,9.54504688 C10.0574375,9.53990625 10.2526094,9.34070313 10.2526094,9.096625 C10.2526094,8.85251563 10.0574375,8.65323438 9.81340625,8.64817188 L8.86714063,8.64817188 L9.76575,7.74957813 C9.9366875,7.57378125 9.93471875,7.2933125 9.7614375,7.12 C9.58801563,6.946625 9.3075,6.94471875 9.13182813,7.11560938 L8.02039063,8.2269375 L6.90929688,7.11560938 C6.73351563,6.94470313 6.45303125,6.946625 6.2796875,7.12 C6.10632813,7.29332813 6.10435938,7.57378125 6.2753125,7.74957813 L7.17395313,8.64817188 L6.22729688,8.64817188 C5.97959375,8.64817188 5.778875,8.84892188 5.778875,9.096625 C5.778875,9.34423438 5.97959375,9.54504688 6.22729688,9.54504688 L7.572125,9.54504688 L7.572125,10.4411094 L6.22729688,10.4411094 C5.97959375,10.4411094 5.77873438,10.6419375 5.77873438,10.8896406 C5.77873438,11.1373281 5.97959375,11.3381563 6.22729688,11.3381563 L7.572125,11.3381563 L7.572125,12.5335781 C7.572125,12.7810938 7.77276563,12.9817813 8.0203125,12.9817813 C8.26789063,12.9817813 8.46857813,12.7810938 8.46857813,12.5335781 L8.46857813,11.3381563 L9.81339063,11.3381563 C9.93234449,11.3381608 10.0464306,11.2909224 10.1305625,11.2068281 C10.2146824,11.1226391 10.2618636,11.0084498 10.2617035,10.8894375 C10.2617977,10.7705148 10.2145685,10.6564418 10.1304375,10.5723906 C10.0463927,10.4882577 9.93232583,10.4410231 9.81340625,10.4411094 L8.46859375,10.4411094 L8.46859375,9.54504688 L9.81340625,9.54504688 Z M14.7200156,10.6546875 C14.6145313,7.73603125 12.1092969,5.79109375 10.9290781,5.0335 C11.3205,4.59676563 11.7134375,3.98175 11.8062031,3.33879688 C11.873875,2.87195313 11.7697969,2.44546875 11.5052344,2.10510938 C11.1672656,1.6718125 10.7661094,1.58089063 10.4890313,1.58089063 C10.1408125,1.58089063 9.81940625,1.7243125 9.57001563,1.88376563 C9.27971875,1.49423438 8.77985938,1.05317188 8.00428125,1.050375 C7.99560938,1.050375 7.98723438,1.050375 7.9785,1.05090625 C7.21746875,1.0615 6.7255,1.49778125 6.438625,1.88345313 C6.18925,1.72451563 5.86765625,1.58104688 5.5205,1.58104688 C5.24342188,1.58104688 4.84225,1.67203125 4.50425,2.1053125 C4.23921875,2.44567188 4.1351875,2.87210938 4.2028125,3.33990625 C4.29565625,3.98279688 4.68870313,4.59696875 5.07995313,5.03353125 C3.89953125,5.79109375 1.39373438,7.73603125 1.2883125,10.6546875 C1.23623438,12.0979063 1.58145313,13.2148594 2.31375,13.9745469 C3.2006875,14.8934688 4.38196875,14.9928438 4.84814063,14.9928438 L11.1599531,14.9928438 C11.626875,14.9928438 12.8079844,14.8936875 13.6948594,13.9741875 C14.4274063,13.2145 14.772625,12.0979219 14.7200156,10.6546875 Z M5.28975,2.717875 C5.3991875,2.57689063 5.48092188,2.57689063 5.52026563,2.57689063 C5.76014063,2.57689063 6.09123438,2.84684375 6.21326563,2.97614063 C6.33031847,3.10257392 6.50474184,3.15896479 6.67365625,3.12498438 C6.8429104,3.09155844 6.98308762,2.97345544 7.04475,2.81232813 C7.05639063,2.78107813 7.3399375,2.05960938 7.99003125,2.04634375 C7.99545313,2.04689063 8.00070313,2.04689063 8.006625,2.04689063 C8.664,2.04882813 8.95139063,2.78109375 8.96251563,2.80879688 C9.02201877,2.97112013 9.16145429,3.09096666 9.330875,3.12540625 C9.50025324,3.15977833 9.67534216,3.10387951 9.79346875,2.97771875 C9.91707813,2.84685938 10.2486875,2.57707813 10.4888125,2.57707813 C10.5282656,2.57707813 10.61,2.57707813 10.7194375,2.7175 C10.781125,2.79682813 10.8590313,2.93289063 10.8205313,3.19646875 C10.743125,3.7313125 9.969875,4.65529688 9.969875,4.65529688 L6.04226563,4.65778125 C6.04226563,4.65778125 5.26607813,3.73426563 5.18814063,3.1969375 C5.14982813,2.93329688 5.22754688,2.79703125 5.28975,2.717875 L5.28975,2.717875 Z M12.9781875,13.2824531 C12.3562344,13.9272656 11.4994531,13.9967969 11.1601406,13.9967969 L4.84828125,13.9967969 C4.50878125,13.9967969 3.65254688,13.9272656 3.03057813,13.2829844 C2.49325,12.7256563 2.24146875,11.8533594 2.28310938,10.6907344 C2.39059375,7.71867188 5.93492188,5.62517188 5.99573438,5.62517188 L9.98315625,5.62517188 C10.0395313,5.62517188 13.6175,7.72351563 13.725,10.6907344 C13.7668125,11.8533594 13.5160469,12.7252969 12.9781875,13.2824531 Z" id="形状" fill="currentColor" fill-rule="evenodd"></path>
                    </g>
                </g>
            </g>
        </g>
    </g>
</svg>