<?xml version="1.0" encoding="UTF-8"?>
<svg width="16px" height="16px" viewBox="0 0 16 16" version="1.1" xmlns="http://www.w3.org/2000/svg" xmlns:xlink="http://www.w3.org/1999/xlink">
    <g id="组件分类" stroke="none" stroke-width="1" fill="none" fill-rule="evenodd">
        <g id="Icon图标-Light" transform="translate(-696.000000, -310.000000)">
            <g id="方向和建议" transform="translate(120.000000, 262.000000)">
                <g id="General/Icon/关注/line" transform="translate(576.000000, 48.000000)">
                    <g id="1.通用/1.Icon图标/关注/line">
                        <rect id="Rectangle-18" x="0" y="0" width="16" height="16"></rect>
                        <path d="M14.6718674,4.46267158 C14.4599565,3.96317375 14.1578125,3.51724138 13.7736385,3.13826582 C13.0298996,2.40441915 12.0537422,2 11.0256324,2 C9.85397016,2 8.7561349,2.52226314 7.99872427,3.43823234 C7.24131364,2.52226314 6.14347838,2 4.97181609,2 C3.94507353,2 2.96891615,2.40709742 2.22244286,3.14630064 C1.83690171,3.52795447 1.53339059,3.97522598 1.32284684,4.47606294 C1.10410009,4.99564781 0.994726715,5.54603281 1.00019538,6.11248745 C1.00976555,7.34047539 1.54842943,8.48543689 2.47810312,9.25677938 C2.52048531,9.29159692 2.56013316,9.32507533 2.59978101,9.36123201 C2.80348892,9.54067626 3.39273798,10.0682959 4.13921127,10.7365249 C5.4175126,11.8814864 7.00889522,13.3063274 7.65966681,13.8727821 C7.75536851,13.9544694 7.87567922,14 8.00009144,14 C8.12587082,14 8.2475487,13.9544694 8.34051607,13.8727821 C8.81218875,13.4616672 9.78697897,12.5885504 10.8205574,11.6632072 C11.8349954,10.7552728 12.8836127,9.8151992 13.4974707,9.27686642 C14.4476519,8.50150653 14.995886,7.34315367 15,6.09909608 C15.0013547,5.52996317 14.8906141,4.97957817 14.6718674,4.46267158 Z M8.76759913,4.14783324 C9.33121566,3.41826659 10.1621711,3 11.049626,3 C11.8047894,3 12.5227459,3.30444323 13.0725821,3.85573231 C13.3605915,4.14371914 13.5893454,4.48518925 13.7505756,4.87191443 C13.9159398,5.2709819 14,5.69747669 14,6.13768513 C13.998622,6.62452002 13.8938913,7.09215579 13.6871859,7.52687877 C13.4901269,7.93691717 13.2062515,8.30444323 12.8644987,8.58968733 L12.8396941,8.61162918 C12.3036383,9.09023587 11.3872447,9.91991223 10.1180739,11.077345 C9.12588837,11.9810752 8.44927292,12.5954471 8.00003335,13 C7.31514969,12.3842567 6.19894092,11.3708173 5.21226749,10.473944 L4.56045669,9.88151399 C3.93758463,9.31376851 3.44562595,8.86670324 3.26234723,8.7035107 C3.25132294,8.69391114 3.24029866,8.68431157 3.22927437,8.67334065 C3.19344545,8.64179923 3.15623849,8.60888645 3.11627546,8.57597367 C2.41347735,7.98217224 2.00695687,7.09901262 2,6.15277016 C1.99731062,5.71393308 2.07999275,5.28880965 2.24535701,4.88837082 C2.4079652,4.49890291 2.6367191,4.15469007 2.92610656,3.86533187 C3.48007684,3.30855732 4.19941138,3.00274273 4.9490627,3.00274273 C5.83513954,3.00274273 6.667473,3.41963796 7.23108953,4.14783324 C7.41436825,4.38370817 7.70099964,4.52358749 8.00003335,4.52358749 C8.29768902,4.52495886 8.58569844,4.38370817 8.76759913,4.14783324 Z" id="Shape" fill="currentColor" fill-rule="evenodd"></path>
                    </g>
                </g>
            </g>
        </g>
    </g>
</svg>