<?xml version="1.0" encoding="UTF-8"?>
<svg width="16px" height="16px" viewBox="0 0 16 16" version="1.1" xmlns="http://www.w3.org/2000/svg" xmlns:xlink="http://www.w3.org/1999/xlink">
    <g id="组件分类" stroke="none" stroke-width="1" fill="none" fill-rule="evenodd">
        <g id="Icon图标-Light" transform="translate(-576.000000, -310.000000)">
            <g id="方向和建议" transform="translate(120.000000, 262.000000)">
                <g id="General/Icon/点赞/fill" transform="translate(456.000000, 48.000000)">
                    <g id="1.通用/1.Icon图标/点赞/fill">
                        <rect id="矩形" x="0" y="0" width="16" height="16"></rect>
                        <path d="M1.49700162,7.01856273 L2.49374162,7.00625184 C2.76986293,7.00284143 2.99646817,7.22391729 2.99987859,7.50003861 C2.99990401,7.50209688 2.99991672,7.50415528 2.99991672,7.50621371 L2.99991672,14.5 C3.00000002,14.7761424 2.7761424,15 2.50000002,15 C2.49997225,15 2.49994448,15 2.49991673,14.9999167 L1.49991671,14.9997501 C1.22377432,14.9998386 0.999953997,14.7759437 1.00000001,14.4998013 C1.00000001,14.4997565 1.00000003,14.4997116 1.0001346,14.4996668 L1.00317677,7.51830671 C1.00329602,7.24465775 1.2233735,7.02194235 1.49700162,7.01856273 Z M14.9915607,8.38314582 L13.6162571,14.2773064 L13.6159312,14.2773064 C13.5994898,14.300581 13.5847389,14.324895 13.5717816,14.350079 C13.4715895,14.543623 13.3241523,14.7015395 13.1345204,14.8187653 C12.8903286,14.9694046 12.8197869,14.9858326 12.6397669,14.9858326 L12.6395877,14.9858326 L3.99991672,15 L3.99991672,7.45120783 C5.99134475,6.98515368 7.46798086,5.31900234 7.5243491,3.37182498 C7.52516367,3.34581266 7.52483784,3.32847111 7.52223122,3.30245878 C7.5218891,3.29038163 7.52255704,3.27830448 7.52304579,3.2660725 C7.52386036,3.24114402 7.52451201,3.2160607 7.52451201,3.19066772 C7.52451201,2.59888733 7.88357444,2 8.56958896,2 C9.12559812,2 9.60259399,2.37191431 9.7296669,2.90422248 C9.73683512,2.93395085 9.74613751,2.96275021 9.75736228,2.99046572 C9.84126298,3.38498598 9.88378353,3.7853745 9.88378353,4.18221729 C9.88378353,4.80897497 9.74840201,5.54459732 9.51251884,6.19999952 C9.44278361,6.39334177 9.4754815,6.60678327 9.60032948,6.77319968 C9.72495244,6.93976198 9.92648539,7.03893336 10.1415298,7.03951634 L13.8316294,7.052058 C13.8537857,7.05499987 13.875942,7.05685789 13.8982612,7.0577869 C14.3353594,7.07481878 14.6090549,7.21788657 14.8131699,7.53698657 C14.9526405,7.75468496 15.0159978,8.00691161 14.9964481,8.26640003 C14.9940044,8.29767676 14.9944931,8.33019216 14.9970998,8.36146889 C14.9951285,8.36874614 14.9931735,8.37586857 14.9915607,8.38314582 Z" id="形状" fill="currentColor" fill-rule="evenodd"></path>
                    </g>
                </g>
            </g>
        </g>
    </g>
</svg>