<?xml version="1.0" encoding="UTF-8"?>
<svg width="16px" height="16px" viewBox="0 0 16 16" version="1.1" xmlns="http://www.w3.org/2000/svg" xmlns:xlink="http://www.w3.org/1999/xlink">
    <g id="组件分类" stroke="none" stroke-width="1" fill="none" fill-rule="evenodd">
        <g id="Icon图标-Light" transform="translate(-552.000000, -310.000000)">
            <g id="方向和建议" transform="translate(120.000000, 262.000000)">
                <g id="General/Icon/点赞/line" transform="translate(432.000000, 48.000000)">
                    <g id="1.通用/1.Icon图标/点赞/line">
                        <rect id="矩形" x="0" y="0" width="16" height="16"></rect>
                        <path d="M14.6800179,6.56691113 C14.3152617,5.96726942 13.759097,5.64474615 13.0265495,5.60824182 C12.9823888,5.60304645 12.9401422,5.60044876 12.8991261,5.60044876 L10.5426692,5.59238226 C10.6495708,5.11606229 10.7064464,4.63425983 10.7064464,4.18692457 C10.7064464,3.72906185 10.6564068,3.26735728 10.557558,2.81441648 C10.5499851,2.7799803 10.5391819,2.74633491 10.525292,2.71392704 C10.2698984,1.78232835 9.44384783,1.1400299 8.48355155,1.1400299 C7.345095,1.1400299 6.48664169,2.07354267 6.48664169,3.31138123 L6.4858077,3.34255346 C6.48471394,3.37522962 6.48348345,3.41720276 6.48594442,3.4658752 C6.43714893,4.75580421 5.37648625,5.88181921 4.05496118,6.04670393 L2.19313101,6.07664569 C2.16250566,6.07391128 2.1318803,6.07254408 2.10125495,6.07254408 C1.49682802,6.07254408 1.00505865,6.56978226 1.00505865,7.18051199 L1,13.7592484 C1,14.3658628 1.49204281,14.8595599 2.09689357,14.8595599 L4.13905785,14.8599701 L4.14015162,14.8599701 L11.9049095,14.8465715 L11.9050599,14.8465715 C12.3347583,14.8465715 12.6042341,14.7262576 12.9248432,14.5181693 C13.241675,14.3119994 13.4989914,14.0264525 13.6711859,13.6899448 C13.7303858,13.594514 13.7744097,13.4925207 13.8023007,13.3861522 C13.804078,13.3791658 13.8058554,13.3721931 13.8073593,13.3653571 L14.9646696,8.14655053 C14.9897039,8.04509428 15.0004264,7.94063543 14.9965254,7.83620904 C15.0214085,7.38653586 14.9123057,6.94836086 14.6800179,6.56691113 Z M2.12519468,7.19553755 C2.142148,7.19690476 2.15923804,7.19745164 2.17619136,7.1971782 L3.52860156,7.17530295 L3.52860156,13.7398204 L2.1199993,13.739547 L2.12519468,7.19553755 Z M13.8729851,7.89635231 L12.7188057,13.1009263 L12.7185323,13.1009263 C12.7047343,13.1214779 12.6923551,13.1429473 12.681481,13.1651848 C12.597398,13.3360853 12.4736661,13.4755263 12.3145237,13.5790373 C12.1095936,13.7120525 12.0503937,13.7265585 11.8993177,13.7265585 L11.8991673,13.7265585 L4.64860087,13.7390684 L4.64860087,7.0734463 C6.31984288,6.66191809 7.55906232,5.19069792 7.60636756,3.47133034 C7.60705116,3.44836133 7.60677772,3.43304865 7.60459019,3.41007963 C7.60430308,3.39941545 7.60486363,3.38875126 7.60527379,3.37795036 C7.60595739,3.35593838 7.60650428,3.33378969 7.60650428,3.31136755 C7.60650428,2.78882244 7.90783589,2.26000186 8.48355155,2.26000186 C8.95016437,2.26000186 9.35046784,2.5884041 9.4571097,3.05843494 C9.4631254,3.08468524 9.47093213,3.11011522 9.48035216,3.13458816 C9.55076313,3.48295157 9.58644714,3.83649668 9.58644714,4.1869109 C9.58644714,4.74034114 9.47283254,5.38989945 9.27487517,5.96862295 C9.21635211,6.13934515 9.24379276,6.32781508 9.34856743,6.47476163 C9.45315324,6.62183698 9.6222833,6.70940583 9.80275238,6.7099206 L12.89955,6.72099495 C12.9181439,6.72359263 12.9367379,6.72523328 12.9554686,6.7260536 C13.3222892,6.74109284 13.5519794,6.86742243 13.7232763,7.14918936 C13.8403226,7.34141815 13.8934931,7.56413558 13.8770867,7.79326518 C13.8750359,7.82088269 13.875446,7.84959396 13.8776336,7.87721147 C13.8759793,7.88363732 13.8743386,7.88992646 13.8729851,7.89635231 Z" id="形状" fill="currentColor" fill-rule="evenodd"></path>
                    </g>
                </g>
            </g>
        </g>
    </g>
</svg>