<?xml version="1.0" encoding="UTF-8"?>
<svg width="16px" height="16px" viewBox="0 0 16 16" version="1.1" xmlns="http://www.w3.org/2000/svg" xmlns:xlink="http://www.w3.org/1999/xlink">
    <g stroke="none" stroke-width="1" fill="none" fill-rule="evenodd">
        <g transform="translate(-288.000000, -798.000000)">
            <g transform="translate(120.000000, 750.000000)">
                <g transform="translate(168.000000, 48.000000)">
                    <g>
                        <rect x="0" y="0" width="16" height="16"></rect>
                        <path d="M13.125,11.2421875 C12.7990128,11.2416505 12.4785768,11.3265542 12.195625,11.4884375 L10.1420313,9.435 C10.7234823,8.56668317 10.7234823,7.43331683 10.1420313,6.565 L10.700625,6.0065625 C11.5167778,6.46892485 12.5490322,6.25701722 13.1170206,5.51050972 C13.685009,4.76400221 13.6139422,3.71262054 12.9506608,3.04933918 C12.2873795,2.38605783 11.2359978,2.31499099 10.4894903,2.88297942 C9.74298278,3.45096785 9.53107515,4.48322222 9.9934375,5.299375 L9.435,5.85796875 C8.56668317,5.27651767 7.43331683,5.27651767 6.565,5.85796875 L4.509375,3.8021875 C4.96890326,2.98493171 4.75381442,1.95384093 4.00586553,1.38846874 C3.25791664,0.823096548 2.20725553,0.897410958 1.54633385,1.5624341 C0.885412168,2.22745725 0.817599011,3.278558 1.38758751,4.02299494 C1.957576,4.76743189 2.98997768,4.97613785 3.804375,4.5115625 L5.85796875,6.565 C5.27651767,7.43331683 5.27651767,8.56668317 5.85796875,9.435 L4.549375,10.7434375 C3.73322222,10.2810752 2.70096785,10.4929828 2.13297942,11.2394903 C1.56499099,11.9859978 1.63605783,13.0373795 2.29933918,13.7006608 C2.96262054,14.3639422 4.01400221,14.435009 4.76050972,13.8670206 C5.50701722,13.2990322 5.71892485,12.2667778 5.2565625,11.450625 L6.565,10.1420312 C7.43331683,10.7234823 8.56668317,10.7234823 9.435,10.1420312 L11.490625,12.1978125 C11.0754724,12.9357188 11.2063491,13.8602949 11.8099939,14.4539871 C12.4136386,15.0476793 13.3402625,15.1631684 14.0711657,14.7358067 C14.8020688,14.308445 15.1558843,13.4442782 14.9345555,12.6270445 C14.7132268,11.8098108 13.9716743,11.242299 13.125,11.2421875 Z M11.625297,3.58364339 C12.061602,3.58364339 12.415297,3.93733844 12.415297,4.37364339 C12.415297,4.80994834 12.061602,5.16364339 11.625297,5.16364339 C11.1889921,5.16364339 10.835297,4.80994834 10.835297,4.37364339 C10.8357917,3.93754353 11.1891971,3.58413812 11.625297,3.58364339 Z M2.87779503,3.67389484 C2.44149008,3.67389484 2.08779503,3.32019979 2.08779503,2.88389484 C2.08779503,2.44758989 2.44149008,2.09389484 2.87779503,2.09389484 C3.31409998,2.09389484 3.66779503,2.44758989 3.66779503,2.88389484 C3.6673003,3.3199947 3.31389489,3.67340011 2.87779503,3.67389484 L2.87779503,3.67389484 Z M3.625,13.165 C3.18869505,13.165 2.835,12.811305 2.835,12.375 C2.835,11.938695 3.18869505,11.585 3.625,11.585 C4.06130495,11.585 4.415,11.938695 4.415,12.375 C4.41450527,12.8110999 4.06109987,13.1645053 3.625,13.165 L3.625,13.165 Z M6.51,8.0007947 C6.51,7.17789042 7.17709572,6.5107947 8,6.5107947 C8.82290428,6.5107947 9.49,7.17789042 9.49,8.0007947 C9.49,8.82369898 8.82290428,9.4907947 8,9.4907947 C7.17751638,9.48978003 6.51101467,8.82327832 6.51,8.0007947 L6.51,8.0007947 Z M13.1235901,13.9076946 C12.6872852,13.9076946 12.3335901,13.5539995 12.3335901,13.1176946 C12.3335901,12.6813896 12.6872852,12.3276946 13.1235901,12.3276946 C13.5598951,12.3276946 13.9135901,12.6813896 13.9135901,13.1176946 C13.9130954,13.5537944 13.55969,13.9071998 13.1235901,13.9076946 L13.1235901,13.9076946 Z" fill="currentColor" fill-rule="evenodd"></path>
                    </g>
                </g>
            </g>
        </g>
    </g>
</svg>