<?xml version="1.0" encoding="UTF-8"?>
<svg width="16px" height="16px" viewBox="0 0 16 16" version="1.1" xmlns="http://www.w3.org/2000/svg" xmlns:xlink="http://www.w3.org/1999/xlink">
    <g id="组件分类" stroke="none" stroke-width="1" fill="none" fill-rule="evenodd">
        <g id="Icon图标-Light" transform="translate(-336.000000, -414.000000)">
            <g id="业务相关" transform="translate(120.000000, 366.000000)">
                <g id="General/Icon/历史" transform="translate(216.000000, 48.000000)">
                    <g id="1.通用/1.Icon图标/历史">
                        <rect id="矩形" fill-rule="nonzero" x="0" y="0" width="16" height="16"></rect>
                        <path d="M10.66,1.212 C11.564,1.212 12.268,1.908 12.268,2.82 L12.268,2.82 L12.268,6.612 C12.268,6.82 12.012,6.948 11.804,6.948 C11.596,6.948 11.34,6.82 11.34,6.612 L11.34,6.612 L11.34,2.828 C11.34,2.34 11.132,2.132 10.644,2.132 L10.644,2.132 L3.036,2.132 C2.548,2.132 2.14,2.332 2.14,2.82 L2.14,2.82 L2.14,12.9 C2.14,13.388 2.564,13.588 3.052,13.588 L3.052,13.588 L8.284,13.588 C8.5,13.588 8.652,13.844 8.652,14.052 C8.652,14.26 8.492,14.508 8.284,14.508 L8.284,14.508 L2.82,14.508 C1.908,14.508 1.212,13.812 1.212,12.9 L1.212,12.9 L1.212,2.82 C1.212,1.916 1.908,1.212 2.82,1.212 L2.82,1.212 Z M11.568,9.578311 C11.776,9.578311 11.92,9.722311 11.92,9.930311 L11.92,9.930311 L11.92,11.474311 L12.968,11.474311 C13.176,11.474311 13.32,11.618311 13.32,11.826311 C13.32,12.034311 13.176,12.178311 13.04,12.170311 L13.04,12.170311 L11.216,12.170311 L11.216,9.930311 C11.216,9.722311 11.36,9.578311 11.568,9.578311 Z M11.5,14.788 C13.324,14.788 14.788,13.316 14.788,11.5 C14.788,9.684 13.316,8.212 11.5,8.212 C9.684,8.212 8.212,9.684 8.212,11.5 C8.212,13.316 9.676,14.788 11.5,14.788 Z M11.5,9 C12.8503086,9 14,10.0802469 14,11.5 C14,12.8503086 12.9197531,14 11.5,14 C10.1496914,14 9,12.9197531 9,11.5 C9,10.1496914 10.1496914,9 11.5,9 Z M3.712,4.212 L9.712,4.212 C9.98814237,4.212 10.212,4.43585763 10.212,4.712 C10.212,4.98814237 9.98814237,5.212 9.712,5.212 L3.712,5.212 C3.43585763,5.212 3.212,4.98814237 3.212,4.712 C3.212,4.43585763 3.43585763,4.212 3.712,4.212 Z M3.712,7.212 L7.712,7.212 C7.98814237,7.212 8.212,7.43585763 8.212,7.712 C8.212,7.98814237 7.98814237,8.212 7.712,8.212 L3.712,8.212 C3.43585763,8.212 3.212,7.98814237 3.212,7.712 C3.212,7.43585763 3.43585763,7.212 3.712,7.212 Z M3.712,10.212 L6.712,10.212 C6.98814237,10.212 7.212,10.4358576 7.212,10.712 C7.212,10.9881424 6.98814237,11.212 6.712,11.212 L3.712,11.212 C3.43585763,11.212 3.212,10.9881424 3.212,10.712 C3.212,10.4358576 3.43585763,10.212 3.712,10.212 Z" id="形状结合" fill="currentColor" fill-rule="evenodd"></path>
                    </g>
                </g>
            </g>
        </g>
    </g>
</svg>