<?xml version="1.0" encoding="UTF-8"?>
<svg width="16px" height="16px" viewBox="0 0 16 16" version="1.1" xmlns="http://www.w3.org/2000/svg" xmlns:xlink="http://www.w3.org/1999/xlink">
    <g stroke="none" stroke-width="1" fill="none" fill-rule="evenodd">
        <g transform="translate(-120.000000, -798.000000)">
            <g transform="translate(120.000000, 750.000000)">
                <g transform="translate(0.000000, 48.000000)">
                    <g>
                        <rect fill-rule="nonzero" x="0" y="0" width="16" height="16"></rect>
                        <path d="M8.27657916,0.869285874 L15.7575323,7.36602025 C15.9130792,7.501114 15.9698448,7.71778587 15.9005167,7.91178587 C15.8311885,8.10578587 15.6499698,8.23741087 15.4440167,8.24333275 L14.2893008,8.27579225 L14.2900635,13.4583015 C14.2900635,14.1750359 14.0049542,14.5890984 13.7657667,14.8102546 C13.3355479,15.2080671 12.7905167,15.2532077 12.5655635,15.2532077 C12.5348917,15.2532077 12.5102354,15.252364 12.4925635,15.2514734 L3.15264166,15.2514734 C2.52698541,15.2514734 2.16684478,14.9879577 1.97490728,14.7668952 C1.55429791,14.2824734 1.58807916,13.6256921 1.60704791,13.4434577 L1.60630075,8.29479225 L0.570329159,8.29506712 C0.362657284,8.29506712 0.176626034,8.16672337 0.102891659,7.97258275 C0.0291729089,7.77844212 0.0831104089,7.55895775 0.238422909,7.421114 L7.61684478,0.872832749 C7.80465728,0.706145249 8.08695416,0.704613999 8.27657916,0.869285874 Z M7.95232916,1.912114 L1.88698541,7.29506712 L2.10703228,7.29506712 C2.38317291,7.29506712 2.60703228,7.5189265 2.60703228,7.79506712 L2.60330075,7.82579225 L2.60704791,7.8258015 L2.60704791,13.5119421 L2.60232916,13.541364 C2.59043853,13.6413796 2.58931353,13.9519421 2.73184478,14.1133796 C2.76200103,14.1475359 2.85376666,14.2514734 3.15265728,14.2514734 L5.85130075,14.2507923 L5.85157916,10.805489 C5.85157916,10.7294577 5.87086041,10.4164265 6.16440728,10.1180671 C6.52065728,9.755989 7.12468853,9.57239525 7.95973541,9.57239525 C8.78220416,9.57239525 9.37967291,9.75850462 9.73554791,10.1255671 C10.0359385,10.4353796 10.0552979,10.7615984 10.0547167,10.8481296 L10.0543008,14.2507923 L12.5324698,14.2514734 L12.5441885,14.2527546 C12.5778292,14.2539421 12.8928604,14.2595359 13.091001,14.0721765 C13.2230948,13.9472702 13.2900635,13.740739 13.2900635,13.4583015 L13.2900635,7.821489 C13.2906067,7.81588982 13.2903617,7.81043534 13.2902042,7.80495775 C13.2822823,7.5289265 13.499626,7.298739 13.7756573,7.29081712 L14.1339542,7.28053587 L7.95232916,1.912114 Z M7.95971978,10.4161452 C7.14296978,10.4161452 6.85271978,10.6215359 6.76584478,10.7098171 C6.72318853,10.7531765 6.70528228,10.7900671 6.69776666,10.813364 C6.69662603,10.8168796 6.69584478,10.8197859 6.69531353,10.8219421 L6.69530075,14.2507923 L9.21030075,14.2507923 L9.21095416,10.8530984 C9.20815728,10.834864 9.19051666,10.7577234 9.08568853,10.6727702 C8.96742291,10.5769265 8.66386041,10.4161452 7.95971978,10.4161452 Z" fill="currentColor" fill-rule="evenodd"></path>
                    </g>
                </g>
            </g>
        </g>
    </g>
</svg>