<?xml version="1.0" encoding="UTF-8"?>
<svg width="16px" height="16px" viewBox="0 0 16 16" version="1.1" xmlns="http://www.w3.org/2000/svg" xmlns:xlink="http://www.w3.org/1999/xlink">
    <g id="组件分类" stroke="none" stroke-width="1" fill="none" fill-rule="evenodd">
        <g id="Icon图标-Light" transform="translate(-528.000000, -310.000000)">
            <g id="方向和建议" transform="translate(120.000000, 262.000000)">
                <g id="General/Icon/导入" transform="translate(408.000000, 48.000000)">
                    <g id="1.通用/1.Icon图标/导入">
                        <rect id="矩形" x="0" y="0" width="16" height="16"></rect>
                        <path d="M11.0831123,9 L7.58366837,9 C7.42241747,9 7.28503342,8.94294547 7.17134512,8.82721118 C7.057058,8.71489845 7,8.57769386 7,8.41551189 L7,4.91722267 C7,4.75504069 7.05705802,4.61783611 7.17125957,4.50372705 C7.28503342,4.38970354 7.42241747,4.33264902 7.58366837,4.33264902 C7.74483373,4.33264902 7.88221779,4.38970355 7.99599164,4.50372705 C8.11036429,4.6178361 8.16716568,4.75504069 8.16716568,4.91722267 L8.16716568,7.00762519 L13.0067458,2.16936726 C13.1188087,2.05705453 13.2555084,2 13.4168449,2 C13.5839983,2 13.7228367,2.05534374 13.8338731,2.16577462 C13.9449095,2.27808734 14,2.41708826 14,2.58277733 C14,2.74495931 13.9441396,2.88045311 13.8317345,2.99447663 L8.99206882,7.83273456 L11.0836256,7.83273456 C11.244791,7.83273456 11.3818328,7.88978909 11.496291,8.0038126 C11.6098083,8.11792164 11.6672084,8.25512624 11.6672084,8.41551189 C11.6672084,8.57769387 11.6098083,8.71489845 11.496291,8.82892197 C11.4047245,8.92014078 11.2987044,8.97489943 11.1774861,8.99315414 L11.0831123,9 Z M3.6356691,2 L7.45380364,2 C7.60444264,2 7.73260178,2.05335965 7.83964107,2.16159893 C7.94596036,2.26663822 7.99948,2.39495737 7.99948,2.54663635 C7.99948,2.69663535 7.94588035,2.8250345 7.83964107,2.93167379 C7.73260178,3.03831308 7.60444264,3.09167272 7.45380364,3.09167272 L3.6356691,3.09167272 C3.4851101,3.09167272 3.35647096,3.14495236 3.25031167,3.25167166 C3.14311239,3.35831095 3.09015274,3.48663009 3.09015274,3.63830908 L3.09015274,12.3649709 C3.09015274,12.5149699 3.14311238,12.643289 3.25031167,12.7499283 C3.35647097,12.8565676 3.48511011,12.9099273 3.6356691,12.9099273 L12.3628109,12.9099273 C12.5134499,12.9099273 12.6416091,12.8565676 12.7486483,12.7499283 C12.8549676,12.643289 12.9084873,12.5148899 12.9084873,12.3648909 L12.9084873,8.54667635 C12.9084873,8.39667735 12.9620869,8.26835821 13.0683262,8.16171892 C13.1752855,8.05499964 13.3036046,8.00171999 13.4543236,8.00171999 C13.6049626,8.00171999 13.7331218,8.05499964 13.8401611,8.16171892 C13.9463204,8.26835821 14,8.39667735 14,8.54667635 L14,12.3650509 C14,12.8166479 13.8401611,13.2016853 13.5206432,13.5216832 C13.2009653,13.8416811 12.8151279,14 12.3638509,14 L3.63638909,14 C3.18455211,14 2.79935468,13.8416011 2.4795168,13.5216032 C2.15983893,13.2016053 2,12.8166479 2,12.3649709 L2,3.63838907 C2,3.18671208 2.15983893,2.80175465 2.4795168,2.48175679 C2.79935467,2.16175892 3.1845521,2.00175999 3.63638909,2.00175999 L3.6356691,2 Z" id="形状" fill="currentColor" fill-rule="evenodd"></path>
                    </g>
                </g>
            </g>
        </g>
    </g>
</svg>