<?xml version="1.0" encoding="UTF-8"?>
<svg width="16px" height="16px" viewBox="0 0 16 16" version="1.1" xmlns="http://www.w3.org/2000/svg" xmlns:xlink="http://www.w3.org/1999/xlink">
    <g id="组件分类" stroke="none" stroke-width="1" fill="none" fill-rule="evenodd">
        <g id="Icon图标-Light" transform="translate(-936.000000, -310.000000)">
            <g id="方向和建议" transform="translate(120.000000, 262.000000)">
                <g id="General/Icon/信息/line" transform="translate(816.000000, 48.000000)">
                    <g id="1.通用/1.Icon图标/信息/line">
                        <rect id="矩形" fill-rule="nonzero" x="0" y="0" width="16" height="16"></rect>
                        <path d="M11.5136719,1.93652344 C12.5891981,2.56087552 13.4391245,3.41080191 14.0634766,4.48632812 C14.6878286,5.56185434 15,6.73306658 15,8 C15,9.26693342 14.6878286,10.4381457 14.0634766,11.5136719 C13.4391245,12.5891981 12.5891981,13.4391245 11.5136719,14.0634766 C10.4381457,14.6878286 9.26693342,15 8,15 C6.73306658,15 5.56185434,14.6878286 4.48632812,14.0634766 C3.41080191,13.4391245 2.56087552,12.5891981 1.93652344,11.5136719 C1.31217136,10.4381457 1,9.26693342 1,8 C1,6.73306658 1.31217136,5.56185434 1.93652344,4.48632812 C2.56087552,3.41080191 3.41080191,2.56087552 4.48632812,1.93652344 C5.56185434,1.31217136 6.73306658,1 8,1 C9.26693342,1 10.4381457,1.31217136 11.5136719,1.93652344 Z M12.2519531,12.2519531 C12.8079455,11.6959608 13.2408839,11.0579463 13.5507812,10.3378906 C13.8606786,9.59960568 14.015625,8.8203166 14.015625,8 C14.015625,7.1796834 13.8561214,6.40039432 13.5371094,5.66210938 C13.2363266,4.94205369 12.8079455,4.30403924 12.2519531,3.74804688 C11.6959608,3.19205451 11.0579463,2.75911613 10.3378906,2.44921875 C9.59960568,2.13932137 8.8203166,1.984375 8,1.984375 C7.1796834,1.984375 6.40039432,2.14387861 5.66210938,2.46289062 C4.94205369,2.76367338 4.30403924,3.19205451 3.74804688,3.74804688 C3.19205451,4.30403924 2.75911613,4.94205369 2.44921875,5.66210938 C2.13932137,6.40039432 1.984375,7.1796834 1.984375,8 C1.984375,8.8203166 2.14387861,9.59960568 2.46289062,10.3378906 C2.76367338,11.0579463 3.19205451,11.6959608 3.74804688,12.2519531 C4.30403924,12.8079455 4.94205369,13.2408839 5.66210938,13.5507812 C6.40039432,13.8606786 7.1796834,14.015625 8,14.015625 C8.8203166,14.015625 9.59960568,13.8561214 10.3378906,13.5371094 C11.0579463,13.2363266 11.6959608,12.8079455 12.2519531,12.2519531 Z M9.61328125,10.6523438 C9.75000068,10.6523438 9.86621046,10.7001948 9.96191406,10.7958984 C10.0576177,10.891602 10.1054688,11.0078118 10.1054688,11.1445312 C10.1054688,11.2812507 10.0576177,11.3974605 9.96191406,11.4931641 C9.86621046,11.5888677 9.75000068,11.6367188 9.61328125,11.6367188 L6.3046875,11.6367188 C6.16796807,11.6367188 6.05175829,11.5888677 5.95605469,11.4931641 C5.86035108,11.3974605 5.8125,11.2812507 5.8125,11.1445312 C5.8125,11.0078118 5.86035108,10.891602 5.95605469,10.7958984 C6.05175829,10.7001948 6.16796807,10.6523438 6.3046875,10.6523438 L7.46679688,10.6523438 L7.46679688,6.359375 L6.64648438,6.359375 C6.50976494,6.359375 6.39355517,6.30924529 6.29785156,6.20898438 C6.20214796,6.10872346 6.15429688,5.9947923 6.15429688,5.8671875 C6.15429688,5.73046807 6.20214796,5.61425829 6.29785156,5.51855469 C6.39355517,5.42285108 6.50976494,5.375 6.64648438,5.375 L7.95898438,5.375 C8.09570381,5.375 8.21191358,5.42285108 8.30761719,5.51855469 C8.40332079,5.61425829 8.45117188,5.73046807 8.45117188,5.8671875 L8.45117188,10.6523438 L9.61328125,10.6523438 Z M7.61035156,4.35644531 C7.51464796,4.26074171 7.46679688,4.14681056 7.46679688,4.01464844 C7.46679688,3.88248632 7.51464796,3.76627654 7.61035156,3.66601562 C7.70605517,3.56575471 7.82226494,3.515625 7.95898438,3.515625 C8.09570381,3.515625 8.21191358,3.56575471 8.30761719,3.66601562 C8.40332079,3.76627654 8.45117188,3.88248632 8.45117188,4.01464844 C8.45117188,4.14681056 8.40332079,4.26074171 8.30761719,4.35644531 C8.21191358,4.45214892 8.09570381,4.5 7.95898438,4.5 C7.82226494,4.5 7.70605517,4.45214892 7.61035156,4.35644531 Z" id="info-circle-o---anticon" fill="currentColor" fill-rule="evenodd"></path>
                    </g>
                </g>
            </g>
        </g>
    </g>
</svg>