<?xml version="1.0" encoding="UTF-8"?>
<svg width="16px" height="16px" viewBox="0 0 16 16" version="1.1" xmlns="http://www.w3.org/2000/svg" xmlns:xlink="http://www.w3.org/1999/xlink">
    <g id="组件分类" stroke="none" stroke-width="1" fill="none" fill-rule="evenodd">
        <g id="Icon图标-Light" transform="translate(-1056.000000, -414.000000)">
            <g id="业务相关" transform="translate(120.000000, 366.000000)">
                <g id="General/Icon/诚信" transform="translate(936.000000, 48.000000)">
                    <g id="1.通用/1.Icon图标/诚信">
                        <rect id="矩形" x="0" y="0" width="16" height="16"></rect>
                        <path d="M14.4,2.54285714 C14.2857143,2.45714286 14.1714286,2.42857142 14.0285714,2.45714286 C12.9142857,2.71428572 9.8,2.17142858 8.6,0.742857141 C8.54285714,0.628571422 8.42857142,0.571428578 8.3142857,0.571428578 C8.19999998,0.571428578 8.08571428,0.6 8,0.685714281 C6.45714286,2.17142858 3.68571428,2.71428572 2.5142857,2.45714286 C2.39999998,2.42857144 2.25714284,2.45714286 2.14285714,2.54285714 C2.05714286,2.6 2,2.74285714 2,2.85714286 L2,9.08571428 C2,13.0571429 7.88571428,15.3142857 8.14285714,15.4 C8.17142856,15.4285714 8.22857142,15.4285714 8.28571428,15.4285714 C8.34285714,15.4285714 8.4,15.4285714 8.42857142,15.4 C8.68571428,15.3142857 14.5714286,13.0857143 14.5714286,9.08571428 L14.5714286,2.85714286 C14.5714286,2.74285714 14.5142857,2.6 14.4,2.54285714 L14.4,2.54285714 Z M13.7142857,9.08571428 C13.7142857,12.1714286 9.17142856,14.1714286 8.28571428,14.5428571 C7.4,14.1714286 2.85714286,12.1714286 2.85714286,9.08571428 L2.85714286,3.37142858 C4.28571428,3.45714286 6.68571428,2.91428572 8.25714286,1.6 C9.62857144,2.88571428 12.1714286,3.48571428 13.7142857,3.37142858 L13.7142857,9.08571428 L13.7142857,9.08571428 Z M11.7142857,5.2 L9.57142856,5.2 L9.77142856,5.11428572 C9.9142857,5.05714286 9.99999998,4.8857143 9.9142857,4.71428572 C9.82857142,4.54285714 9.7142857,4.31428572 9.57142856,4.14285714 C9.48571428,4.02857142 9.34285714,3.97142856 9.22857142,4.02857142 L8.94285714,4.14285714 C8.77142856,4.2 8.71428572,4.4 8.8,4.54285714 C8.91428572,4.77142856 9.05714286,5 9.14285714,5.2 L7.1142857,5.2 C6.94285713,5.2 6.82857142,5.31428572 6.82857142,5.48571428 L6.82857142,5.68571428 C6.82857142,5.85714286 6.97142856,5.97142858 7.1142857,5.97142858 L11.7142857,5.97142858 C11.8857143,5.97142858 12,5.85714286 12,5.68571428 L12,5.48571428 C12,5.3142857 11.8857143,5.2 11.7142857,5.2 Z M7.68571428,7.11428572 L11.1428571,7.11428572 C11.3142857,7.11428572 11.4285714,7 11.4285714,6.82857142 L11.4285714,6.65714286 C11.4285714,6.48571428 11.2857143,6.37142858 11.1428571,6.37142858 L7.68571428,6.37142858 C7.5142857,6.37142858 7.4,6.4857143 7.4,6.65714286 L7.4,6.82857142 C7.37142858,7 7.51428572,7.11428572 7.68571428,7.11428572 Z M6.74285714,4.17142858 L6.45714286,4.08571428 C6.31428572,4.02857142 6.14285714,4.1142857 6.1142857,4.25714286 C5.77142856,5.2 5.22857142,6.14285714 4.65714286,6.82857142 C4.57142858,6.9142857 4.57142858,7.05714284 4.62857142,7.14285714 C4.68571428,7.25714286 4.77142856,7.37142856 4.82857142,7.48571428 C4.9142857,7.65714286 5.17142856,7.68571428 5.3142857,7.54285714 C5.39999998,7.42857142 5.5142857,7.28571428 5.6,7.14285714 L5.6,11.1428571 C5.6,11.3142857 5.74285714,11.4285714 5.88571428,11.4285714 L6.17142856,11.4285714 C6.34285714,11.4285714 6.45714284,11.3142857 6.45714286,11.1428571 L6.45714286,5.71428572 C6.45714286,5.6857143 6.45714286,5.62857144 6.48571428,5.6 C6.65714286,5.25714286 6.8,4.88571428 6.94285714,4.54285714 C7,4.37142856 6.91428572,4.2 6.74285714,4.17142858 Z M7.37142856,8 C7.37142856,8.17142858 7.5142857,8.28571428 7.65714286,8.28571428 L11.1428571,8.28571428 C11.3142857,8.28571428 11.4285714,8.17142856 11.4285714,8 L11.4285714,7.82857142 C11.4285714,7.65714284 11.2857143,7.54285714 11.1428571,7.54285714 L7.68571428,7.54285714 C7.5142857,7.54285714 7.4,7.65714286 7.4,7.82857142 L7.4,8 L7.37142856,8 Z M11.2285714,8.71428572 L7.54285714,8.71428572 C7.37142856,8.71428572 7.25714286,8.82857144 7.25714286,9 L7.25714286,11.0857143 C7.25714286,11.2571429 7.4,11.3714286 7.54285714,11.3714286 L8.05714286,11.3714286 L8.05714286,11.1428571 L10.6571429,11.1428571 L10.6571429,11.3714286 L11.2285714,11.3714286 C11.4,11.3714286 11.5142857,11.2571429 11.5142857,11.0857143 L11.5142857,9.02857142 C11.5142857,8.85714284 11.4,8.71428572 11.2285714,8.71428572 Z M10.6857143,10.0857143 C10.6857143,10.2571429 10.5428571,10.3714286 10.4,10.3714286 L8.37142856,10.3714286 C8.19999998,10.3714286 8.08571428,10.2571429 8.08571428,10.0857143 L8.08571428,9.74285714 C8.08571428,9.57142856 8.22857142,9.45714286 8.37142856,9.45714286 L10.4,9.45714286 C10.5714286,9.45714286 10.6857143,9.57142858 10.6857143,9.74285714 L10.6857143,10.0857143 Z" id="形状" fill="currentColor" fill-rule="evenodd"></path>
                    </g>
                </g>
            </g>
        </g>
    </g>
</svg>