<?xml version="1.0" encoding="UTF-8"?>
<svg width="16px" height="16px" viewBox="0 0 16 16" version="1.1" xmlns="http://www.w3.org/2000/svg" xmlns:xlink="http://www.w3.org/1999/xlink">
    <g id="组件分类" stroke="none" stroke-width="1" fill="none" fill-rule="evenodd">
        <g id="Icon图标-Light" transform="translate(-168.000000, -414.000000)">
            <g id="业务相关" transform="translate(120.000000, 366.000000)">
                <g id="General/Icon/司法" transform="translate(48.000000, 48.000000)">
                    <g id="1.通用/1.Icon图标/司法">
                        <rect id="矩形" x="0" y="0" width="16" height="16"></rect>
                        <path d="M8.5,14 L1.5,14 C1.22385763,14 1,14.2238576 1,14.5 C1,14.7761424 1.22385763,15 1.5,15 L8.5,15 C8.77614237,15 9,14.7761424 9,14.5 C9,14.2238576 8.77614237,14 8.5,14 Z M9.87754204,6.90780392 L10.033227,6.75259243 C10.4967122,6.99357557 11.0819093,6.92006266 11.4711218,6.53203395 L12.1302346,5.87492585 C12.6104187,5.39618245 12.6104187,4.62000639 12.1302346,4.14126298 L9.33950658,1.35904272 C8.85930264,0.880319092 8.08073881,0.880319092 7.6005547,1.35904272 L6.94144192,2.01615082 C6.53067151,2.42569165 6.47129305,3.05288445 6.76330655,3.52536008 L4.49566031,5.78608952 C4.02650306,5.52033187 3.41933156,5.58688497 3.01925086,5.98572906 L2.36013808,6.64283715 C1.87995397,7.12158056 1.87995397,7.89775662 2.36013808,8.37650002 L5.15088592,11.1587203 C5.63108986,11.6374439 6.40965369,11.6374439 6.8898378,11.1587203 L7.54895058,10.5016122 C7.94901145,10.1027483 8.01576759,9.49742353 7.74919917,9.02967346 L7.88620197,8.89310712 L12.5961988,13.5888181 C13.1460941,14.1370606 14.0376634,14.1370606 14.5875785,13.5888181 C15.1374738,13.0405953 15.1374738,12.1517377 14.5875785,11.6035149 L9.87754204,6.90780392 Z M7.64265906,2.71521544 L8.30177184,2.05810735 C8.39470686,1.96543522 8.54539408,1.96543522 8.6383291,2.05810735 L11.4290571,4.84032761 C11.522012,4.93297997 11.522012,5.08320887 11.4290571,5.17586123 L10.7699443,5.83296932 C10.692915,5.90978418 10.576181,5.92293267 10.4855862,5.87239502 L7.60313292,2.99870873 C7.56257946,2.92643751 7.56292216,2.83751339 7.60412042,2.76551551 L7.64265906,2.71521544 Z M6.84775327,9.46701395 C6.94068829,9.55966631 6.94068829,9.70989521 6.84775327,9.80254757 L6.18862065,10.4596557 C6.09568563,10.5523278 5.94499842,10.5523278 5.8520634,10.4596557 L3.06133539,7.6774354 C2.96838054,7.58478304 2.96838054,7.43455414 3.06133539,7.34190178 L3.72044817,6.68479369 C3.81338319,6.59212155 3.9640704,6.59212155 4.05700542,6.68479369 L6.84775327,9.46701395 Z M9.29845333,6.08702186 L7.08272854,8.29600754 L5.23160413,6.45051332 L7.44732893,4.24152763 L9.29845333,6.08702186 Z M9.18846238,7.61890979 L13.8864011,12.3025597 C14.0490473,12.464731 14.0490473,12.7276217 13.8864011,12.8897732 C13.7237549,13.0519247 13.4600621,13.0519247 13.2974159,12.8897732 L8.59947726,8.20614306 L9.18846238,7.61890979 Z" id="形状" fill="currentColor" fill-rule="evenodd"></path>
                    </g>
                </g>
            </g>
        </g>
    </g>
</svg>