<?xml version="1.0" encoding="UTF-8"?>
<svg width="16px" height="16px" viewBox="0 0 16 16" version="1.1" xmlns="http://www.w3.org/2000/svg" xmlns:xlink="http://www.w3.org/1999/xlink">
    <g stroke="none" stroke-width="1" fill="none" fill-rule="evenodd">
        <g transform="translate(-168.000000, -310.000000)">
            <g transform="translate(120.000000, 262.000000)">
                <g transform="translate(48.000000, 48.000000)">
                    <g>
                        <rect fill-rule="nonzero" x="0" y="0" width="16" height="16"></rect>
                        <path d="M5.34604828,7.61513487 C5.33654492,7.62431968 5.33337714,7.6365661 5.32545767,7.64575091 C5.32387378,7.6472817 5.31912209,7.64881252 5.3175382,7.65034331 C5.09104144,7.87077879 5.09262533,8.22745566 5.32070599,8.44636034 L9.8614157,12.7782277 C10.0894964,12.9971324 10.4569596,12.9956016 10.6834564,12.7751661 C10.7948569,12.6659689 10.8513491,12.5215632 10.8513491,12.3786884 C10.8513491,12.2342827 10.793273,12.0888565 10.6787047,11.979149 L6.5482234,8.03916701 L10.6533624,4.01703196 C10.7647629,3.90783474 10.8212551,3.7649599 10.8212551,3.62055424 C10.8212551,3.47461779 10.763179,3.33072241 10.6486107,3.22101493 C10.4236979,3.00211024 10.0546507,3.00517185 9.82815394,3.22560733 L5.34604828,7.61513487 Z" fill="currentColor" fill-rule="evenodd"></path>
                    </g>
                </g>
            </g>
        </g>
    </g>
</svg>