<?xml version="1.0" encoding="UTF-8"?>
<svg width="16px" height="16px" viewBox="0 0 16 16" version="1.1" xmlns="http://www.w3.org/2000/svg" xmlns:xlink="http://www.w3.org/1999/xlink">
    <g id="组件分类" stroke="none" stroke-width="1" fill="none" fill-rule="evenodd">
        <g id="Icon图标-Light" transform="translate(-264.000000, -310.000000)">
            <g id="方向和建议" transform="translate(120.000000, 262.000000)">
                <g id="General/Icon/左" transform="translate(144.000000, 48.000000)">
                    <g id="1.通用/1.Icon图标/双箭头方向/左">
                        <rect id="矩形" fill-rule="nonzero" x="0" y="0" width="16" height="16"></rect>
                        <path d="M7.67950303,3.16706126 C7.90599979,2.94662578 8.27504697,2.94356418 8.49995984,3.16246886 C8.61452813,3.27217634 8.67260422,3.41607173 8.67260422,3.56200818 C8.67260422,3.70641383 8.61611202,3.84928868 8.50471152,3.95848589 L8.50471152,3.95848589 L4.39957249,7.98062095 L8.53005381,11.920603 C8.6446221,12.0303105 8.70269819,12.1757366 8.70269819,12.3201423 C8.70269819,12.4630171 8.64620599,12.6074228 8.53480548,12.71662 C8.30830872,12.9370555 7.94084545,12.9385863 7.7127648,12.7196816 L7.7127648,12.7196816 L3.17205509,8.38781428 C2.94397442,8.16890959 2.94239053,7.81223273 3.1688873,7.59179725 L3.1688873,7.59179725 C3.18472623,7.57802004 3.18789402,7.56577361 3.19739737,7.5565888 L3.19739737,7.5565888 Z M11.5308521,3.16706126 C11.7573489,2.94662578 12.1263961,2.94356418 12.3513089,3.16246886 C12.4658772,3.27217634 12.5239533,3.41607173 12.5239533,3.56200818 C12.5239533,3.70641383 12.4674611,3.84928868 12.3560606,3.95848589 L12.3560606,3.95848589 L8.25092159,7.98062095 L12.3814029,11.920603 C12.4959712,12.0303105 12.5540473,12.1757366 12.5540473,12.3201423 C12.5540473,12.4630171 12.4975551,12.6074228 12.3861546,12.71662 C12.1596578,12.9370555 11.7921945,12.9385863 11.5641139,12.7196816 L11.5641139,12.7196816 L7.02340418,8.38781428 C6.79532352,8.16890959 6.79373963,7.81223273 7.02023639,7.59179725 L7.02023639,7.59179725 C7.03607532,7.57802004 7.03924311,7.56577361 7.04874647,7.5565888 L7.04874647,7.5565888 Z" fill="currentColor" fill-rule="evenodd"></path>
                    </g>
                </g>
            </g>
        </g>
    </g>
</svg>