<?xml version="1.0" encoding="UTF-8"?>
<svg width="16px" height="16px" viewBox="0 0 16 16" version="1.1" xmlns="http://www.w3.org/2000/svg" xmlns:xlink="http://www.w3.org/1999/xlink">
    <g id="组件分类" stroke="none" stroke-width="1" fill="none" fill-rule="evenodd">
        <g id="Icon图标-Light" transform="translate(-264.000000, -414.000000)">
            <g id="业务相关" transform="translate(120.000000, 366.000000)">
                <g id="General/Icon/名单" transform="translate(144.000000, 48.000000)">
                    <g id="1.通用/1.Icon图标/名单">
                        <rect id="矩形" x="0" y="0" width="16" height="16"></rect>
                        <path d="M12.9090909,15 L3.09090908,15 C2.4881818,15 2,14.4779167 2,13.8333333 L2,2.16725 C2,1.52266668 2.4881818,1 3.09090908,1 L12.9090909,1 C13.5112727,1 14,1.52266668 14,2.16725 L14,13.8333333 C14,14.4779167 13.5112727,15 12.9090909,15 Z M13,2 L3,2 L3,14 L13,14 L13,2 Z M5,4.48543058 L11,4.48543058 C11.2761424,4.48543058 11.5,4.70928821 11.5,4.98543058 C11.5,5.26157296 11.2761424,5.48543058 11,5.48543058 L5,5.48543058 C4.72385763,5.48543058 4.5,5.26157296 4.5,4.98543058 C4.5,4.70928821 4.72385763,4.48543058 5,4.48543058 Z M5,7.5 L11,7.5 C11.2761424,7.5 11.5,7.72385763 11.5,8 C11.5,8.27614237 11.2761424,8.5 11,8.5 L5,8.5 C4.72385763,8.5 4.5,8.27614237 4.5,8 C4.5,7.72385763 4.72385763,7.5 5,7.5 Z M5,10.5145694 L11,10.5145694 C11.2761424,10.5145694 11.5,10.738427 11.5,11.0145694 C11.5,11.2907118 11.2761424,11.5145694 11,11.5145694 L5,11.5145694 C4.72385763,11.5145694 4.5,11.2907118 4.5,11.0145694 C4.5,10.738427 4.72385763,10.5145694 5,10.5145694 Z" id="形状" fill="currentColor" fill-rule="evenodd"></path>
                    </g>
                </g>
            </g>
        </g>
    </g>
</svg>