<?xml version="1.0" encoding="UTF-8"?>
<svg width="16px" height="16px" viewBox="0 0 16 16" version="1.1" xmlns="http://www.w3.org/2000/svg" xmlns:xlink="http://www.w3.org/1999/xlink">
    <g id="组件分类" stroke="none" stroke-width="1" fill="none" fill-rule="evenodd">
        <g id="Icon图标-Light" transform="translate(-840.000000, -414.000000)">
            <g id="业务相关" transform="translate(120.000000, 366.000000)">
                <g id="General/Icon/定位" transform="translate(720.000000, 48.000000)">
                    <g id="1.通用/1.Icon图标/定位">
                        <rect id="矩形" x="0" y="0" width="16" height="16"></rect>
                        <path d="M8.00375657,0.972165646 C10.932588,0.991434273 13.1567382,3.81566462 12.0474158,6.50363824 C11.1830802,8.59978972 9.77096503,10.4729756 8.55566512,12.4163544 C8.21433515,12.964134 7.65829758,12.8595329 7.34311789,12.3736882 C6.20764515,10.620243 4.8547122,8.9452487 4.08121441,7.03765452 C2.67322822,3.5761831 5.02400085,1.02721887 8.00375657,0.972165646 Z M7.77187867,11.3966999 C7.96154375,11.6831784 8.02192254,11.6831784 8.1981992,11.4176419 C9.14956714,9.74377288 10.1637613,8.10430864 11.0283692,6.38705958 C11.6805649,5.08865177 11.3245498,3.7648143 10.2789426,2.75660362 C9.24679814,1.76035984 7.64473043,1.55093922 6.38222329,2.24651484 C5.24686438,2.87178496 4.10552202,4.31379549 4.59616462,5.73187222 C5.305203,7.78569012 6.66194941,9.52238537 7.77187867,11.3966999 Z M11.1640625,10.9003906 L12.21875,11.1640625 C12.7460938,11.3398437 13.1855469,11.6035156 13.5371094,11.7792969 C13.8007813,11.9550781 14.1523438,12.3066406 14.1523438,12.8339844 C14.1523438,13.3613281 13.8007813,13.625 13.5371094,13.8886719 C13.1855469,14.1523437 12.7460938,14.328125 12.21875,14.5039062 C11.0761719,14.8554687 9.58203125,15.03125 8,15.03125 C6.41796875,15.03125 4.92382813,14.8554687 3.78125,14.5039062 C3.25390625,14.328125 2.7265625,14.1523437 2.46289063,13.8886719 C2.19921875,13.625 1.84765625,13.2734375 1.84765625,12.8339844 C1.84765625,12.3945312 2.19921875,12.0429687 2.46289063,11.7792969 C2.81445313,11.515625 3.25390625,11.3398437 3.78125,11.1640625 L4.8359375,10.9003906 C5.09960938,10.9003906 5.36328125,11.0761719 5.36328125,11.3398437 C5.36328125,11.515625 5.1875,11.6914062 5.01171875,11.7792969 C4.66015625,11.8671875 4.30859375,11.9550781 4.04492188,12.0429687 C2.90234375,12.3945312 2.63867188,12.7460937 2.63867188,12.921875 C2.63867188,13.0976562 2.90234375,13.3486537 4.04492187,13.7002162 C5.09960937,14.0517787 6.50585938,14.22756 8,14.22756 C9.49414063,14.22756 10.9003906,14.0517787 11.9550781,13.7002162 C13.0976563,13.3486537 13.3613281,13.0976563 13.3613281,12.921875 C13.3613281,12.7460938 13.0976563,12.3945312 11.9550781,12.0429687 C11.6914063,11.9550781 11.3398438,11.8671875 10.9882813,11.7792969 C10.8125,11.7792969 10.6367188,11.6035156 10.6367188,11.3398437 C10.6367188,11.0761719 10.9003906,10.9003906 11.1640625,10.9003906 Z M8,3.34677841 C9.13902372,3.34677841 10.0654297,4.27318438 10.0654297,5.4122081 C10.0654297,6.55123182 9.13902372,7.47763779 8,7.47763779 C6.86097628,7.47763779 5.93457031,6.55123182 5.93457031,5.4122081 C5.93457031,4.27318438 6.86097628,3.34677841 8,3.34677841 Z M8,4.25799739 C7.36366542,4.25799739 6.84578928,4.77587351 6.84578928,5.4122081 C6.84578928,6.0485427 7.3636654,6.5664188 8,6.5664188 C8.6363346,6.5664188 9.1542107,6.04854268 9.1542107,5.4122081 C9.1542107,4.77587352 8.63633458,4.25799739 8,4.25799739 Z" id="形状结合" fill="currentColor" fill-rule="evenodd"></path>
                    </g>
                </g>
            </g>
        </g>
    </g>
</svg>