<?xml version="1.0" encoding="UTF-8"?>
<svg width="16px" height="16px" viewBox="0 0 16 16" version="1.1" xmlns="http://www.w3.org/2000/svg" xmlns:xlink="http://www.w3.org/1999/xlink">
    <g id="组件分类" stroke="none" stroke-width="1" fill="none" fill-rule="evenodd">
        <g id="Icon图标-Light" transform="translate(-1080.000000, -414.000000)">
            <g id="业务相关" transform="translate(120.000000, 366.000000)">
                <g id="General/Icon/无权限" transform="translate(960.000000, 48.000000)">
                    <g id="1.通用/1.Icon图标/无权限">
                        <rect id="矩形" x="0" y="0" width="16" height="16"></rect>
                        <g id="形状" stroke-width="1" fill-rule="evenodd" transform="translate(2.000000, 1.000000)">
                            <g id="编组">
                                <path d="M6,0 C3.67883815,0 1.82536661,1.76486908 1.70610108,3.84374692 C1.70610108,4.25083562 1.70610108,4.96958665 1.70610108,6 L2.70806142,6 C2.6761683,4.98571635 2.6761683,4.26617507 2.70806142,3.84137615 C2.82824617,2.24058058 4.27662155,0.943396226 6,0.943396226 C7.8,0.943396226 9.3,2.35849057 9.3,4.05660377 L9.3,6.06901686 L10.3,6.06901686 L10.3,4.05660377 C10.3,1.73544193 8.32116185,0 6,0 Z" id="Fill-3" fill-opacity="0.45" fill="#252D3E"></path>
                                <path d="M10,6 L2,6 C0.9,6 0,6.9 0,8 L0,12 C0,13.1 0.9,14 2,14 L10,14 C11.1,14 12,13.1 12,12 L12,8 C12,6.9 11.1,6 10,6 Z" id="路径" stroke="#ECBA71" fill="#FEDFB3" fill-rule="nonzero"></path>
                            </g>
                            <path d="M4.93933983,8.23223305 L5.99978644,9.29278644 L7.06066017,8.23223305 C7.23422652,8.0586667 7.50365092,8.03938154 7.69851907,8.1743776 L7.76776695,8.23223305 C7.9630291,8.42749519 7.9630291,8.74407768 7.76776695,8.93933983 L7.76776695,8.93933983 L6.70678644,9.99978644 L7.76776695,11.0606602 C7.9630291,11.2559223 7.9630291,11.5725048 7.76776695,11.767767 C7.57250481,11.9630291 7.25592232,11.9630291 7.06066017,11.767767 L5.99978644,10.7067864 L4.93933983,11.767767 C4.76577348,11.9413333 4.49634908,11.9606185 4.30148093,11.8256224 L4.23223305,11.767767 C4.0369709,11.5725048 4.0369709,11.2559223 4.23223305,11.0606602 L4.23223305,11.0606602 L5.29278644,9.99978644 L4.23223305,8.93933983 C4.0369709,8.74407768 4.0369709,8.42749519 4.23223305,8.23223305 C4.42749519,8.0369709 4.74407768,8.0369709 4.93933983,8.23223305 Z" id="形状结合" fill="#ECBA71"></path>
                        </g>
                    </g>
                </g>
            </g>
        </g>
    </g>
</svg>