<?xml version="1.0" encoding="UTF-8"?>
<svg width="16px" height="16px" viewBox="0 0 16 16" version="1.1" xmlns="http://www.w3.org/2000/svg" xmlns:xlink="http://www.w3.org/1999/xlink">
    <g id="组件分类" stroke="none" stroke-width="1" fill="none" fill-rule="evenodd">
        <g id="Icon图标-Light" transform="translate(-288.000000, -414.000000)">
            <g id="业务相关" transform="translate(120.000000, 366.000000)">
                <g id="General/Icon/邮件" transform="translate(168.000000, 48.000000)">
                    <g id="1.通用/1.Icon图标/邮件">
                        <rect id="矩形" x="0" y="0" width="16" height="16"></rect>
                        <path d="M14.1292656,11.8155547 L10.4985469,8.53949219 L14.1292656,4.35292969 L14.1292656,11.8155547 Z M2.48176563,12.4090234 L6.12609375,9.17067969 L6.72309375,9.69516406 C7.07004688,9.99849219 7.4973125,10.1543047 7.99996875,10.1543047 C8.50529688,10.1543047 8.92996875,9.99849219 9.27821875,9.69516406 L9.87520313,9.17067969 L13.5195313,12.4090234 L2.48176563,12.4090234 L2.48176563,12.4090234 Z M1.87114062,11.8155547 L1.87114062,4.35291406 L5.501875,8.53949219 L1.87114062,11.8155547 Z M8.89970313,8.71550781 C8.49392188,9.07758594 8.19345313,9.25753906 7.99998438,9.25753906 C7.80654688,9.25753906 7.5060625,9.07758594 7.1003125,8.71550781 L2.45146875,3.59096094 L13.5485156,3.59096094 L8.89970313,8.71550781 Z M13.8288125,2.75091406 L2.1711875,2.75091406 C1.52548438,2.75091406 1,3.27671094 1,3.92410156 L1,12.0767422 C1,12.7245859 1.52548438,13.2490859 2.1711875,13.2490859 L13.8288125,13.2490859 C14.4771563,13.2490859 15,12.7245859 15,12.0767422 L15,3.92408594 C15,3.27671094 14.4771563,2.75091406 13.8288125,2.75091406 Z" id="形状" fill="currentColor" fill-rule="evenodd"></path>
                    </g>
                </g>
            </g>
        </g>
    </g>
</svg>