<?xml version="1.0" encoding="UTF-8"?>
<svg width="16px" height="16px" viewBox="0 0 16 16" version="1.1" xmlns="http://www.w3.org/2000/svg" xmlns:xlink="http://www.w3.org/1999/xlink">
    <g id="组件分类" stroke="none" stroke-width="1" fill="none" fill-rule="evenodd">
        <g id="Icon图标-Light" transform="translate(-312.000000, -798.000000)">
            <g id="导航菜单" transform="translate(120.000000, 750.000000)">
                <g id="General/Icon/地图" transform="translate(192.000000, 48.000000)">
                    <g id="1.通用/1.Icon图标/地图">
                        <rect id="矩形" fill-rule="nonzero" x="0" y="0" width="16" height="16"></rect>
                        <path d="M9.98323778,1.29232314 C10.1718344,1.18440628 10.4040247,1.18652219 10.59062,1.29785811 L10.59062,1.29785811 L10.791,1.4138458 L10.7994792,1.41426716 L10.799,1.4188458 L14.7068644,3.67508486 C14.8626956,3.7680648 14.9667525,3.9253426 14.9933029,4.10161836 L15,4.19112969 L15,13.7579441 C15,14.2149199 14.5098145,14.5047456 14.1089107,14.2848071 L14.1089107,14.2848071 L10.2856719,12.1873484 L6.19138114,14.4876856 C6.01396031,14.5873674 5.79831649,14.5905588 5.61821293,14.4966345 L5.61821293,14.4966345 L5.61062427,14.492608 L1.31565304,12.1744585 C1.12119577,12.0695029 1,11.8664567 1,11.645627 L1,11.645627 L1,1.81779765 C1,1.58765846 1.1239922,1.40049376 1.29795294,1.29890845 C1.47413628,1.19602523 1.70157316,1.18092217 1.90336625,1.29785811 L1.90336625,1.29785811 L5.73629687,3.72245438 L9.76957544,1.41426716 L9.77,1.4138458 Z M9.769,2.4848458 L6.192,4.4928458 L6.192,13.3018458 L9.769,11.2918458 L9.769,2.4848458 Z M2.02661068,2.31386776 L2.02661068,11.4816809 L5.169,13.0998458 L5.169,4.3418458 L2.02661068,2.31386776 Z M10.799,2.4928458 L10.799,11.2438458 L14.0054448,13.0637891 L14.0054448,4.2770797 L10.799,2.4928458 Z" id="形状结合" fill="currentColor" fill-rule="evenodd"></path>
                    </g>
                </g>
            </g>
        </g>
    </g>
</svg>