<?xml version="1.0" encoding="UTF-8"?>
<svg width="16px" height="16px" viewBox="0 0 16 16" version="1.1" xmlns="http://www.w3.org/2000/svg" xmlns:xlink="http://www.w3.org/1999/xlink">
    <g id="组件分类" stroke="none" stroke-width="1" fill="none" fill-rule="evenodd">
        <g id="Icon图标-Light" transform="translate(-384.000000, -414.000000)">
            <g id="业务相关" transform="translate(120.000000, 366.000000)">
                <g id="General/Icon/市场预警" transform="translate(264.000000, 48.000000)">
                    <g id="1.通用/1.Icon图标/市场预警">
                        <rect id="矩形" x="0" y="0" width="16" height="16"></rect>
                        <path d="M14.9976656,4.00715516 C14.9976656,2.90332755 14.1028483,2.00851023 12.9990207,2.00851023 L3.00715114,2.00851023 C1.90332353,2.00851023 1.00850622,2.90332755 1.00850622,4.00715516 L1.00850622,12.0017348 C1.00850622,13.1055624 1.90332353,14.0003797 3.00715114,14.0003797 L12.9990207,14.0003797 C14.1028483,14.0003797 14.9976656,13.1055624 14.9976656,12.0017348 L14.9976656,4.00715516 Z M13.9903485,12.0097294 C13.9903485,12.5616432 13.5429399,13.0090519 12.9910261,13.0090519 L2.99915658,13.0090519 C2.44724278,13.0090519 1.99983412,12.5616432 1.99983412,12.0097294 L1.99983412,4.01514973 C1.99983412,3.46323594 2.44724278,3.01582728 2.99915658,3.01582728 L12.9910261,3.01582728 C13.5429399,3.01582728 13.9903485,3.46323594 13.9903485,4.01514973 L13.9903485,12.0097294 Z M11.1794139,6.24503809 L8.25671605,9.35552237 C8.18107888,9.43601931 8.05450718,9.43995893 7.97401025,9.36432176 C7.9728377,9.36322 7.97167848,9.36210413 7.97053286,9.36097439 L6.81939004,8.22579366 C6.62347679,8.03259701 6.30828359,8.0339953 6.11409218,8.22892258 L3.57066708,10.7819858 L3.57066708,10.7819858 C3.37548741,10.9771655 3.37548741,11.2990752 3.57066708,11.4942549 C3.66826491,11.5918527 3.79609823,11.6434977 3.92394755,11.6434977 C4.05179686,11.6434977 4.17963019,11.5961378 4.27722802,11.49854 L6.32374045,9.45314919 C6.40188115,9.37509872 6.52849586,9.37512281 6.60660686,9.45320303 L7.7539349,10.6007755 C7.94917625,10.7960584 8.26575873,10.7960921 8.46104167,10.6008508 C8.46399876,10.5978943 8.46691864,10.5949009 8.46980063,10.5918712 L11.8722247,7.01505406 C11.9483541,6.93502255 12.0749476,6.93185931 12.1549791,7.00798877 C12.1570939,7.01000043 12.1591644,7.01205815 12.1611891,7.01416045 L12.8196764,7.69788049 C12.8579878,7.73766005 12.9212932,7.73885016 12.9610727,7.70053867 C12.9806451,7.68168857 12.9917036,7.65568502 12.9917036,7.62851139 L12.9917036,5.21447219 C12.9917036,5.10401524 12.9021606,5.01447219 12.7917036,5.01447219 L10.5403717,5.01447219 C10.4851432,5.01447219 10.4403717,5.05924371 10.4403717,5.11447219 C10.4403717,5.13923987 10.449563,5.16312631 10.4661656,5.18150544 L11.1820734,5.97401838 C11.251866,6.05127908 11.2507092,6.16916192 11.1794139,6.24503809 Z" id="形状" fill="currentColor" fill-rule="evenodd"></path>
                    </g>
                </g>
            </g>
        </g>
    </g>
</svg>