<?xml version="1.0" encoding="UTF-8"?>
<svg width="16px" height="16px" viewBox="0 0 16 16" version="1.1" xmlns="http://www.w3.org/2000/svg" xmlns:xlink="http://www.w3.org/1999/xlink">
    <g id="组件分类" stroke="none" stroke-width="1" fill="none" fill-rule="evenodd">
        <g id="Icon图标-Light" transform="translate(-312.000000, -310.000000)">
            <g id="方向和建议" transform="translate(120.000000, 262.000000)">
                <g id="General/Icon/最大化" transform="translate(192.000000, 48.000000)">
                    <g id="1.通用/1.Icon图标/最大化">
                        <rect id="矩形" fill-rule="nonzero" x="0" y="0" width="16" height="16"></rect>
                        <path d="M2.7085,14 L5.5,14 C5.77614063,14 6,14.2238594 6,14.5 C6,14.7761406 5.77614063,15 5.5,15 L1.5,15 C1.22385937,15 1,14.7761406 1,14.5 L1,10.5 C1,10.2238594 1.22385937,10 1.5,10 C1.77614063,10 2,10.2238594 2,10.5 L2,13.2942813 L5.51885937,9.77542188 C5.71410937,9.58017188 6.03070312,9.58017188 6.22596875,9.77542188 C6.42121875,9.9706875 6.42121875,10.2872656 6.22596875,10.4825313 L2.7085,14 Z M13.2942813,2 L10.5,2 C10.2238594,2 10,1.77614063 10,1.5 C10,1.22385937 10.2238594,1 10.5,1 L14.5,1 C14.7761406,1 15,1.22385937 15,1.5 L15,5.5 C15,5.77614063 14.7761406,6 14.5,6 C14.2238594,6 14,5.77614063 14,5.5 L14,2.7085 L10.4825313,6.22596875 C10.2872656,6.42121875 9.9706875,6.42121875 9.77542188,6.22596875 C9.58017188,6.03070312 9.58017188,5.71410937 9.77542188,5.51885937 L13.2942813,2 L13.2942813,2 Z M14,13.2928906 L14,10.5 C14,10.2238594 14.2238594,10 14.5,10 C14.7761406,10 15,10.2238594 15,10.5 L15,14.5 C15,14.7761406 14.7761406,15 14.5,15 L10.5,15 C10.2238594,15 10,14.7761406 10,14.5 C10,14.2238594 10.2238594,14 10.5,14 L13.2928906,14 L9.77542188,10.4825313 C9.58017188,10.2872656 9.58017188,9.9706875 9.77542188,9.77542188 C9.9706875,9.58017188 10.2872656,9.58017188 10.4825313,9.77542188 L14,13.2928906 Z M2,2.70710937 L2,5.5 C2,5.77614063 1.77614063,6 1.5,6 C1.22385937,6 1,5.77614063 1,5.5 L1,1.5 C1,1.22385937 1.22385937,1 1.5,1 L5.5,1 C5.77614063,1 6,1.22385937 6,1.5 C6,1.77614063 5.77614063,2 5.5,2 L2.70710937,2 L6.22596875,5.51885937 C6.42121875,5.71410937 6.42121875,6.03070312 6.22596875,6.22596875 C6.03070312,6.42121875 5.71410937,6.42121875 5.51885937,6.22596875 L2,2.70710937 Z" id="形状" fill="currentColor" fill-rule="evenodd"></path>
                    </g>
                </g>
            </g>
        </g>
    </g>
</svg>