<?xml version="1.0" encoding="UTF-8"?>
<svg width="16px" height="16px" viewBox="0 0 16 16" version="1.1" xmlns="http://www.w3.org/2000/svg" xmlns:xlink="http://www.w3.org/1999/xlink">
    <g id="组件分类" stroke="none" stroke-width="1" fill="none" fill-rule="evenodd">
        <g id="Icon图标-Light" transform="translate(-336.000000, -310.000000)">
            <g id="方向和建议" transform="translate(120.000000, 262.000000)">
                <g id="General/Icon/最小化" transform="translate(216.000000, 48.000000)">
                    <g id="1.通用/1.Icon图标/最小化">
                        <rect id="矩形" fill-rule="nonzero" x="0" y="0" width="16" height="16"></rect>
                        <path d="M4.66390625,10.6289844 L1.87240625,10.6289844 C1.59626562,10.6289844 1.37240625,10.405125 1.37240625,10.1289844 C1.37240625,9.85284375 1.59626562,9.62898438 1.87240625,9.62898438 L5.87240625,9.62898438 C6.14854687,9.62898438 6.37240625,9.85284375 6.37240625,10.1289844 L6.37240625,14.1289844 C6.37240625,14.405125 6.14854687,14.6289844 5.87240625,14.6289844 C5.59626562,14.6289844 5.37240625,14.405125 5.37240625,14.1289844 L5.37240625,11.3346875 L1.85354687,14.8535469 C1.65829687,15.0488125 1.34170312,15.0488125 1.14645312,14.8535469 C0.9511875,14.6582969 0.9511875,14.3417031 1.14645312,14.1464531 L4.66390625,10.6289844 Z M11.3346875,5.37242188 L14.1289844,5.37242188 C14.405125,5.37242188 14.6289844,5.59626563 14.6289844,5.87242188 C14.6289844,6.14854688 14.405125,6.37242188 14.1289844,6.37242188 L10.1289844,6.37242188 C9.85284375,6.37242188 9.62898438,6.14854688 9.62898438,5.87242188 L9.62898438,1.87242188 C9.62898438,1.59626563 9.85284375,1.37242188 10.1289844,1.37242188 C10.405125,1.37242188 10.6289844,1.59626563 10.6289844,1.87242188 L10.6289844,4.66390625 L14.1464531,1.14645313 C14.3417031,0.9511875 14.6582969,0.9511875 14.8535469,1.14645313 C15.0488125,1.34170313 15.0488125,1.65829688 14.8535469,1.85354688 L11.3347031,5.37240625 L11.3346875,5.37242188 Z M10.629,11.3360937 L10.629,14.1289844 C10.629,14.405125 10.4051406,14.6289844 10.129,14.6289844 C9.85285938,14.6289844 9.629,14.405125 9.629,14.1289844 L9.629,10.1289844 C9.629,9.85284375 9.85285938,9.62898438 10.129,9.62898438 L14.129,9.62898438 C14.4051406,9.62898438 14.629,9.85284375 14.629,10.1289844 C14.629,10.405125 14.4051406,10.6289844 14.129,10.6289844 L11.3360937,10.6289844 L14.8535469,14.1464531 C15.0488125,14.3417031 15.0488125,14.6582969 14.8535469,14.8535469 C14.6582969,15.0488125 14.3417031,15.0488125 14.1464531,14.8535469 L10.6289844,11.3360937 L10.629,11.3360937 Z M5.3724375,4.6653125 L5.3724375,1.87239062 C5.3724375,1.59625 5.59628125,1.37239062 5.8724375,1.37239062 C6.1485625,1.37239062 6.3724375,1.59625 6.3724375,1.87239062 L6.3724375,5.87239062 C6.3724375,6.14853125 6.1485625,6.37239062 5.8724375,6.37239062 L1.8724375,6.37239062 C1.59628125,6.37239062 1.3724375,6.14853125 1.3724375,5.87239062 C1.3724375,5.59625 1.59628125,5.37239062 1.8724375,5.37239062 L4.6653125,5.37239062 L1.14645313,1.85354687 C0.9511875,1.65829687 0.9511875,1.34170312 1.14645313,1.14645312 C1.34170313,0.9511875 1.65829688,0.9511875 1.85354688,1.14645312 L5.37240625,4.66529687 L5.3724375,4.6653125 Z" id="形状" fill="currentColor" fill-rule="evenodd"></path>
                    </g>
                </g>
            </g>
        </g>
    </g>
</svg>