<?xml version="1.0" encoding="UTF-8"?>
<svg width="16px" height="16px" viewBox="0 0 16 16" version="1.1" xmlns="http://www.w3.org/2000/svg" xmlns:xlink="http://www.w3.org/1999/xlink">
    <g id="组件分类" stroke="none" stroke-width="1" fill="none" fill-rule="evenodd">
        <g id="Icon图标-Light" transform="translate(-192.000000, -798.000000)">
            <g id="导航菜单" transform="translate(120.000000, 750.000000)">
                <g id="General/Icon/模型" transform="translate(72.000000, 48.000000)">
                    <g id="1.通用/1.Icon图标/模型">
                        <rect id="矩形" fill-rule="nonzero" x="0" y="0" width="16" height="16"></rect>
                        <path d="M1.8366242,6.0964585 C1.28502946,5.87511728 0.917533317,5.34482095 0.900512102,4.74340466 C0.88294153,4.12257781 1.25701029,3.55813477 1.83942834,3.32281582 C2.39344074,3.1023415 3.02454032,3.2313636 3.44595147,3.64830117 L6.51218181,2.05218127 C6.50450269,2.00095386 6.50096111,1.9598943 6.50096111,1.9156955 C6.50096111,1.08855212 7.17530863,0.4142046 8.00245201,0.4142046 C8.8295954,0.4142046 9.50394292,1.08855212 9.50359749,1.92400005 C9.49921113,1.97663636 9.49550057,2.01581933 9.49115309,2.05136447 L12.5589307,3.64828979 C12.9826064,3.22860734 13.6150666,3.09821493 14.1717644,3.32314397 C14.7468709,3.55788132 15.1216105,4.12668247 15.1098887,4.74793663 C15.0986291,5.34469836 14.7255227,5.87849432 14.1737544,6.10171373 L14.1737544,9.40693166 C14.722917,9.62891092 15.0929169,10.1555911 15.1098657,10.7488017 C15.1274883,11.3655932 14.7631203,11.9338736 14.194806,12.1740889 C13.6506349,12.4040994 13.021585,12.2907047 12.593292,11.891682 L9.49086274,13.8774474 C9.56697712,14.448985 9.31343297,15.0144399 8.82961307,15.3351112 C8.32531271,15.6693568 7.67411674,15.6693568 7.16981638,15.3351112 C6.68355586,15.0128223 6.42769543,14.4460885 6.50804264,13.877112 L3.40574622,11.8914316 C2.97930783,12.2848761 2.36634702,12.3988245 1.82234246,12.1801003 C1.25919045,11.9513198 0.889522928,11.4001489 0.889522928,10.7899797 C0.889522928,10.1796668 1.2647182,9.63469918 1.8366242,9.40174146 L1.8366242,6.0964585 Z M2.39101383,11.260793 C2.6483188,11.260793 2.85635261,11.0472847 2.85635261,10.7954543 C2.85635261,10.5381493 2.6483188,10.3301155 2.39101383,10.3301155 C2.13370886,10.3301155 1.92567505,10.5381493 1.92567505,10.7954543 C1.92567505,11.0527592 2.13370886,11.260793 2.39101383,11.260793 Z M2.85635261,9.47608197 C3.41475914,9.67316663 3.79250473,10.1987257 3.79250473,10.7899797 C3.79250473,10.8283017 3.78703016,10.8666237 3.78155558,10.9049457 L7.07724903,13.0181312 C7.20863881,12.9031652 7.36192687,12.8100974 7.53163866,12.7498771 L7.53163866,9.30637018 C6.88016438,9.08738723 6.49146963,8.41948922 6.62285941,7.74064206 L3.31621681,5.76432091 C3.17935246,5.87928696 3.0260644,5.97235472 2.85635261,6.03257503 L2.85635261,9.47608197 Z M8.46231622,7.98699789 C8.46231622,7.72969292 8.25428241,7.52165911 7.99697744,7.52165911 C7.73967247,7.52165911 7.53163866,7.72969292 7.53163866,7.98699789 C7.53163866,8.24430286 7.73967247,8.45233666 7.99697744,8.45233666 C8.25428241,8.45233666 8.46231622,8.24430286 8.46231622,7.98699789 Z M7.99697744,14.5291136 C8.25428241,14.5291136 8.46231622,14.3210798 8.46231622,14.0637748 C8.46231622,13.8064699 8.25428241,13.5984361 7.99697744,13.5984361 C7.73967247,13.5984361 7.53163866,13.8064699 7.53163866,14.0637748 C7.53163866,14.3210798 7.73967247,14.5291136 7.99697744,14.5291136 Z M8.92218042,13.0181312 L12.2178739,10.9049457 C12.2178739,10.8666237 12.2069247,10.8283017 12.2069247,10.7899797 C12.2123993,10.1987257 12.5846703,9.67316663 13.1430768,9.47608197 L13.1430768,6.03257503 C12.9733651,5.97235472 12.8146024,5.88476153 12.6832126,5.76432091 L9.37657005,7.74064206 C9.50795982,8.41401465 9.11926508,9.08738723 8.46779079,9.30637018 L8.46779079,12.7498771 C8.632028,12.8100974 8.79079065,12.8976906 8.92218042,13.0181312 Z M13.602941,11.260793 C13.860246,11.260793 14.0682798,11.0472847 14.0682798,10.7954543 C14.0682798,10.5381493 13.860246,10.3301155 13.602941,10.3301155 C13.3456361,10.3301155 13.1376023,10.5381493 13.1376023,10.7954543 C13.1376023,11.0527592 13.3456361,11.260793 13.602941,11.260793 Z M13.602941,4.25333853 C13.3456361,4.25333853 13.1376023,4.46137234 13.1376023,4.71867731 C13.1376023,4.97598228 13.3456361,5.18401608 13.602941,5.18401608 C13.860246,5.18401608 14.0682798,4.97598228 14.0682798,4.71867731 C14.0682798,4.46137234 13.860246,4.25333853 13.602941,4.25333853 Z M7.99697744,1.45035673 C7.73967247,1.45035673 7.53163866,1.65839053 7.53163866,1.9156955 C7.53163866,2.17300047 7.73967247,2.38103428 7.99697744,2.38103428 C8.25428241,2.38103428 8.46231622,2.17300047 8.46231622,1.9156955 C8.46231622,1.65839053 8.25428241,1.45035673 7.99697744,1.45035673 Z M7.04440159,2.93944081 L3.78703016,4.6365587 C3.79250473,4.66393157 3.79797931,4.69130444 3.79797931,4.71867731 C3.79797931,4.79532134 3.79250473,4.87196537 3.77608101,4.94860941 L7.09367276,6.93040514 C7.6082827,6.47601551 8.38567218,6.47601551 8.9057567,6.93040514 L12.2233484,4.94860941 C12.2123993,4.87196537 12.2014501,4.79532134 12.2014501,4.71867731 C12.2014501,4.69130444 12.2123993,4.66393157 12.2123993,4.6365587 L8.94955329,2.93944081 C8.41304505,3.4431016 7.58090983,3.4431016 7.04440159,2.93944081 Z M2.39101383,4.25333853 C2.13370886,4.25333853 1.92567505,4.46137234 1.92567505,4.71867731 C1.92567505,4.97598228 2.13370886,5.18401608 2.39101383,5.18401608 C2.6483188,5.18401608 2.85635261,4.97598228 2.85635261,4.71867731 C2.85635261,4.46137234 2.6483188,4.25333853 2.39101383,4.25333853 Z" id="形状" fill="currentColor" fill-rule="evenodd"></path>
                    </g>
                </g>
            </g>
        </g>
    </g>
</svg>