<?xml version="1.0" encoding="UTF-8"?>
<svg width="16px" height="16px" viewBox="0 0 16 16" version="1.1" xmlns="http://www.w3.org/2000/svg" xmlns:xlink="http://www.w3.org/1999/xlink">
    <g id="组件分类" stroke="none" stroke-width="1" fill="none" fill-rule="evenodd">
        <g id="Icon图标-Light" transform="translate(-624.000000, -414.000000)">
            <g id="业务相关" transform="translate(120.000000, 366.000000)">
                <g id="General/Icon/负面公告" transform="translate(504.000000, 48.000000)">
                    <g id="1.通用/1.Icon图标/负面公告">
                        <rect id="矩形" x="0" y="0" width="16" height="16"></rect>
                        <path d="M13.4447969,4.0051894 L11.23375,4.0051894 C9.2917235,2.06778765 8.31435371,1.09484494 8.30164062,1.08636128 C8.26206771,1.06375711 8.23983333,1.05133003 8.2349375,1.04908003 C8.09201562,0.98358003 7.92379687,0.99123628 7.78684375,1.07217378 C7.7517072,1.09295594 7.71933195,1.11808653 7.69048437,1.14697065 L4.83226562,4.0051894 L2.578125,4.0051894 C1.70654687,4.0051894 1,4.71173628 1,5.5833144 L1,13.4167675 C1,14.28833 1.70654687,14.9948925 2.578125,14.9948925 L13.4448125,14.9948925 C14.316375,14.9948925 15.0229375,14.28833 15.0229375,13.4167675 L15.0229375,5.5833144 C15.0229375,4.71173628 14.316375,4.0051894 13.4447969,4.0051894 Z M8.03301562,2.17451753 L9.8636875,4.0051894 L6.20234375,4.0051894 L8.03301562,2.17451753 Z M14.0201094,13.2750175 C14.0201094,13.6547207 13.7123125,13.9625175 13.3326094,13.9625175 L2.70489062,13.9625175 C2.3251875,13.9625175 2.01739062,13.6547207 2.01739062,13.2750175 L2.01739062,5.67779878 C2.01739062,5.29809565 2.3251875,4.99029878 2.70489062,4.99029878 L3.84715625,4.99029878 L3.164125,5.67333003 C2.97495312,5.8625019 2.97495312,6.1691894 3.164125,6.35836128 C3.35329687,6.54753315 3.66,6.54753315 3.84917187,6.35836128 L5.21723437,4.99029878 L10.8487813,4.99029878 L12.2168594,6.3583769 C12.4060156,6.54753315 12.7127188,6.54753315 12.9018906,6.3583769 C13.0910625,6.16920503 13.0910625,5.8625019 12.9019062,5.67334565 L12.218875,4.99029878 L13.3326094,4.99029878 C13.7123125,4.99029878 14.0201094,5.29809565 14.0201094,5.67779878 L14.0201094,13.2750175 Z M11.5341406,8.00592378 L4.51851563,8.00592378 C4.24217188,8.00592378 4.01815625,8.2299394 4.01815625,8.50628315 C4.01815625,8.7826269 4.24217187,9.0066269 4.51851563,9.0066269 L11.5341406,9.0066269 C11.8105,9.0066269 12.0345,8.78261128 12.0345,8.50628315 C12.0345,8.2299394 11.8105,8.00592378 11.5341406,8.00592378 Z M11.5341406,11.00208 L4.51851563,11.00208 C4.24217188,11.00208 4.01815625,11.2260957 4.01815625,11.5024394 C4.01815625,11.7787832 4.24217187,12.0027832 4.51851563,12.0027832 L11.5341406,12.0027832 C11.8105,12.0027832 12.0345,11.7787675 12.0345,11.5024394 C12.0345,11.2260957 11.8105,11.00208 11.5341406,11.00208 Z" id="形状" fill="currentColor" fill-rule="evenodd"></path>
                    </g>
                </g>
            </g>
        </g>
    </g>
</svg>