<?xml version="1.0" encoding="UTF-8"?>
<svg width="16px" height="16px" viewBox="0 0 16 16" version="1.1" xmlns="http://www.w3.org/2000/svg" xmlns:xlink="http://www.w3.org/1999/xlink">
    <g id="组件分类" stroke="none" stroke-width="1" fill="none" fill-rule="evenodd">
        <g id="Icon图标-Light" transform="translate(-432.000000, -414.000000)">
            <g id="业务相关" transform="translate(120.000000, 366.000000)">
                <g id="General/Icon/负面舆情" transform="translate(312.000000, 48.000000)">
                    <g id="1.通用/1.Icon图标/负面舆情">
                        <rect id="矩形" x="0" y="0" width="16" height="16"></rect>
                        <path d="M13.4351422,2 L2.56485782,2 C1.70182582,2 1,2.72148137 1,3.60664482 L1,12.3924408 C1,13.2794331 1.70271646,14 2.56485782,14 L13.4351422,14 C14.2981742,14 15,13.2794331 15,12.3924408 L15,3.60755925 C14.9991094,2.72148137 14.2972835,2 13.4351422,2 Z M13.9991253,12.3185292 C13.9991253,12.6943271 13.7017275,13 13.3369779,13 L2.66214739,13 C2.29739777,13 2,12.6943271 2,12.3185292 L2,3.68057179 C2,3.30567293 2.29739777,3 2.66214739,3 L13.3378526,3 C13.7026022,3 14,3.30567293 14,3.68057179 L14,12.3185292 L13.9991253,12.3185292 Z M3.5,4 L12.5,4 C12.7761424,4 13,4.22385763 13,4.5 C13,4.77614237 12.7761424,5 12.5,5 L3.5,5 C3.22385763,5 3,4.77614237 3,4.5 C3,4.22385763 3.22385763,4 3.5,4 Z M8.5,6 L11.5,6 C11.7761424,6 12,6.22385763 12,6.5 C12,6.77614237 11.7761424,7 11.5,7 L8.5,7 C8.22385763,7 8,6.77614237 8,6.5 C8,6.22385763 8.22385763,6 8.5,6 Z M8.5,8.5 L11.5,8.5 C11.7761424,8.5 12,8.72385763 12,9 C12,9.27614237 11.7761424,9.5 11.5,9.5 L8.5,9.5 C8.22385763,9.5 8,9.27614237 8,9 C8,8.72385763 8.22385763,8.5 8.5,8.5 Z M8.5,11 L11.5,11 C11.7761424,11 12,11.2238576 12,11.5 C12,11.7761424 11.7761424,12 11.5,12 L8.5,12 C8.22385763,12 8,11.7761424 8,11.5 C8,11.2238576 8.22385763,11 8.5,11 Z M7,6.5 L7,11.5 C7,11.7761424 6.77614237,12 6.5,12 L3.5,12 C3.22385763,12 3,11.7761424 3,11.5 L3,6.5 C3,6.22385763 3.22385763,6 3.5,6 L6.5,6 C6.77614237,6 7,6.22385763 7,6.5 Z" id="形状" fill="currentColor" fill-rule="evenodd"></path>
                    </g>
                </g>
            </g>
        </g>
    </g>
</svg>