<?xml version="1.0" encoding="UTF-8"?>
<svg width="16px" height="16px" viewBox="0 0 16 16" version="1.1" xmlns="http://www.w3.org/2000/svg" xmlns:xlink="http://www.w3.org/1999/xlink">
    <g id="组件分类" stroke="none" stroke-width="1" fill="none" fill-rule="evenodd">
        <g id="Icon图标-Light" transform="translate(-216.000000, -414.000000)">
            <g id="业务相关" transform="translate(120.000000, 366.000000)">
                <g id="General/Icon/非标" transform="translate(96.000000, 48.000000)">
                    <g id="1.通用/1.Icon图标/非标">
                        <rect id="矩形" x="0" y="0" width="16" height="16"></rect>
                        <path d="M14,2.5 C14.5522847,2.5 15,2.94771525 15,3.5 L15,12.5 C15,13.0522847 14.5522847,13.5 14,13.5 L2,13.5 C1.44771525,13.5 1,13.0522847 1,12.5 L1,3.5 C1,2.94771525 1.44771525,2.5 2,2.5 L14,2.5 Z M2.00056176,10.7903755 L2,12.5 L3.80129405,12.5006704 C3.67257891,11.5877709 2.92752481,10.8728626 2.00056176,10.7903755 Z M11.1902475,3.50103568 L4.80975252,3.50103568 C4.68237603,4.97659257 3.48687339,6.14670996 2.00029208,6.23434035 L2.00029208,9.78769297 C3.47983589,9.87490851 4.67105046,11.0343863 4.80787178,12.5000623 L11.1921282,12.5000623 C11.3289807,11.0340524 12.5207069,9.87438025 14.0007191,9.78763353 L14.0007191,6.23439979 C12.5136688,6.14724055 11.3176528,4.97692713 11.1902475,3.50103568 Z M12.1987059,12.5006704 L14,12.5 L14.0004466,10.790286 C13.1275703,10.8675172 12.4158086,11.5055014 12.2277427,12.3416574 L12.1987059,12.5006704 Z M7.322,5.222 C7.47253704,5.222 7.59864324,5.3266009 7.63160139,5.46708552 L7.64,5.54 L7.64,10.46 C7.64,10.6356266 7.49762655,10.778 7.322,10.778 C7.17146296,10.778 7.04535676,10.6733991 7.01239861,10.5329145 L7.004,10.46 L7.004,9.422 L5.567,9.422 C5.40297143,9.422 5.27,9.28902857 5.27,9.125 C5.27,8.98440408 5.36769329,8.86662566 5.49890062,8.83584398 L5.567,8.828 L7.004,8.828 L7.004,8.054 L5.846,8.054 C5.68031458,8.054 5.546,7.91968542 5.546,7.754 C5.546,7.61198392 5.6446801,7.49301581 5.77721275,7.46192321 L5.846,7.454 L7.004,7.454 L7.004,6.704 L5.705,6.704 C5.54097143,6.704 5.408,6.57102857 5.408,6.407 C5.408,6.26640408 5.50569329,6.14862566 5.63690062,6.11784398 L5.705,6.11 L7.004,6.11 L7.004,5.54 C7.004,5.36437345 7.14637345,5.222 7.322,5.222 Z M8.726,5.222 C8.87653704,5.222 9.00264324,5.3266009 9.03560139,5.46708552 L9.044,5.54 L9.044,6.11 L10.337,6.11 C10.5010286,6.11 10.634,6.24297143 10.634,6.407 C10.634,6.54759592 10.5363067,6.66537434 10.4050994,6.69615602 L10.337,6.704 L9.044,6.704 L9.044,7.454 L10.202,7.454 C10.3676854,7.454 10.502,7.58831458 10.502,7.754 C10.502,7.89601608 10.4033199,8.01498419 10.2707872,8.04607679 L10.202,8.054 L9.044,8.054 L9.044,8.828 L10.433,8.828 C10.5970286,8.828 10.73,8.96097143 10.73,9.125 C10.73,9.26559592 10.6323067,9.38337434 10.5010994,9.41415602 L10.433,9.422 L9.044,9.422 L9.044,10.46 C9.044,10.6356266 8.90162655,10.778 8.726,10.778 C8.57546296,10.778 8.44935676,10.6733991 8.41639861,10.5329145 L8.408,10.46 L8.408,5.54 C8.408,5.36437345 8.55037345,5.222 8.726,5.222 Z M3.80410841,3.50061725 L2,3.5 L2.00056176,5.23165784 C2.93453513,5.14854688 3.68383771,4.42341299 3.80410841,3.50061725 Z M14,3.5 L12.1958916,3.50061725 C12.3162056,4.42374508 13.0660043,5.14906877 14.0004466,5.23174731 L14,3.5 Z" id="形状" fill="currentColor" fill-rule="evenodd"></path>
                    </g>
                </g>
            </g>
        </g>
    </g>
</svg>