<?xml version="1.0" encoding="UTF-8"?>
<svg width="16px" height="16px" viewBox="0 0 16 16" version="1.1" xmlns="http://www.w3.org/2000/svg" xmlns:xlink="http://www.w3.org/1999/xlink">
    <g id="组件分类" stroke="none" stroke-width="1" fill="none" fill-rule="evenodd">
        <g id="Icon图标-Light" transform="translate(-864.000000, -414.000000)">
            <g id="业务相关" transform="translate(120.000000, 366.000000)">
                <g id="General/Icon/权限" transform="translate(744.000000, 48.000000)">
                    <g id="1.通用/1.Icon图标/权限">
                        <rect id="矩形" x="0" y="0" width="16" height="16"></rect>
                        <path d="M7.98947103,1.5 L2.5925632,3.14379012 C2.41553759,3.20466934 2.29521082,3.38274306 2.29505841,3.58407275 C2.2860001,5.7473304 2.29412429,7.80901619 2.31943098,9.76913012 C2.40820953,10.8499415 2.92576559,11.4076123 3.49521696,11.9887207 C4.23898489,12.783985 6.74349181,13.8236187 7.52227151,14.267191 C7.64462228,14.3370882 7.7360075,14.3888209 7.78829904,14.4201959 L7.87714942,14.4724705 C7.93755954,14.5081739 8.01034245,14.5092072 8.07159444,14.4752313 L8.2010499,14.4036828 C8.65796414,14.1615325 11.6503508,12.9083628 12.5103645,11.9892754 C13.0806941,11.4088324 13.5878775,10.8220511 13.6810927,9.84288469 L13.7085175,3.58683355 C13.7094709,3.38448243 13.5889236,3.20497074 13.4109951,3.14379012 L7.98947103,1.5 Z M11.6964565,11.410295 C11.0146435,12.1395195 8.7534075,13.0669932 8.0817457,13.434076 C8.02177148,13.4679463 7.95032149,13.4679463 7.89034726,13.434076 C7.20547573,13.0444295 4.95168539,12.1230064 4.28865158,11.4135976 C3.84003799,10.9520324 3.42901998,10.4719566 3.33775252,9.7267506 L3.31384484,3.99574114 C3.31370354,3.90636569 3.36688072,3.82712947 3.44538216,3.79981485 L7.87461458,2.42393163 C7.95722698,2.39571786 8.04584343,2.39571786 8.12845583,2.42393163 L12.5346444,3.79981485 C12.6135507,3.8267365 12.6671583,3.90606615 12.6671583,3.99574114 L12.644309,9.72346086 C12.5386372,10.4117071 12.1443737,10.9482229 11.6964565,11.410295 Z M9.41976913,5.15643699 C9.77347346,5.50477158 9.97197823,5.98072775 9.97054163,6.47699007 C9.96907355,6.97325238 9.76778638,7.44804009 9.41204928,7.7943012 C9.17053053,8.0286527 8.87066838,8.19416162 8.54356574,8.27366072 L8.53806631,9.05461797 L9.32117963,9.05461797 C9.44585882,9.053591 9.56580826,9.10225498 9.6544885,9.18984277 C9.74316873,9.27743055 9.79326902,9.39672144 9.79370439,9.52132169 C9.79330641,9.64569204 9.74289885,9.76468235 9.65381754,9.85153366 C9.56446042,9.93953023 9.44388113,9.98860204 9.31842992,9.9880254 L8.53530369,9.9880254 L8.53199887,11.2912635 C8.53160429,11.415632 8.4812015,11.534622 8.39212493,11.6214755 C8.30276781,11.7094721 8.18218852,11.7585439 8.05673731,11.7579986 C7.93205812,11.7589942 7.81210868,11.7103302 7.72342844,11.6227425 C7.63474821,11.5351547 7.58464792,11.4158638 7.58421255,11.2912635 L7.59577942,8.27089992 C7.26950251,8.19022459 6.97077277,8.02376456 6.73058779,7.78879251 C6.37574514,7.44039005 6.17637067,6.96378418 6.17750274,6.46666259 C6.17865423,5.969541 6.38021592,5.49385478 6.73665524,5.14708383 C7.09461632,4.79548439 7.57740907,4.59996396 8.07931594,4.60333581 C8.58294448,4.60509229 9.06427062,4.80303566 9.41976913,5.15643699 Z M8.77652652,5.79486281 C8.40514633,5.43059516 7.81065737,5.42934992 7.43775242,5.79205857 C7.25880655,5.96369586 7.15750373,6.20074604 7.15716654,6.44861406 C7.15642101,6.69676748 7.25569653,6.93476937 7.43260059,7.10891586 C7.6101442,7.28481484 7.85036182,7.38298991 8.10036536,7.38182614 C8.61570979,7.3767953 9.03523015,6.9662052 9.05100941,6.45141831 C9.05341224,6.20620546 8.95400687,5.96823227 8.77652652,5.79486281 Z" id="形状" fill="currentColor" fill-rule="evenodd"></path>
                    </g>
                </g>
            </g>
        </g>
    </g>
</svg>