<?xml version="1.0" encoding="UTF-8"?>
<svg width="88px" height="88px" viewBox="0 0 88 88" version="1.1" xmlns="http://www.w3.org/2000/svg" xmlns:xlink="http://www.w3.org/1999/xlink">
    <g id="组件分类" stroke="none" stroke-width="1" fill="none" fill-rule="evenodd">
        <g id="Icon图标-Light" transform="translate(-120.000000, -622.000000)">
            <g id="其他" transform="translate(120.000000, 574.000000)">
                <g id="General/Icon/个人默认" transform="translate(0.000000, 48.000000)">
                    <g id="1.通用/1.Icon图标/其他/个人默认">
                        <g id="logo">
                            <rect id="Rectangle-2" stroke="#ADB8D1" fill="#C4CCDF" x="0.5" y="0.5" width="87" height="87" rx="4"></rect>
                            <g id="企业" transform="translate(18.000000, 18.000000)">
                                <rect id="矩形" fill="#000000" fill-rule="nonzero" opacity="0" x="0" y="0" width="52" height="52"></rect>
                                <g id="个人-(1)" transform="translate(4.000000, 3.000000)">
                                    <path d="M39.7161368,30.0058524 C36.6924927,28.8577608 33.5245792,28.0086514 30.2484638,27.4824427 C29.6473417,27.3449109 29.1904889,26.8127226 29.1904889,26.1729008 C29.1904889,25.8380407 29.3167246,25.5270992 29.5211061,25.2938931 C29.5150948,25.3058524 29.4970612,25.3058524 29.4850387,25.3178117 C30.4227892,24.2115776 31.234304,22.9319338 31.8955383,21.5446565 C32.731098,21.1858779 33.5486241,20.4743003 34.1377238,19.487659 C35.2497996,17.6220102 35.1115415,15.5351145 33.8251403,14.8175573 C33.7830617,14.7936387 33.7409832,14.787659 33.6989046,14.7697201 C33.7049158,14.703944 33.7049158,14.6321883 33.7049158,14.5664122 L33.7650281,14.5664122 L33.7650281,8.95750636 C33.7650281,5.24414758 30.7353727,2.23040712 27.0084157,2.23040712 C26.9843708,2.23040712 26.9663372,2.23638677 26.9422923,2.23638677 C25.2771841,0.837150127 23.1371894,0 20.7988245,0 C15.7073203,0 11.5595779,3.95852417 11.2650281,8.94554707 L11.2349719,8.94554707 L11.2349719,14.5484733 L11.2950842,14.5484733 C11.3010954,14.6142494 11.3010954,14.6860051 11.3010954,14.7517812 C11.2590168,14.7697201 11.2169383,14.7756997 11.1748597,14.7996183 C9.89446968,15.5171756 9.75621159,17.6100509 10.8622762,19.4697201 C11.4513759,20.4563613 12.268902,21.1679389 13.1044617,21.5267176 C13.765696,22.9139949 14.5772108,24.1936387 15.5149613,25.2998728 C15.5029388,25.2938931 15.4849052,25.2879135 15.4788939,25.2759542 C15.6832754,25.5151399 15.8095111,25.8201018 15.8095111,26.1549618 C15.8095111,26.8007634 15.3526583,27.326972 14.7515362,27.4645038 C11.4874432,27.9907125 8.33155223,28.8338422 5.31391932,29.9759542 C2.19409565,31.3512723 0,34.4547074 0,38.0903308 L0,45 L45,45 L45,38.1082697 C45,34.4846056 42.823938,31.3931298 39.7161368,30.0058524 Z" id="路径" fill="#FFFFFF" fill-rule="nonzero"></path>
                                    <path d="M22.4141333,30 L21,32.5733799 L21,41.9632381 C22.2040411,42.012254 23.2040411,42.012254 24,41.9632381 C24,40.2393439 24,37.1093911 24,32.5733799 L22.4141333,30 Z" id="路径-3" stroke="#C4CCDF" fill="#C4CCDF" stroke-linejoin="round"></path>
                                </g>
                            </g>
                        </g>
                    </g>
                </g>
            </g>
        </g>
    </g>
</svg>