<?xml version="1.0" encoding="UTF-8"?>
<svg width="16px" height="16px" viewBox="0 0 16 16" version="1.1" xmlns="http://www.w3.org/2000/svg" xmlns:xlink="http://www.w3.org/1999/xlink">
    <g id="组件分类" stroke="none" stroke-width="1" fill="none" fill-rule="evenodd">
        <g id="Icon图标-Light" transform="translate(-144.000000, -414.000000)">
            <g id="业务相关" transform="translate(120.000000, 366.000000)">
                <g id="General/Icon/持仓" transform="translate(24.000000, 48.000000)">
                    <g id="1.通用/1.Icon图标/持仓">
                        <rect id="矩形" x="0" y="0" width="16" height="16"></rect>
                        <path d="M14.8229609,6.13186814 L8.90717502,1.3122172 C8.39788558,0.895927601 7.60008239,0.895927601 7.09079294,1.3122172 L1.1775159,6.13186814 C0.974301885,6.29734971 0.941687296,6.59987072 1.09974264,6.80672269 C1.25779799,7.01357467 1.54631172,7.04977376 1.74952574,6.88687783 L2.01686498,6.73173884 L2.01686498,13.5572075 C2.01686498,14.4961743 2.7781399,15 3.51824034,15 L12.8510323,15 C13.5836062,15 13.9966495,14.5159591 13.9966495,13.5572075 L13.9966495,6.75242406 L14.2358982,6.88687784 C14.3211979,6.95669038 14.4265681,6.99030382 14.5294295,6.99030382 C14.6674143,6.99030382 14.8053992,6.92824823 14.8982253,6.80672269 C15.0587895,6.59987072 15.0261749,6.29734971 14.8229609,6.13186814 Z M12.7262952,14 C6.71117697,14 3.60830993,14 3.41769409,14 C3.13177034,14 3,13.8505579 3,13.6322784 L3,5.94304174 L7.67008798,2.06793961 C7.83870968,1.92926796 8.14173997,1.92926796 8.30791789,2.06793961 L12.9975562,5.96615368 L12.9975562,13.5223532 C13,13.8382164 12.916911,14 12.7262952,14 Z M10.3128408,9.38479343 C10.5568721,9.37965281 10.7520439,9.18044968 10.7520439,8.93637156 C10.7520439,8.69226218 10.5568721,8.49298093 10.3128408,8.48791843 L8.84544075,8.48791843 L10.7440501,6.58932468 C10.9149876,6.41352781 10.9130189,6.13305906 10.7397376,5.95974656 C10.5663157,5.78637156 10.2858001,5.78446531 10.1101282,5.95535593 L7.99869075,8.06668406 L5.887597,5.95535593 C5.71181575,5.78444968 5.43133137,5.78637156 5.25798762,5.95974656 C5.08462825,6.13307468 5.0826595,6.41352781 5.25361262,6.58932468 L7.15225325,8.48791843 L5.72673145,8.48791843 C5.47902832,8.48791843 5.27830957,8.68866843 5.27830957,8.93637156 C5.27830957,9.18398093 5.47902832,9.38479343 5.72673145,9.38479343 L7.55042512,9.38479343 L7.55042512,10.2808559 L5.72673145,10.2808559 C5.47902832,10.2808559 5.27816895,10.4816841 5.27816895,10.7293872 C5.27816895,10.9770747 5.47902832,11.1779028 5.72673145,11.1779028 L7.55042512,11.1779028 L7.55042512,12.3733247 C7.55042512,12.6208403 7.75106575,12.8215278 7.99861262,12.8215278 C8.24619075,12.8215278 8.44687825,12.6208403 8.44687825,12.3733247 L8.44687825,11.1779028 L10.3128252,11.1779028 C10.4317791,11.1779074 10.5458651,11.1306689 10.6299971,11.0465747 C10.714117,10.9623857 10.7612982,10.8481963 10.7611377,10.7291841 C10.7612322,10.6102613 10.7140031,10.4961884 10.6298721,10.4121372 C10.5458273,10.3280043 10.4317604,10.2807697 10.3128408,10.2808559 L8.44689387,10.2808559 L8.44689387,9.38479343 L10.3128408,9.38479343 Z" id="形状" fill="currentColor" fill-rule="evenodd"></path>
                    </g>
                </g>
            </g>
        </g>
    </g>
</svg>