<?xml version="1.0" encoding="UTF-8"?>
<svg width="16px" height="16px" viewBox="0 0 16 16" version="1.1" xmlns="http://www.w3.org/2000/svg" xmlns:xlink="http://www.w3.org/1999/xlink">
    <g id="组件分类" stroke="none" stroke-width="1" fill="none" fill-rule="evenodd">
        <g id="Icon图标-Light" transform="translate(-960.000000, -414.000000)">
            <g id="业务相关" transform="translate(120.000000, 366.000000)">
                <g id="General/Icon/私密" transform="translate(840.000000, 48.000000)">
                    <g id="1.通用/1.Icon图标/私密">
                        <rect id="矩形" x="0" y="0" width="16" height="16"></rect>
                        <path d="M11.3,6 L11.3,5.05660377 C11.3,3.35849057 9.8,1.94339623 8,1.94339623 C6.2,1.94339623 4.7,3.35849057 4.7,5.05660377 L4.7,5.05660377 L4.7,6 L3.7,6 L3.7,5.05660377 C3.7,2.88679245 5.6,1 8,1 C10.4,1 12.3,2.88679245 12.3,5.05660377 L12.3,5.05660377 L12.3,6 L12,6 C13.05,6 13.9177686,6.82004132 13.9944872,7.85130541 L14,8 L14,13 C14,14.05 13.1799587,14.9177686 12.1486946,14.9944872 L12,15 L4,15 C2.95,15 2.0822314,14.1799587 2.00551277,13.1486946 L2,13 L2,8 C2,6.95 2.82004132,6.0822314 3.85130541,6.00551277 L4,6 L11.3,6 Z M8,8.5 C7.25768183,8.5 6.65591406,8.83647829 6.65591406,9.2515453 C6.65591406,9.56775666 7.00517291,9.83835606 7.49975953,9.9493155 L7.5,11.6730657 C7.5,11.949208 7.72385763,12.1730657 8,12.1730657 C8.24545989,12.1730657 8.44960837,11.9961905 8.49194433,11.7629413 L8.5,11.6730657 L8.50123143,9.94909292 C8.99529355,9.83799452 9.34408594,9.56754543 9.34408594,9.2515453 C9.34408594,8.86414943 8.81987935,8.54521306 8.14645297,8.50440997 L8,8.5 Z" id="形状结合" fill="currentColor" fill-rule="evenodd"></path>
                    </g>
                </g>
            </g>
        </g>
    </g>
</svg>