<?xml version="1.0" encoding="UTF-8"?>
<svg width="16px" height="16px" viewBox="0 0 16 16" version="1.1" xmlns="http://www.w3.org/2000/svg" xmlns:xlink="http://www.w3.org/1999/xlink">
    <g id="组件分类" stroke="none" stroke-width="1" fill="none" fill-rule="evenodd">
        <g id="Icon图标-Light" transform="translate(-720.000000, -414.000000)">
            <g id="业务相关" transform="translate(120.000000, 366.000000)">
                <g id="General/Icon/产品" transform="translate(600.000000, 48.000000)">
                    <g id="1.通用/1.Icon图标/产品">
                        <rect id="矩形" x="0" y="0" width="16" height="16"></rect>
                        <path d="M12.5,5 L11.5,5 L11.5,4.5 C11.5,2.57 9.93,1 8,1 C6.07,1 4.5,2.57 4.5,4.5 L4.5,5 L3.5,5 C2.4,5 1.5,5.9 1.5,7 L1.5,13 C1.5,14.1 2.4,15 3.5,15 L12.5,15 C13.6,15 14.5,14.1 14.5,13 L14.5,7 C14.5,5.9 13.6,5 12.5,5 Z M5.5,4.5 C5.5,3.12 6.62,2 8,2 C9.38,2 10.5,3.12 10.5,4.5 L10.5,5 L5.5,5 L5.5,4.5 Z M13.5,13 C13.5,13.55 13.05,14 12.5,14 L3.5,14 C2.95,14 2.5,13.55 2.5,13 L2.5,7 C2.5,6.45 2.95,6 3.5,6 L4.5,6 L4.5,7.5 C4.5,7.78 4.72,8 5,8 C5.28,8 5.5,7.78 5.5,7.5 L5.5,6 L10.5,6 L10.5,7.5 C10.5,7.78 10.72,8 11,8 C11.28,8 11.5,7.78 11.5,7.5 L11.5,6 L12.5,6 C13.05,6 13.5,6.45 13.5,7 L13.5,13 Z" id="形状" fill="currentColor" fill-rule="evenodd"></path>
                    </g>
                </g>
            </g>
        </g>
    </g>
</svg>