<?xml version="1.0" encoding="UTF-8"?>
<svg width="16px" height="16px" viewBox="0 0 16 16" version="1.1" xmlns="http://www.w3.org/2000/svg" xmlns:xlink="http://www.w3.org/1999/xlink">
    <g id="组件分类" stroke="none" stroke-width="1" fill="none" fill-rule="evenodd">
        <g id="Icon图标-Light" transform="translate(-792.000000, -414.000000)">
            <g id="业务相关" transform="translate(120.000000, 366.000000)">
                <g id="General/Icon/发布" transform="translate(672.000000, 48.000000)">
                    <g id="1.通用/1.Icon图标/发布">
                        <rect id="矩形" x="0" y="0" width="16" height="16"></rect>
                        <path d="M14.9999983,1.574 C14.9989027,1.25744417 14.7425558,1.00109726 14.426,0.999998414 C14.3249312,0.999758604 14.2257082,1.02707085 14.139,1.079 L1.309,7.849 C1.11838109,7.95049473 0.999481684,8.14904519 0.999998312,8.365 C1.00141029,8.58054012 1.12345335,8.77712214 1.316,8.874 L4.646,10.696 C4.72760187,10.7312056 4.81516138,10.7505502 4.904,10.753 C5.12222413,10.7539086 5.3222896,10.6316249 5.421,10.437 C5.55663137,10.1512724 5.44282759,9.80941997 5.163,9.662 L2.838,8.35 L12.152,3.416 L6.297,10.531 C6.21252375,10.6373551 6.16480484,10.7682312 6.161,10.904 L6.161,14.427 C6.161,14.7440114 6.41798855,15.001 6.735,15.001 C7.05201145,15.001 7.309,14.7440114 7.309,14.427 L7.309,11.121 L13.545,3.533 L12.339,13.187 L8.839,11.516 C8.76204698,11.474599 8.6752867,11.4548965 8.588,11.459 C8.36780222,11.4579721 8.16663621,11.5836522 8.071,11.782 C8.00448938,11.9182511 7.994077,12.0751549 8.042,12.219 C8.0877253,12.3640621 8.19168282,12.4835951 8.329,12.549 L12.556,14.543 C12.632953,14.584401 12.7197133,14.6041035 12.807,14.6 C12.8994916,14.5991262 12.9905288,14.5768802 13.073,14.535 C13.2364257,14.4518547 13.3485735,14.2937263 13.373,14.112 L15.002,1.647 L15.002,1.575 L14.9999983,1.574 Z" id="发布" fill="currentColor" fill-rule="evenodd"></path>
                    </g>
                </g>
            </g>
        </g>
    </g>
</svg>