<?xml version="1.0" encoding="UTF-8"?>
<svg width="16px" height="16px" viewBox="0 0 16 16" version="1.1" xmlns="http://www.w3.org/2000/svg" xmlns:xlink="http://www.w3.org/1999/xlink">
    <g id="组件分类" stroke="none" stroke-width="1" fill="none" fill-rule="evenodd">
        <g id="Icon图标-Light" transform="translate(-528.000000, -414.000000)">
            <g id="业务相关" transform="translate(120.000000, 366.000000)">
                <g id="General/Icon/发起评级" transform="translate(408.000000, 48.000000)">
                    <g id="1.通用/1.Icon图标/发起评级">
                        <rect id="Rectangle-35-Copy-10" x="0" y="0" width="16" height="16"></rect>
                        <path d="M8.00034289,1 C8.24849636,1 8.49040698,1.067195 8.70110332,1.1953343 C8.93052823,1.33441232 9.11157101,1.53599732 9.2255031,1.77977453 L10.6551168,4.82698962 L13.8498976,5.31766938 C14.3540081,5.39424043 14.7675973,5.74271682 14.9299115,6.22714589 C15.090665,6.71157495 14.97049,7.23819623 14.6146473,7.60386204 L12.2626519,10.018194 L12.8182659,13.4248242 C12.8822552,13.8186181 12.7714445,14.2171001 12.5139268,14.520259 C12.2548483,14.8249805 11.8787163,15 11.4807343,15 C11.2528701,15 11.0265666,14.9406184 10.8252346,14.8296685 L8.00034289,13.2654314 L5.1754512,14.8281058 C4.97411914,14.9390557 4.74781566,14.9984373 4.51995147,14.9984373 C4.12196949,14.9984373 3.7458375,14.8234178 3.48675904,14.5186963 C3.22924128,14.2155374 3.11843062,13.8170555 3.18241987,13.4232615 L3.47717706,11.6160201 L4.76727194,10.3259252 L4.21384873,13.7254954 C4.1899424,13.8787073 4.31106778,14 4.44653695,14 C4.48319331,14 4.52303718,13.9904243 4.55969355,13.9696768 L7.88745385,12.1279425 C7.92251646,12.1087911 7.96236033,12.0992153 8.00061045,12.0992153 C8.03886057,12.0992153 8.07870444,12.1087911 8.11376705,12.1279425 L11.4415274,13.9696768 C11.4781837,13.9904243 11.5164338,14 11.554684,14 C11.6917469,14 11.8128723,13.8771113 11.7873722,13.7254954 L11.1466827,9.78986567 C11.1339327,9.71645166 11.157839,9.64144168 11.2104329,9.58717915 L13.9325663,6.7926586 C14.0664417,6.6554063 13.9899415,6.42399255 13.8002847,6.39526533 L10.0565543,5.8223168 C9.98005408,5.8111451 9.91311637,5.76167043 9.87964752,5.68985237 L8.21417361,2.13565634 C8.17114223,2.04468679 8.08507946,2 8.00061045,2 C7.91614144,2 7.83007867,2.04468679 7.78704729,2.13565634 L6.12157338,5.68985237 C6.08810453,5.76007448 6.02276058,5.8111451 5.94466659,5.8223168 L2.19934249,6.39526533 C2.01127941,6.42399255 1.93318542,6.6554063 2.06706083,6.7926586 L3.71365958,8.48205469 L2.96875283,9.22696145 L1.38603847,7.60229936 C1.03019576,7.23663355 0.908460096,6.71001228 1.07077431,6.22558321 C1.23308853,5.74115415 1.64667765,5.39267775 2.15078816,5.31610671 L5.34556899,4.82698962 L6.77518268,1.77977453 C6.88911478,1.53599732 7.07015756,1.33441232 7.29958247,1.1953343 C7.51027881,1.067195 7.75218942,1 8.00034289,1 Z M8.03326058,6.48849915 L10.3796586,6.49317164 L10.4844462,6.52577414 L10.5321246,6.55372323 L10.5868487,6.59985686 L10.5868487,6.59985686 L10.6550729,6.68988802 L10.6550729,6.68988802 L10.6932192,6.80161047 L10.6932192,6.80161047 L10.6985986,6.8423493 L10.6985986,6.8423493 L10.6951562,6.91566917 L10.6939547,6.92152408 L10.6939547,9.16322024 C10.6939547,9.36922915 10.5274807,9.53568404 10.3214718,9.53568404 C10.141214,9.53568404 9.99127628,9.40824202 9.95660837,9.23837164 L9.9490557,9.16322024 L9.9490557,7.76997106 L7.12187809,10.5983311 C7.04856776,10.6728525 6.95076979,10.7088783 6.85421146,10.7077435 C6.78175695,10.7085946 6.70929708,10.6885428 6.64616489,10.6470251 L6.5864876,10.5983311 L5.10134303,9.11313883 L2.66871387,11.5457871 C2.52321841,11.6912825 2.28697185,11.6912825 2.14147639,11.5457871 C2.016766,11.4210848 1.99895023,11.2296453 2.08802908,11.0858693 L2.14147639,11.0184828 L4.83479207,8.32634958 C4.90811194,8.25184729 5.00473702,8.21575473 5.1013335,8.21695622 C5.17375225,8.21695622 5.24620854,8.23724756 5.30886245,8.27832505 L5.36788446,8.32634958 L6.85421146,9.81267658 L7.32790607,9.33898196 L7.3243874,9.3354633 L9.42644302,7.23339814 L8.03326058,7.23339814 C7.82725168,7.23339814 7.66077771,7.06699093 7.66077771,6.86098202 C7.66077771,6.65495404 7.82725168,6.48849915 8.03326058,6.48849915 Z" id="形状" fill="currentColor" fill-rule="evenodd"></path>
                    </g>
                </g>
            </g>
        </g>
    </g>
</svg>