<?xml version="1.0" encoding="UTF-8"?>
<svg width="16px" height="16px" viewBox="0 0 16 16" version="1.1" xmlns="http://www.w3.org/2000/svg" xmlns:xlink="http://www.w3.org/1999/xlink">
    <g id="组件分类" stroke="none" stroke-width="1" fill="none" fill-rule="evenodd">
        <g id="Icon图标-Light" transform="translate(-864.000000, -310.000000)">
            <g id="方向和建议" transform="translate(120.000000, 262.000000)">
                <g id="General/Icon/刷新" transform="translate(744.000000, 48.000000)">
                    <g id="1.通用/1.Icon图标/刷新">
                        <rect id="矩形" x="0" y="0" width="16" height="16"></rect>
                        <path d="M14.5440417,8.00142219 C14.2729692,7.98091453 14.0361231,8.18462387 14.0155873,8.45532487 C13.9019559,9.96468801 13.2270127,11.3660442 12.1153416,12.400997 C10.9968253,13.4427857 9.53878382,14.0156327 8.00955157,14.0156327 C6.81847543,14.0156327 5.66710182,13.669737 4.68001458,13.0134922 C3.81203495,12.4379108 3.11244884,11.6545185 2.64286365,10.7344085 L4.01191669,10.7344085 C4.28435825,10.7344085 4.50477579,10.5142931 4.50477579,10.2422249 C4.50477579,9.97015671 4.28435825,9.75004126 4.01191669,9.75004126 L1.49285909,9.75004126 C1.22041754,9.75004126 1,9.97015671 1,10.2422249 L1,12.7578301 C1,13.0298983 1.22041754,13.2500138 1.49285909,13.2500138 C1.76530065,13.2500138 1.98571819,13.0298983 1.98571819,12.7578301 L1.98571819,11.5820581 C2.52101793,12.4802932 3.25346131,13.2486466 4.13376241,13.8337982 C5.28376697,14.5966829 6.62270084,15 8.00955157,15 C9.78932053,15 11.4869463,14.3328177 12.7875467,13.1214991 C14.0826709,11.9170164 14.8671383,10.2859745 14.9985673,8.52915241 C15.0191031,8.25845142 14.8164833,8.02192984 14.5440417,8.00142219 Z M14.5071888,2.75 C14.2347737,2.75 14.0143776,2.97011719 14.0143776,3.2421875 L14.0143776,4.41796875 C13.4791299,3.51972656 12.7467577,2.75136719 11.8651732,2.16621094 C10.7166493,1.40332031 9.37647661,1 7.99112956,1 C6.21153355,1 4.51407274,1.6671875 3.21359873,2.87851563 C1.9186004,4.08300781 1.13420924,5.7140625 1.001424,7.47089844 C0.980890199,7.74160156 1.18485928,7.978125 1.45590544,7.99863281 C1.46822572,8 1.480546,8 1.49286628,8 C1.74885432,8 1.96377476,7.803125 1.98430857,7.54472656 C2.09792893,6.03535156 2.77280649,4.63398437 3.88436954,3.59902344 C5.0041461,2.55722656 6.46204591,1.984375 7.99112956,1.984375 C9.18208997,1.984375 10.3333517,2.33027344 11.320343,2.98652344 C12.1882383,3.56210937 12.8877564,4.34550781 13.357296,5.265625 L11.988376,5.265625 C11.7159609,5.265625 11.4955648,5.48574219 11.4955648,5.7578125 C11.4955648,6.02988281 11.7159609,6.25 11.988376,6.25 L14.5071888,6.25 C14.7796039,6.25 15,6.02988281 15,5.7578125 L15,3.2421875 C15,2.97011719 14.7796039,2.75 14.5071888,2.75 Z" id="Shape" fill="currentColor" fill-rule="evenodd"></path>
                    </g>
                </g>
            </g>
        </g>
    </g>
</svg>