<?xml version="1.0" encoding="UTF-8"?>
<svg width="16px" height="16px" viewBox="0 0 16 16" version="1.1" xmlns="http://www.w3.org/2000/svg" xmlns:xlink="http://www.w3.org/1999/xlink">
    <g id="组件分类" stroke="none" stroke-width="1" fill="none" fill-rule="evenodd">
        <g id="Icon图标-Light" transform="translate(-600.000000, -414.000000)">
            <g id="业务相关" transform="translate(120.000000, 366.000000)">
                <g id="General/Icon/关系" transform="translate(480.000000, 48.000000)">
                    <g id="1.通用/1.Icon图标/关系">
                        <rect id="矩形" x="0" y="0" width="16" height="16"></rect>
                        <path d="M3.72201624,9.7039548 C3.42540607,9.7039548 3.1287959,9.77810734 2.85690325,9.92641243 C2.04122528,10.3960452 1.74461511,11.4588983 2.21424788,12.2992938 C2.43670551,12.694774 2.80746822,12.9913842 3.27710099,13.1149718 C3.72201624,13.2385593 4.19164901,13.1644068 4.58712924,12.9419492 C4.98260946,12.7194915 5.27921963,12.3487288 5.4028072,11.9038136 C5.52639477,11.4588983 5.45224223,10.9892655 5.2297846,10.5937853 C5.00732698,10.1983051 4.63656427,9.90169492 4.1669315,9.77810734 C4.01862641,9.72867232 3.87032133,9.7039548 3.72201624,9.7039548 Z M12.2742761,9.7039548 C12.125971,9.7039548 11.977666,9.72867232 11.8293609,9.75338983 C11.3844456,9.8769774 11.0136829,10.1488701 10.7912253,10.5690678 C10.5687677,10.964548 10.4946151,11.4341808 10.6182027,11.879096 C10.7417903,12.3240113 11.0136829,12.694774 11.4338806,12.9172316 C11.8293609,13.1396893 12.2989936,13.2138418 12.7439089,13.0902542 C13.1888242,12.9666667 13.5595869,12.694774 13.7820445,12.2745763 C14.2516773,11.4588983 13.9797846,10.3960452 13.1393891,9.90169492 C12.8674965,9.77810734 12.5708863,9.7039548 12.2742761,9.7039548 L12.2742761,9.7039548 Z M7.99814619,2.28870056 C7.03416314,2.28870056 6.2679202,3.0549435 6.2679202,4.01892655 C6.2679202,4.9829096 7.03416314,5.74915254 7.99814619,5.74915254 C8.96212924,5.74915254 9.72837218,4.9829096 9.72837218,4.01892655 C9.72837218,3.0549435 8.96212924,2.28870056 7.99814619,2.28870056 Z M7.99814619,1.3 C9.50591455,1.3 10.7170727,2.51115819 10.7170727,4.01892655 C10.7170727,4.09258486 10.7141822,4.16553528 10.7085078,4.2376712 C12.4022158,5.21853358 13.4359993,6.98050451 13.4359993,8.96242938 L13.4366209,8.97894155 C13.5035398,9.01165899 13.5693114,9.04736013 13.6337394,9.08601695 C14.9437677,9.82754237 15.3886829,11.5083333 14.62244,12.7936441 C14.2516773,13.4115819 13.6831744,13.8812147 12.9663665,14.0542373 C12.7439089,14.1283898 12.5214513,14.1531073 12.2742761,14.1531073 C11.8046434,14.1531073 11.3350106,14.0295198 10.9148129,13.7823446 C10.8557742,13.7469214 10.7980893,13.7096933 10.7418875,13.6707032 C9.8920135,14.1517423 8.95463908,14.4002825 7.99814619,14.4002825 C7.03426922,14.4002825 6.08980706,14.14789 5.26799981,13.6603117 C5.20830958,13.702708 5.14583281,13.7437327 5.08147952,13.7823446 C4.66128178,14.0295198 4.19164901,14.1531073 3.72201624,14.1531073 C3.4748411,14.1531073 3.25238347,14.1283898 3.00520833,14.0542373 C2.31311794,13.8812147 1.7198976,13.4115819 1.3738524,12.7936441 C0.632326977,11.4836158 1.07724223,9.82754237 2.36255297,9.08601695 C2.42734707,9.04714049 2.49349997,9.01125339 2.56081221,8.97838415 C2.56036507,8.97317306 2.56029308,8.96776522 2.56029308,8.96242938 C2.56029308,6.98842351 3.58583187,5.23261739 5.28838932,4.24854299 C5.28244181,4.17367638 5.27921963,4.09669602 5.27921963,4.01892655 C5.27921963,2.51115819 6.49037782,1.3 7.99814619,1.3 Z M10.432397,5.23610143 L10.4218741,5.25725605 C9.97330952,6.1380889 9.05916837,6.73785311 7.99814619,6.73785311 C6.93240486,6.73785311 6.01485404,6.13274185 5.56846067,5.24548626 C4.3761537,6.02659468 3.63194429,7.30227067 3.55551389,8.71997874 C3.84262874,8.70230487 4.13246109,8.73365414 4.41410664,8.81412429 C5.10619703,9.01186441 5.69941737,9.45677966 6.07018008,10.0747175 C6.4409428,10.6926554 6.53981285,11.4341808 6.34207274,12.1262712 C6.26171939,12.4075079 6.14055071,12.6724185 5.98354241,12.9127102 C6.61271365,13.23701 7.30985359,13.4115819 8.0228637,13.4115819 C8.71722935,13.4115819 9.39654395,13.2460204 10.0138281,12.9383871 C9.84844117,12.6946374 9.72588638,12.4231763 9.65421963,12.1262712 C9.48119703,11.4094633 9.55534958,10.6926554 9.92611229,10.0747175 C10.296875,9.45677966 10.8653778,8.98714689 11.5821857,8.81412429 C11.8636752,8.73369875 12.1533423,8.70233964 12.4395459,8.71838393 C12.3641206,7.29712525 11.6156618,6.0173367 10.432397,5.23610143 Z" id="形状" fill="currentColor" fill-rule="evenodd"></path>
                    </g>
                </g>
            </g>
        </g>
    </g>
</svg>