<?xml version="1.0" encoding="UTF-8"?>
<svg width="16px" height="16px" viewBox="0 0 16 16" version="1.1" xmlns="http://www.w3.org/2000/svg" xmlns:xlink="http://www.w3.org/1999/xlink">
    <g id="组件分类" stroke="none" stroke-width="1" fill="none" fill-rule="evenodd">
        <g id="Icon图标-Light" transform="translate(-936.000000, -414.000000)">
            <g id="业务相关" transform="translate(120.000000, 366.000000)">
                <g id="General/Icon/重置密码" transform="translate(816.000000, 48.000000)">
                    <g id="1.通用/1.Icon图标/重置密码">
                        <rect id="矩形" x="0" y="0" width="16" height="16"></rect>
                        <path d="M11.3,6 L11.3,5.05660377 C11.3,3.35849057 9.8,1.94339623 8,1.94339623 C6.26206897,1.94339623 4.80380499,3.26258049 4.70530157,4.88199289 L4.7,5.05660377 L4.7,6 L11.3,6 Z M12,7 L4,7 C3.44285714,7 3.05816327,7.34489796 3.00604956,7.87456268 L3,8 L3,13 C3,13.5571429 3.34489796,13.9418367 3.87456268,13.9939504 L4,14 L12,14 C12.5571429,14 12.9418367,13.655102 12.9939504,13.1254373 L13,13 L13,8 C13,7.44285714 12.655102,7.05816327 12.1254373,7.00604956 L12,7 Z M9.93101266,7.85 C10.1349398,7.85 10.3025316,8.01225189 10.3025316,8.21446078 L10.3025316,9.40257353 C10.3025316,9.5089177 10.2559875,9.60831374 10.122508,9.6928757 L10.1024065,9.72606742 C10.066985,9.74458557 10.0288278,9.75716502 9.98947654,9.76349375 L9.91075949,9.76764706 L9.91075949,9.76764706 L8.70253165,9.76764706 C8.49860448,9.76764706 8.33101266,9.60539517 8.33101266,9.40318627 C8.33101266,9.20097738 8.49860448,9.03872549 8.70253165,9.03872549 L9.04479942,9.03872549 L8.93696975,8.97539985 L8.93696975,8.97539985 C8.65288979,8.8202702 8.32890385,8.73823529 8,8.73823529 C7.48915943,8.73823529 7.00965324,8.93048373 6.64981701,9.27942261 C6.29051767,9.62670716 6.09303797,10.088373 6.09303797,10.5796569 C6.09303797,11.0709408 6.29051767,11.5326066 6.64981701,11.8798911 C7.01073837,12.2287434 7.48993498,12.4210784 8,12.4210784 C8.51084057,12.4210784 8.99034676,12.22883 9.35,11.8800611 C9.70939103,11.5315608 9.90696203,11.0701875 9.90696203,10.5796569 C9.90696203,10.377448 10.0745538,10.2151961 10.278481,10.2151961 C10.4824082,10.2151961 10.65,10.377448 10.65,10.5796569 C10.65,10.9283874 10.5794188,11.2657779 10.440707,11.5812965 C10.3077199,11.8869147 10.116196,12.1618499 9.87205673,12.3982102 C9.62956444,12.632976 9.34651366,12.8176249 9.03049975,12.9475378 C8.70418911,13.0818172 8.35695307,13.15 8,13.15 C7.6417003,13.15 7.29502267,13.082024 6.97056751,12.9483285 C6.65584673,12.8199685 6.37246278,12.6349386 6.12857618,12.398823 C5.88583464,12.1638158 5.69470684,11.8892064 5.56012256,11.5823592 C5.42079472,11.2650129 5.35,10.9270843 5.35,10.5796569 C5.35,10.2309263 5.42058116,9.8935358 5.55929299,9.57801723 C5.69228012,9.27239903 5.88380399,8.99746385 6.12794327,8.76110352 C6.37043556,8.5263377 6.65348634,8.34168882 6.96950025,8.21177595 C7.29581089,8.0774965 7.64304693,8.00931373 8,8.00931373 C8.45505333,8.00931373 8.90437499,8.12293817 9.2999417,8.33843647 C9.38965841,8.3876082 9.47647129,8.44181119 9.55949367,8.5004842 L9.55949367,8.21446078 C9.55949367,8.01225189 9.72708549,7.85 9.93101266,7.85 Z M3.7,6 L3.7,5.05660377 C3.7,2.88679245 5.6,1 8,1 C10.3272727,1 12.1843893,2.77417399 12.2948048,4.86017249 L12.3,5.05660377 L12.3,6 L12,6 C13.05,6 13.9177686,6.82004132 13.9944872,7.85130541 L14,8 L14,13 C14,14.05 13.1799587,14.9177686 12.1486946,14.9944872 L12,15 L4,15 C2.95,15 2.0822314,14.1799587 2.00551277,13.1486946 L2,13 L2,8 C2,6.95 2.82004132,6.0822314 3.85130541,6.00551277 L4,6 L3.7,6 Z" id="形状" fill="currentColor" fill-rule="evenodd"></path>
                    </g>
                </g>
            </g>
        </g>
    </g>
</svg>