<?xml version="1.0" encoding="UTF-8"?>
<svg width="16px" height="16px" viewBox="0 0 16 16" version="1.1" xmlns="http://www.w3.org/2000/svg" xmlns:xlink="http://www.w3.org/1999/xlink">
    <g id="组件分类" stroke="none" stroke-width="1" fill="none" fill-rule="evenodd">
        <g id="Icon图标-Light" transform="translate(-768.000000, -414.000000)">
            <g id="业务相关" transform="translate(120.000000, 366.000000)">
                <g id="General/Icon/审批" transform="translate(648.000000, 48.000000)">
                    <g id="1.通用/1.Icon图标/审批">
                        <rect id="矩形" x="0" y="0" width="16" height="16"></rect>
                        <path d="M14.5,15.0013393 L2.5,15.0013393 C2.225,15.0013393 2,14.7763393 2,14.5013393 C2,14.2263393 2.225,14.0013393 2.5,14.0013393 L14.5,14.0013393 C14.775,14.0013393 15,14.2263393 15,14.5013393 C15,14.7763393 14.775,15.0013393 14.5,15.0013393 Z M14.5,13.0013393 L2.5,13.0013393 C2.225,13.0013393 2,12.7763393 2,12.5013393 L2,10.0013393 C2,9.17633929 2.675,8.50133929 3.5,8.50133929 L6.7,8.50133929 C6.6,7.90133929 6.3,7.32633929 5.875,6.82633929 C5.3,6.17633929 5,5.35133929 5,4.50133929 C5,3.55133929 5.375,2.65133929 6.075,1.97633929 C6.775,1.30133929 7.675,0.976339286 8.65,1.00133929 C10.45,1.07633929 11.975,2.62633929 12,4.42633929 C12.025,5.32633929 11.675,6.20133929 11.075,6.87633929 C10.65,7.32633929 10.4,7.87633929 10.3,8.50133929 L13.5,8.50133929 C14.325,8.50133929 15,9.17633929 15,10.0013393 L15,12.5013393 C15,12.7763393 14.775,13.0013393 14.5,13.0013393 Z M3,12.0013393 L14,12.0013393 L14,10.0013393 C14,9.72633929 13.775,9.50133929 13.5,9.50133929 L9.75,9.50133929 C9.475,9.50133929 9.25,9.27633929 9.25,9.00133929 C9.25,7.95133929 9.625,6.95133929 10.325,6.20133929 C10.775,5.72633929 11,5.10133929 11,4.45133929 C10.975,3.15133929 9.9,2.05133929 8.6,2.00133929 C7.9,1.97633929 7.25,2.22633929 6.775,2.70133929 C6.275,3.17633929 6,3.82633929 6,4.50133929 C6,5.10133929 6.225,5.70133929 6.625,6.15133929 C7.35,6.97633929 7.75,7.97633929 7.75,9.00133929 C7.75,9.27633929 7.525,9.50133929 7.25,9.50133929 L3.5,9.50133929 C3.225,9.50133929 3,9.72633929 3,10.0013393 L3,12.0013393 Z" id="形状" fill="currentColor" fill-rule="evenodd"></path>
                    </g>
                </g>
            </g>
        </g>
    </g>
</svg>