<?xml version="1.0" encoding="UTF-8"?>
<svg width="16px" height="16px" viewBox="0 0 16 16" version="1.1" xmlns="http://www.w3.org/2000/svg" xmlns:xlink="http://www.w3.org/1999/xlink">
    <g id="组件分类" stroke="none" stroke-width="1" fill="none" fill-rule="evenodd">
        <g id="Icon图标-Light" transform="translate(-288.000000, -310.000000)">
            <g id="方向和建议" transform="translate(120.000000, 262.000000)">
                <g id="General/Icon/右" transform="translate(168.000000, 48.000000)">
                    <g id="1.通用/1.Icon图标/双箭头方向/右">
                        <rect id="矩形" fill-rule="nonzero" x="0" y="0" width="16" height="16"></rect>
                        <path d="M12.3566499,7.5565888 C12.3661533,7.56577361 12.3693211,7.57802004 12.3772405,7.58720484 C12.3788244,7.58873564 12.3835761,7.59026645 12.38516,7.59179725 C12.6116567,7.81223273 12.6100729,8.16890959 12.3819922,8.38781428 L7.84128248,12.7196816 C7.61320183,12.9385863 7.24573856,12.9370555 7.0192418,12.71662 C6.9078413,12.6074228 6.85134909,12.4630171 6.85134909,12.3201423 C6.85134909,12.1757366 6.90942518,12.0303105 7.02399348,11.920603 L11.1544748,7.98062095 L7.04933576,3.95848589 C6.93793526,3.84928868 6.88144306,3.70641383 6.88144306,3.56200818 C6.88144306,3.41607173 6.93951915,3.27217634 7.05408744,3.16246886 C7.27900031,2.94356418 7.64804749,2.94662578 7.87454425,3.16706126 L12.3566499,7.5565888 Z M8.50530081,7.5565888 C8.51480417,7.56577361 8.51797196,7.57802004 8.52589143,7.58720484 C8.52747531,7.58873564 8.532227,7.59026645 8.53381089,7.59179725 C8.76030765,7.81223273 8.75872377,8.16890959 8.5306431,8.38781428 L3.98993339,12.7196816 C3.76185274,12.9385863 3.39438947,12.9370555 3.1678927,12.71662 C3.0564922,12.6074228 3,12.4630171 3,12.3201423 C3,12.1757366 3.05807609,12.0303105 3.17264438,11.920603 L7.3031257,7.98062095 L3.19798667,3.95848589 C3.08658617,3.84928868 3.03009396,3.70641383 3.03009396,3.56200818 C3.03009396,3.41607173 3.08817005,3.27217634 3.20273835,3.16246886 C3.42765122,2.94356418 3.7966984,2.94662578 4.02319516,3.16706126 L8.50530081,7.5565888 Z" id="形状" fill="currentColor" fill-rule="evenodd"></path>
                    </g>
                </g>
            </g>
        </g>
    </g>
</svg>