<?xml version="1.0" encoding="UTF-8"?>
<svg width="16px" height="16px" viewBox="0 0 16 16" version="1.1" xmlns="http://www.w3.org/2000/svg" xmlns:xlink="http://www.w3.org/1999/xlink">
    <g id="组件分类" stroke="none" stroke-width="1" fill="none" fill-rule="evenodd">
        <g id="Icon图标-Light" transform="translate(-192.000000, -310.000000)">
            <g id="方向和建议" transform="translate(120.000000, 262.000000)">
                <g id="General/Icon/右" transform="translate(72.000000, 48.000000)">
                    <g id="1.通用/1.Icon图标/单箭头方向/右">
                        <rect id="矩形" fill-rule="nonzero" x="0" y="0" width="16" height="16"></rect>
                        <path d="M10.6539517,7.61513487 C10.6634551,7.62431968 10.6666229,7.6365661 10.6745423,7.64575091 C10.6761262,7.6472817 10.6808779,7.64881252 10.6824618,7.65034331 C10.9089586,7.87077879 10.9073747,8.22745566 10.679294,8.44636034 L6.1385843,12.7782277 C5.91050365,12.9971324 5.54304037,12.9956016 5.31654361,12.7751661 C5.20514311,12.6659689 5.14865091,12.5215632 5.14865091,12.3786884 C5.14865091,12.2342827 5.206727,12.0888565 5.32129529,11.979149 L9.4517766,8.03916701 L5.34663757,4.01703196 C5.23523707,3.90783474 5.17874487,3.7649599 5.17874487,3.62055424 C5.17874487,3.47461779 5.23682096,3.33072241 5.35138925,3.22101493 C5.57630213,3.00211024 5.9453493,3.00517185 6.17184606,3.22560733 L10.6539517,7.61513487 Z" fill="currentColor" fill-rule="evenodd"></path>
                    </g>
                </g>
            </g>
        </g>
    </g>
</svg>