<?xml version="1.0" encoding="UTF-8"?>
<svg width="16px" height="16px" viewBox="0 0 16 16" version="1.1" xmlns="http://www.w3.org/2000/svg" xmlns:xlink="http://www.w3.org/1999/xlink">
    <g id="组件分类" stroke="none" stroke-width="1" fill="none" fill-rule="evenodd">
        <g id="Icon图标-Light" transform="translate(-1008.000000, -414.000000)">
            <g id="业务相关" transform="translate(120.000000, 366.000000)">
                <g id="General/Icon/角色管理" transform="translate(888.000000, 48.000000)">
                    <g id="1.通用/1.Icon图标/角色管理">
                        <rect id="矩形" x="0" y="0" width="16" height="16"></rect>
                        <path d="M11.042148,9.9638206 C10.3360244,9.9638206 9.76151346,10.538521 9.76151346,11.2446446 C9.76151346,11.9508945 10.3360244,12.5255948 11.042148,12.5255948 C11.748461,12.5255948 12.3229719,11.9508945 12.3229719,11.2446446 C12.3229719,10.538521 11.748461,9.9638206 11.042148,9.9638206 Z M11.0421583,11.7979085 C10.7371129,11.7979085 10.4890138,11.5496968 10.4890138,11.2446514 C10.4890138,10.9397186 10.7371129,10.6915069 11.0421583,10.6915069 C11.34726,10.6915069 11.5954716,10.9397186 11.5954716,11.2446514 C11.5954716,11.5496969 11.34726,11.7979085 11.0421583,11.7979085 Z M14.4285098,10.575466 C14.3804497,10.32184 14.2177022,10.1578925 14.008726,10.1578925 L13.9797383,10.1578925 C13.5799742,10.1578925 13.2545423,9.83264998 13.2545423,9.43294904 C13.2545423,9.32798728 13.3004551,9.19902705 13.3178856,9.15860856 C13.4168477,8.93567534 13.3406841,8.66209271 13.1207192,8.50976553 L12.2728151,8.04027954 C12.2063772,8.01160768 12.1345712,7.99695598 12.059355,7.99695598 C11.9057647,7.99695598 11.7540059,8.05954148 11.6534649,8.16374539 C11.5478085,8.27262268 11.2672789,8.4973242 11.074028,8.4973242 C10.8790088,8.4973242 10.596711,8.26826506 10.490865,8.15774576 C10.3898188,8.05095254 10.2366706,7.98716711 10.0813752,7.98716711 C10.00698,7.98716711 9.93624761,8.00137674 9.8727148,8.02884868 L9.85686317,8.03535354 L8.99399163,8.50926029 L8.97346661,8.5225226 C8.77288987,8.66209268 8.6962842,8.93554902 8.79461481,9.15652446 C8.80118281,9.17231292 8.85884231,9.31264086 8.85884231,9.43294901 C8.85884231,9.83264996 8.53347349,10.1578925 8.13351994,10.1578925 L8.09973261,10.1578925 C7.8958466,10.1578925 7.73297273,10.32184 7.68493789,10.5757186 C7.67761203,10.6147477 7.61338453,10.9654412 7.61338453,11.248939 C7.61338453,11.5325631 7.67761203,11.8831935 7.68493789,11.9226015 C7.7329601,12.1761644 7.89570767,12.3401118 8.10478492,12.3401118 L8.13345678,12.3401118 C8.53341033,12.3401118 8.85884231,12.6654175 8.85884231,13.0650553 C8.85884231,13.1700171 8.81292944,13.2989773 8.79549897,13.3394589 C8.69666314,13.5620764 8.77257411,13.8354064 8.99178125,13.9882388 L9.82370739,14.4517883 C9.89001897,14.4805865 9.96182494,14.4954908 10.0372307,14.4954908 C10.1935997,14.4954908 10.3470005,14.4300634 10.4472257,14.320744 C10.5496613,14.20953 10.8406113,13.9659455 11.0393565,13.9659455 C11.2401859,13.9659455 11.5278518,14.2100353 11.6354029,14.3280067 C11.7363228,14.4392207 11.8907341,14.5055323 12.0483662,14.5055323 C12.1225088,14.5055323 12.1931149,14.4913227 12.278941,14.453304 L13.1200876,13.9885546 L13.1402337,13.9752291 C13.3405578,13.8359748 13.416974,13.5627711 13.3187697,13.341543 C13.3122017,13.3256914 13.2545422,13.1854266 13.2545422,13.0650553 C13.2545422,12.6654175 13.5799742,12.3401118 13.9797383,12.3401118 L14.0131467,12.3401118 C14.2174495,12.3401118 14.3803865,12.1761644 14.4282572,11.923233 C14.4288887,11.9196964 14.5,11.5472148 14.5,11.248939 C14.5,10.9654412 14.4358357,10.6147477 14.4285098,10.575466 Z M13.6512648,11.6680146 C13.0048591,11.7525883 12.5123596,12.3045584 12.5123596,12.9675201 C12.5123596,13.1205895 12.549297,13.2659486 12.5818116,13.3643289 L12.0073682,13.6818835 C11.9557275,13.6312589 11.8733055,13.5554116 11.7711597,13.4796838 C11.5172594,13.2912908 11.2713085,13.1954207 11.0403597,13.1954207 C10.8113235,13.1954207 10.567345,13.2894379 10.3149987,13.4743643 C10.2143471,13.5483588 10.1327619,13.6217556 10.0802844,13.6726193 L9.53118329,13.3654048 C9.56375759,13.2668451 9.60099391,13.1205895 9.60099391,12.9675201 C9.60099391,12.3045584 9.1086139,11.7525883 8.46214848,11.6680147 C8.44559237,11.5610275 8.42240186,11.3866205 8.42240186,11.2487326 C8.42240186,11.110247 8.44547283,10.9363181 8.46214848,10.8296298 C9.10849436,10.7449964 9.60099391,10.1929068 9.60099391,9.53006456 C9.60099391,9.37741361 9.56405644,9.23211429 9.53160168,9.13367415 L10.1245138,8.80828975 C10.1759752,8.85670293 10.2585167,8.92956179 10.3599453,9.00176318 C10.6088847,9.17921841 10.8489184,9.26929085 11.0731133,9.26929085 C11.2950967,9.26929085 11.5330983,9.18095173 11.7803642,9.00678382 C11.880956,8.93613642 11.9624216,8.86548904 12.0143015,8.81731494 L12.5820506,9.13277763 C12.5495361,9.23127754 12.5124193,9.37699524 12.5124193,9.53006459 C12.5124193,10.1930264 13.0047396,10.7449964 13.6511452,10.8296298 C13.66806,10.9385296 13.6910712,11.1120998 13.6910712,11.2488521 C13.6910712,11.386501 13.6681197,11.5595332 13.6512648,11.6680146 Z M2.46595775,13.4446431 L2.46595775,12.8419958 C2.46595775,10.3758366 4.25795547,8.34336768 6.68094271,8.11430854 C6.67989435,8.11380331 6.68233209,8.11380331 6.68620974,8.11392962 C6.83474768,8.09997262 6.98501604,8.09214152 7.13715375,8.09214152 C7.16005335,8.09214152 7.18262456,8.0934046 7.2054231,8.09365721 C7.74128383,8.05210195 8.55211657,7.92619837 8.97587914,7.54794449 L9.18327651,7.38630844 C9.99341456,6.7536707 10.4581008,5.80850965 10.4581008,4.79334883 C10.4581008,2.97428956 8.9681112,1.49446771 7.13649694,1.49446771 C5.30488268,1.49446771 3.81490568,2.97428956 3.81490568,4.79333619 C3.81490568,5.80849701 4.27961723,6.75365807 5.08975528,7.3862958 L5.29708949,7.54793185 L5.05278499,7.64493622 C2.8945641,8.50182077 1.5,10.5417418 1.5,12.8419958 L1.5,13.9916491 C1.5,14.2256974 1.69188677,14.4161064 1.92799388,14.4161064 L8.18223687,14.4161064 C7.97862874,14.155344 7.80508186,13.7482238 7.66479183,13.4446431 L2.46595775,13.4446431 Z M4.79137228,4.79333557 C4.79137228,3.50822084 5.8433486,2.4627683 7.13650094,2.4627683 C8.42962926,2.4627683 9.48178578,3.50822082 9.48178578,4.79333557 C9.48178578,6.07847435 8.42962926,7.12387881 7.13650094,7.12387881 C5.8433486,7.12387881 4.79137228,6.07847435 4.79137228,4.79333557 Z" id="形状" fill="currentColor" fill-rule="evenodd"></path>
                    </g>
                </g>
            </g>
        </g>
    </g>
</svg>