<?xml version="1.0" encoding="UTF-8"?>
<svg width="16px" height="16px" viewBox="0 0 16 16" version="1.1" xmlns="http://www.w3.org/2000/svg" xmlns:xlink="http://www.w3.org/1999/xlink">
    <g id="组件分类" stroke="none" stroke-width="1" fill="none" fill-rule="evenodd">
        <g id="Icon图标-Light" transform="translate(-408.000000, -518.000000)">
            <g id="控制" transform="translate(120.000000, 470.000000)">
                <g id="General/Icon/行列转置" transform="translate(288.000000, 48.000000)">
                    <g id="1.通用/1.Icon图标/行列转置">
                        <rect id="矩形" x="0" y="0" width="16" height="16"></rect>
                        <path d="M14.0000172,3.01343482 L14.0000172,12.9865307 C14.0000172,13.5388154 13.5523019,13.9865307 13.0000172,13.9865307 L9.8571601,13.9865307 C9.30487535,13.9865307 8.8571601,13.5388154 8.8571601,12.9865307 L8.8571601,3.01343482 C8.8571601,2.46115007 9.30487535,2.01343482 9.8571601,2.01343482 L13.0000172,2.01343482 C13.5523019,2.01343482 14.0000172,2.46115007 14.0000172,3.01343482 Z M8.00001725,8.84367354 C8.22433402,8.91229945 8.33649241,9.05515659 8.33649241,9.27224497 C8.33649241,9.48933335 8.22433402,9.63219049 8.00001725,9.7008164 L3.35716017,9.7008164 C3.0810178,9.7008164 2.85716017,9.92467402 2.85716017,10.2008164 L2.85716017,12.6293878 C2.85716017,12.9055302 3.0810178,13.1293878 3.35716017,13.1293878 L8.00001725,13.1293878 L8.00001725,13.1293878 C8.22433402,13.21027 8.33649241,13.3531272 8.33649241,13.5579592 C8.33649241,13.7627913 8.22433402,13.90566 8.00001725,13.9865652 L2.99998282,13.9865652 C2.44769807,13.9865652 1.99998282,13.5388499 1.99998282,12.9865652 L1.99998282,9.84367354 C1.99998282,9.29138879 2.44769807,8.84367354 2.99998282,8.84367354 L8.00001725,8.84367354 L8.00001725,8.84367354 Z M12.6428743,2.85712563 L10.2143029,2.85712563 C9.93816057,2.85712563 9.71430295,3.08098325 9.71430295,3.35712563 L9.71430295,12.6428399 C9.71430295,12.9189823 9.93816057,13.1428399 10.2143029,13.1428399 L12.6428743,13.1428399 C12.9190167,13.1428399 13.1428743,12.9189823 13.1428743,12.6428399 L13.1428743,3.35712563 C13.1428743,3.08098325 12.9190167,2.85712563 12.6428743,2.85712563 Z M7.7504021,3.86722647 L5.73952875,5.20780875 C5.64762302,5.26907924 5.52344915,5.24424447 5.46217865,5.15233874 C5.44027632,5.11948523 5.42858871,5.08088369 5.42858871,5.04139869 L5.42858871,4.15938784 L5.42858871,4.15938784 C4.0139516,4.3638182 2.93983518,5.53763558 2.86144589,6.9648164 L2.85716017,7.12938783 L2.85716017,7.5579592 C2.85716017,7.7946527 2.66528218,7.9865307 2.42858868,7.9865307 C2.19189517,7.9865307 2.00001718,7.7946527 2.00001718,7.5579592 L2.00001718,7.12938783 L2.00001718,7.12938783 C1.99964009,5.16470832 3.4760745,3.51368553 5.42858871,3.29538784 L5.42858871,2.36023412 C5.42858871,2.24977717 5.51813176,2.16023412 5.62858871,2.16023412 C5.66807371,2.16023412 5.70667525,2.17192173 5.73952875,2.19382407 L7.7504021,3.53440635 C7.84230784,3.59567685 7.86714261,3.71985071 7.80587212,3.81175645 C7.79122515,3.83372691 7.77237256,3.8525795 7.7504021,3.86722647 Z" id="形状" fill="currentColor" fill-rule="evenodd"></path>
                    </g>
                </g>
            </g>
        </g>
    </g>
</svg>