<?xml version="1.0" encoding="UTF-8"?>
<svg width="16px" height="16px" viewBox="0 0 16 16" version="1.1" xmlns="http://www.w3.org/2000/svg" xmlns:xlink="http://www.w3.org/1999/xlink">
    <g id="组件分类" stroke="none" stroke-width="1" fill="none" fill-rule="evenodd">
        <g id="Icon图标-Light" transform="translate(-792.000000, -310.000000)">
            <g id="方向和建议" transform="translate(120.000000, 262.000000)">
                <g id="General/Icon/保存" transform="translate(672.000000, 48.000000)">
                    <g id="1.通用/1.Icon图标/保存">
                        <rect id="矩形" fill-rule="nonzero" x="0" y="0" width="16" height="16"></rect>
                        <path d="M12.2854865,2 L3.7144995,2 C2.76761433,2 2,2.76761433 2,3.7144995 L2,12.2855005 C2,13.2323857 2.76761433,14 3.7144995,14 L12.2855005,14 C13.2323857,14 14,13.2323857 14,12.2855005 L14,3.7144995 C14,2.76761433 13.2323857,2 12.2854865,2 Z M10.5451551,2.88548722 L10.5451551,6.25806722 L5.45967,6.25806722 L5.45967,2.88548722 L10.5451551,2.88548722 Z M4.57419677,2.85645255 L4.57419677,6.28710188 C4.57349748,6.75941861 4.95581515,7.14285514 5.42813187,7.14355444 L10.5733646,7.14355444 C11.0468282,7.14355444 11.4306843,6.76052349 11.4306843,6.28710188 L11.4306843,2.85645255 L12.2867033,2.85645255 C12.7604326,2.85695605 13.1440509,3.24139957 13.1435479,3.71512886 L13.1435479,12.2878222 C13.1439251,12.760055 12.7614116,13.1431698 12.2891788,13.1435474 L3.71648549,13.1435474 C3.48727111,13.1435474 3.27083982,13.0554784 3.10874361,12.8933822 C2.94664741,12.731286 2.85645255,12.5170225 2.85645255,12.2878222 L2.85645255,3.71532466 C2.85730569,3.24088209 3.24204292,2.85666234 3.71648549,2.85645255 L4.57419677,2.85645255 Z M8.5,4 C8.77614038,4 9,4.22748868 9,4.50810568 L9,4.50810568 L9,5.49189432 C9,5.77251132 8.77614038,6 8.5,6 C8.22385962,6 8,5.77251132 8,5.49189432 L8,5.49189432 L8,4.50810568 C8,4.22748868 8.22385962,4 8.5,4 Z" id="形状" fill="currentColor" fill-rule="evenodd"></path>
                    </g>
                </g>
            </g>
        </g>
    </g>
</svg>