<?xml version="1.0" encoding="UTF-8"?>
<svg width="16px" height="16px" viewBox="0 0 16 16" version="1.1" xmlns="http://www.w3.org/2000/svg" xmlns:xlink="http://www.w3.org/1999/xlink">
    <g id="组件分类" stroke="none" stroke-width="1" fill="none" fill-rule="evenodd">
        <g id="Icon图标-Light" transform="translate(-504.000000, -414.000000)">
            <g id="业务相关" transform="translate(120.000000, 366.000000)">
                <g id="General/Icon/脚本" transform="translate(384.000000, 48.000000)">
                    <g id="1.通用/1.Icon图标/脚本">
                        <rect id="矩形" x="0" y="0" width="16" height="16"></rect>
                        <path d="M13.1508584,1.4034887 C13.9511972,1.4034887 14.6,2.05229149 14.6,2.85263028 L14.6,2.85263028 L14.6,13.1473697 C14.6,13.9477085 13.9511972,14.5965113 13.1508584,14.5965113 L13.1508584,14.5965113 L2.84914158,14.5965113 C2.04880279,14.5965113 1.4,13.9477085 1.4,13.1473697 L1.4,13.1473697 L1.4,2.85263028 C1.4,2.05229149 2.04880279,1.4034887 2.84914158,1.4034887 L2.84914158,1.4034887 Z M13.633,5.2014887 L2.366,5.2014887 L2.36609439,13.1473697 C2.36609439,13.3845071 2.53697249,13.5817338 2.76231324,13.6226344 L2.84914158,13.6304169 L13.1508584,13.6304169 C13.417638,13.6304169 13.6339056,13.4141493 13.6339056,13.1473697 L13.6339056,13.1473697 L13.633,5.2014887 Z M8.54496127,6.60466702 L8.62586481,6.61430205 L8.63288867,6.61868009 L8.70103121,6.64166591 C8.83589129,6.69987649 8.92827211,6.8253821 8.94676871,6.96785032 L8.9497146,7.04026496 L8.9394741,7.11410858 L7.90713345,11.5794511 C7.85567515,11.8020382 7.63351753,11.9407654 7.41093052,11.8893071 C7.21307539,11.8435664 7.08147984,11.6629522 7.09081998,11.4670497 L7.10107474,11.3931033 L8.13305688,6.92935228 C8.15656396,6.82218691 8.22171385,6.7287645 8.31415172,6.66966932 C8.38348012,6.62534794 8.46389128,6.60306333 8.54496127,6.60466702 Z M6.795028,6.98531703 C6.92162946,7.11191849 6.95050394,7.30290012 6.86492541,7.46972769 L6.8211928,7.53948829 L5.11920338,9.24549074 L6.80474113,10.9338258 C6.8918005,10.998196 6.94834917,11.0925791 6.96623909,11.1953903 L6.9722807,11.2737417 L6.96306141,11.35323 C6.92885267,11.5119946 6.80483608,11.6360112 6.64607151,11.6702199 C6.5137677,11.6987272 6.37776961,11.6604646 6.28836745,11.5807877 L6.24071998,11.5282147 L4.24530628,9.53278868 C4.10779334,9.39222246 4.09060422,9.17805479 4.19448848,9.01833039 L4.24642514,8.95358364 L6.25703508,6.94523612 C6.42156485,6.82358566 6.65034061,6.84062964 6.795028,6.98531703 Z M9.70574607,6.90625195 L9.77975979,6.94992858 L11.7914886,8.95940731 C11.9290015,9.09997353 11.9461907,9.3141412 11.8423064,9.4738656 L11.7903697,9.53861235 L9.77975979,11.5469599 C9.61523002,11.6686103 9.38645426,11.6515663 9.24176688,11.506879 C9.11516541,11.3802775 9.08629093,11.1892959 9.17196096,11.0223767 L9.21573864,10.9525709 L10.9167358,9.25032121 L9.20168597,7.5280024 C9.11479278,7.41048114 9.09866207,7.26018131 9.14926647,7.13116063 L9.18760512,7.05673417 L9.24176688,6.99000949 C9.36578464,6.86599173 9.55158161,6.8357528 9.70574607,6.90625195 Z M13.1508584,2.36958309 L2.84914158,2.36958309 C2.58236198,2.36958309 2.36609439,2.58585068 2.36609439,2.85263028 L2.36609439,2.85263028 L2.366,4.2014887 L13.633,4.2014887 L13.6339056,2.85263028 C13.6339056,2.61549286 13.4630275,2.41826616 13.2376868,2.37736563 L13.1508584,2.36958309 Z" id="形状结合" fill="currentColor" fill-rule="evenodd"></path>
                    </g>
                </g>
            </g>
        </g>
    </g>
</svg>