<?xml version="1.0" encoding="UTF-8"?>
<svg width="16px" height="16px" viewBox="0 0 16 16" version="1.1" xmlns="http://www.w3.org/2000/svg" xmlns:xlink="http://www.w3.org/1999/xlink">
    <g id="组件分类" stroke="none" stroke-width="1" fill="none" fill-rule="evenodd">
        <g id="Icon图标-Light" transform="translate(-480.000000, -518.000000)">
            <g id="控制" transform="translate(120.000000, 470.000000)">
                <g id="General/Icon/设置2" transform="translate(360.000000, 48.000000)">
                    <g id="1.通用/1.Icon图标/设置2">
                        <rect id="矩形" fill-rule="nonzero" x="0" y="0" width="16" height="16"></rect>
                        <path d="M12.7553136,14.6 C12.2858904,14.6 11.8017978,14.4240261 11.4497304,14.0574139 L8.83856401,11.4471347 C6.84351551,12.356333 4.52573859,11.9457273 2.95610485,10.3766269 C1.29845426,8.73420403 0.931717409,6.25590523 2.0172585,4.20287665 C2.0759364,4.08556073 2.20796166,3.99757379 2.33998693,3.96824481 C2.4720122,3.95358032 2.61870694,3.99757379 2.72139326,4.08556073 L5.64061863,7.00379422 C6.02202496,7.38507096 6.63814287,7.38507096 7.0195492,7.00379422 C7.40095553,6.62251748 7.40095553,6.00660891 7.0195492,5.62533217 L4.10032384,2.72176316 C3.99763752,2.61911173 3.9536291,2.48713132 3.98296804,2.34048643 C4.01230699,2.19384153 4.08565436,2.07652561 4.21767963,2.01786765 C6.27140602,0.932695393 8.75054716,1.29930764 10.3935283,2.94173051 C11.963162,4.51083093 12.3739073,6.84248483 11.4643999,8.82219097 L14.0608968,11.4471347 L13.4447789,12.0630432 L10.6135704,9.23279669 C10.4815451,9.10081628 10.4522062,8.88084893 10.540223,8.71953954 C11.4497304,7.01845871 11.1416715,4.95076563 9.76274088,3.57230358 C8.54517452,2.35515092 6.75549867,1.97387418 5.17119545,2.54578928 L7.6503366,5.02408808 C8.36914083,5.74264809 8.36914083,6.91580728 7.6503366,7.64903178 C6.93153236,8.36759178 5.75797442,8.36759178 5.02450071,7.64903178 L2.54535957,5.17073298 C1.9585806,6.75449789 2.33998693,8.52890117 3.57222277,9.76071833 C4.93648387,11.1245159 7.00487973,11.4324702 8.72120821,10.5379363 C8.8972419,10.4499494 9.10261454,10.4792783 9.23463981,10.6112587 L12.0658483,13.4415053 C12.4472547,13.822782 13.0633726,13.822782 13.4447789,13.4415053 C13.8261852,13.0602286 13.8261852,12.5297104 13.4447789,12.0630432 C13.6258087,11.8848114 13.7195282,11.7843933 14.0608968,11.4471347 C14.7797011,12.2005806 14.7797011,13.3388539 14.0608968,14.0720784 C13.69416,14.4240261 13.2247368,14.6 12.7553136,14.6 Z" id="路径" fill="currentColor" fill-rule="evenodd"></path>
                    </g>
                </g>
            </g>
        </g>
    </g>
</svg>