<?xml version="1.0" encoding="UTF-8"?>
<svg width="16px" height="16px" viewBox="0 0 16 16" version="1.1" xmlns="http://www.w3.org/2000/svg" xmlns:xlink="http://www.w3.org/1999/xlink">
    <g id="组件分类" stroke="none" stroke-width="1" fill="none" fill-rule="evenodd">
        <g id="Icon图标-Light" transform="translate(-384.000000, -518.000000)">
            <g id="控制" transform="translate(120.000000, 470.000000)">
                <g id="General/Icon/排序" transform="translate(264.000000, 48.000000)">
                    <g id="1.通用/1.Icon图标/排序">
                        <rect id="矩形" fill-rule="nonzero" x="0" y="0" width="16" height="16"></rect>
                        <path d="M9.98253346,8.69784509 C10.0930755,8.69784509 10.2005013,8.73447747 10.2880132,8.80201419 C10.5066246,8.97072601 10.5470762,9.2847135 10.3783644,9.50332487 L10.3783644,9.50332487 L8.39581875,12.072244 C8.36968971,12.1061011 8.33932479,12.136466 8.30546762,12.1625951 C8.08685625,12.3313069 7.77286876,12.2908553 7.60415694,12.072244 L7.60415694,12.072244 L5.62161131,9.50332487 C5.5540746,9.41581296 5.51744222,9.30838713 5.51744222,9.19784509 C5.51744222,8.92170272 5.74129985,8.69784509 6.01744222,8.69784509 L6.01744222,8.69784509 Z M8.30546762,3.83740491 C8.33932479,3.86353395 8.36968971,3.89389888 8.39581875,3.92775604 L10.3783644,6.49667513 C10.5470762,6.7152865 10.5066246,7.02927399 10.2880132,7.19798581 C10.2005013,7.26552253 10.0930755,7.30215491 9.98253346,7.30215491 L6.01744222,7.30215491 C5.74129985,7.30215491 5.51744222,7.07829728 5.51744222,6.80215491 C5.51744222,6.69161287 5.5540746,6.58418704 5.62161131,6.49667513 L7.60415694,3.92775604 C7.77286876,3.70914467 8.08685625,3.66869309 8.30546762,3.83740491 Z" id="形状结合" fill="currentColor" fill-rule="evenodd"></path>
                    </g>
                </g>
            </g>
        </g>
    </g>
</svg>