<?xml version="1.0" encoding="UTF-8"?>
<svg width="16px" height="16px" viewBox="0 0 16 16" version="1.1" xmlns="http://www.w3.org/2000/svg" xmlns:xlink="http://www.w3.org/1999/xlink">
    <g id="组件分类" stroke="none" stroke-width="1" fill="none" fill-rule="evenodd">
        <g id="Icon图标-Light" transform="translate(-648.000000, -414.000000)">
            <g id="业务相关" transform="translate(120.000000, 366.000000)">
                <g id="General/Icon/提交" transform="translate(528.000000, 48.000000)">
                    <g id="1.通用/1.Icon图标/提交">
                        <rect id="矩形" x="0" y="0" width="16" height="16"></rect>
                        <path d="M10.3653257,1 C10.6396619,1.00258564 10.8999648,1.10259715 11.0911629,1.27903182 C11.2823609,1.45546649 11.3887913,1.69387091 11.3870393,1.94179621 L11.3870393,2.05177241 L13.2690783,2.05177241 C13.8361236,2.04836883 14.3012624,2.46010015 14.3138381,2.9765723 L14.3138381,14.0591742 C14.310873,14.5756939 13.8535838,14.9945176 13.2866373,15.0000145 L2.53628295,15.0000145 C1.96966371,15.002826 1.5051904,14.5912514 1.49262065,14.0751707 L1.49262065,2.99156905 C1.49558577,2.47504933 1.95287488,2.05622568 2.5198214,2.05077263 L4.56101461,2.05077263 L4.56101461,1.94079643 C4.55727743,1.43028114 5.00382093,1.01145502 5.56407176,1 L10.3653257,1 Z M4.56430692,3.00420698 L2.54510495,3.00420698 L2.54510495,14.0239019 L13.2798457,14.0239019 L13.2798457,3.00820611 L11.3881367,3.00820611 L11.3870393,3.12917994 C11.3887913,3.37710524 11.2823609,3.78683193 11.0911629,3.9632666 C10.8999648,4.13970126 10.6396619,4.23971277 10.3675206,4.24129863 L5.58382562,4.24129863 C5.31168434,4.23971277 5.05138142,4.13970126 4.86018337,3.9632666 C4.66898532,3.78683193 4.56255496,3.37710524 4.56430692,3.12917994 L4.56430692,3.00420698 Z M10.5087114,6.98012152 C10.6862305,7.14964301 10.7117178,7.41855158 10.5812471,7.61647818 L10.5250024,7.68704062 L7.71476479,10.6298582 C7.53502293,10.8180798 7.24635337,10.8338308 7.04822273,10.6809436 L6.97855734,10.6157134 L5.41334646,8.84522367 C5.23044675,8.63833648 5.24989243,8.32235177 5.45677962,8.13945206 C5.64067933,7.97687454 5.91077957,7.97417486 6.09698779,8.12088554 L6.16255122,8.18288521 L7.367,9.545 L9.80179231,6.99641257 C9.99250398,6.79670361 10.3090024,6.78940986 10.5087114,6.98012152 Z M10.1633974,2.01175979 L5.78794884,2.01175979 L5.78794884,3.20473089 L10.1633974,3.20473089 L10.1633974,2.01175979 Z" id="形状结合" fill="currentColor" fill-rule="evenodd"></path>
                    </g>
                </g>
            </g>
        </g>
    </g>
</svg>