<?xml version="1.0" encoding="UTF-8"?>
<svg width="16px" height="16px" viewBox="0 0 16 16" version="1.1" xmlns="http://www.w3.org/2000/svg" xmlns:xlink="http://www.w3.org/1999/xlink">
    <g id="组件分类" stroke="none" stroke-width="1" fill="none" fill-rule="evenodd">
        <g id="Icon图标-Light" transform="translate(-696.000000, -414.000000)">
            <g id="业务相关" transform="translate(120.000000, 366.000000)">
                <g id="General/Icon/子节点已选" transform="translate(576.000000, 48.000000)">
                    <g id="1.通用/1.Icon图标/子节点已选">
                        <rect id="矩形" x="0" y="0" width="16" height="16"></rect>
                        <path d="M10,3 C10,2.44771525 10.4477153,2 11,2 L13,2 C13.5522847,2 14,2.44771525 14,3 L14,5 C14,5.55228475 13.5522847,6 13,6 L11,6 C10.4477153,6 10,5.55228475 10,5 L10,4 L5,4 L5,11.5 C5,11.7761424 5.22385763,12 5.5,12 L11,12 L11,11 C11,10.4477153 11.4477153,10 12,10 L14,10 C14.5522847,10 15,10.4477153 15,11 L15,13 C15,13.5522847 14.5522847,14 14,14 L12,14 C11.4871642,14 11.0644928,13.6139598 11.0067277,13.1166211 L11,13 L5,13 C4.44771525,13 4,12.5522847 4,12 L4,4 L1.5,4 C1.22385763,4 1,3.77614237 1,3.5 C1,3.22385763 1.22385763,3 1.5,3 L10,3 Z M11,3.5 L11,4.5 C11,4.77614237 11.2238576,5 11.5,5 L12.5,5 C12.7761424,5 13,4.77614237 13,4.5 L13,3.5 C13,3.22385763 12.7761424,3 12.5,3 L11.5,3 C11.2238576,3 11,3.22385763 11,3.5 Z" id="形状" fill="currentColor" fill-rule="evenodd"></path>
                    </g>
                </g>
            </g>
        </g>
    </g>
</svg>