<?xml version="1.0" encoding="UTF-8"?>
<svg width="16px" height="16px" viewBox="0 0 16 16" version="1.1" xmlns="http://www.w3.org/2000/svg" xmlns:xlink="http://www.w3.org/1999/xlink">
    <g id="组件分类" stroke="none" stroke-width="1" fill="none" fill-rule="evenodd">
        <g id="Icon图标-Light" transform="translate(-432.000000, -518.000000)">
            <g id="控制" transform="translate(120.000000, 470.000000)">
                <g id="General/Icon/表格管理" transform="translate(312.000000, 48.000000)">
                    <g id="1.通用/1.Icon图标/表格管理">
                        <rect id="矩形" x="0" y="0" width="16" height="16"></rect>
                        <path d="M12.2278153,7.94646023 C12.2422516,7.98838645 12.2755548,8.02381631 12.3181358,8.0402238 L12.3634542,8.04982657 C12.4682956,8.06375032 12.5769867,8.08885438 12.6856777,8.11395845 C12.7531284,8.12825095 12.8090301,8.10900248 12.8572323,8.06739336 C12.9644483,7.94293475 13.1244538,7.86282868 13.2851968,7.85750395 C13.4571201,7.84832953 13.614751,7.90660581 13.7392096,8.01382185 L14.5765101,8.73849251 C14.844307,8.97143553 14.8668743,9.36385317 14.6339313,9.6316501 C14.6007591,9.68058986 14.5864666,9.74804056 14.605715,9.80394219 L14.7135065,10.1169913 C14.732755,10.1728929 14.7743641,10.2210951 14.8418148,10.2353876 C15.0029266,10.2674536 15.1497458,10.3669702 15.2445131,10.4969157 C15.3392805,10.6268611 15.3746652,10.8022654 15.346449,10.9745575 L15.1250996,12.0387388 C15.0607833,12.3422669 14.792622,12.5539084 14.488431,12.5520621 L14.3859298,12.5433729 C14.3296594,12.5252308 14.2664271,12.5595092 14.2220746,12.6122987 C14.1518805,12.6989979 14.0816864,12.785697 14.0076425,12.8612159 C13.9594403,12.902825 13.9451478,12.9702757 13.9643963,13.0261774 C14.0872177,13.3465571 13.9112826,13.7072775 13.5870532,13.8189187 L12.547283,14.1769403 C12.2230536,14.2885814 11.8623331,14.1126463 11.750692,13.7884169 C11.7362556,13.7464907 11.7029525,13.7110608 11.6603715,13.6946533 L11.615053,13.6850505 C11.5102117,13.6711268 11.4015206,13.6460227 11.2928295,13.6209187 C11.2253788,13.6066262 11.1694772,13.6258746 11.1324553,13.6636341 C10.8995123,13.931431 10.5070946,13.9539983 10.2392977,13.7210553 L9.39466654,13.0114146 C9.27020793,12.9041986 9.19010186,12.7441931 9.18092744,12.5722698 C9.17175302,12.4003465 9.2300293,12.2427156 9.33724533,12.118257 C9.37041755,12.0693173 9.38471005,12.0018666 9.36546158,11.9459649 L9.25767013,11.6329158 C9.23842166,11.5770142 9.19681254,11.528812 9.12936183,11.5145195 C8.78092797,11.4469067 8.56829514,11.1199338 8.62472763,10.7753497 L8.83837764,9.68880773 C8.90599045,9.34037387 9.23296329,9.12774104 9.57754745,9.18417353 C9.62996814,9.1911354 9.69705009,9.16803724 9.73022231,9.11909748 L9.83599471,8.99044625 L9.94465438,8.87018027 C9.99285661,8.82857115 10.0071491,8.76112044 9.98790064,8.70521882 C9.88010919,8.39216972 10.0560443,8.03144926 10.3802737,7.91980812 L11.4200439,7.56178653 C11.7554537,7.44629569 12.1161741,7.62223082 12.2278153,7.94646023 Z M11.3414997,1.71279842 C12.2385528,1.71279842 12.9747071,2.40173944 13.0497122,3.27937092 L13.0560055,3.42730419 L13.0567668,7.05615244 C13.0567668,7.29285945 12.8648779,7.48474838 12.6281709,7.48474838 C12.4177646,7.48474838 12.2427702,7.33313243 12.2064802,7.13319311 L12.1995749,7.05615244 L12.1995596,5.76620373 L9.19955961,5.76620373 L9.1988112,8.3362958 L9.20028888,8.3535818 C9.20028888,8.50648293 9.12022269,8.6406836 8.99972958,8.71654456 C8.92089818,8.78574257 8.81695421,8.8278547 8.70317442,8.8278547 L5.76800547,8.82779842 L5.76800547,10.4167984 L7.19106482,10.4171692 C7.44027276,10.4171692 7.64229571,10.6191922 7.64229571,10.8684001 C7.64229571,11.117608 7.44027276,11.319631 7.19106482,11.319631 L5.76800547,11.3187984 L5.76891393,13.0680586 L8.343097,13.0680619 C8.579804,13.0680619 8.77169294,13.2599509 8.77169294,13.4966579 C8.77169294,13.7070641 8.62007699,13.8820585 8.42013767,13.9183486 L8.343097,13.9252538 L2.77051124,13.9245078 C1.87345813,13.9245078 1.13730379,13.2355668 1.06229878,12.3579353 L1.05600547,12.210002 L1.05600547,3.42730419 C1.05600547,2.53025109 1.74494649,1.79409675 2.62257797,1.71909173 L2.77051124,1.71279842 L11.3414997,1.71279842 Z M11.6144242,8.21890102 L10.6523754,8.55016098 C10.5696186,8.57865646 10.5289225,8.66209573 10.5538561,8.73450801 C10.6250948,8.94140022 10.5789808,9.1771291 10.4144906,9.33790736 C10.3527641,9.39387474 10.3049442,9.45662479 10.2467797,9.52293678 C10.1101026,9.69728039 9.8860831,9.78598757 9.66426076,9.7466563 C9.58794536,9.72664947 9.50552967,9.78974072 9.49586745,9.86249418 L9.3085321,10.8642567 C9.28852527,10.9405721 9.35161652,11.0229877 9.42436999,11.03265 C9.64619233,11.0719812 9.8173152,11.2329095 9.88177122,11.4537082 L9.9601338,11.6812897 C10.045279,11.8949646 10.0095097,12.1271315 9.85892606,12.2946925 C9.8350161,12.3260675 9.82501269,12.3642252 9.82535388,12.3988209 C9.82569508,12.4334167 9.85028743,12.4712332 9.87131784,12.4987051 L10.6460313,13.1692076 C10.6962313,13.2074636 10.7660746,13.2167393 10.8164878,13.1867913 L10.8500439,13.1568158 C10.9185531,13.0869419 11.0045307,13.0341953 11.0976322,13.0021379 C11.2010783,12.9665185 11.3255548,12.9583711 11.4400279,12.9883813 C11.5163433,13.0083881 11.6030034,13.024833 11.6861014,13.0309333 C11.9043618,13.05992 12.0961739,13.2137244 12.1674126,13.4206166 C12.1923462,13.4930289 12.2757855,13.5337249 12.3481977,13.5087914 L13.3102465,13.1775314 C13.3826588,13.1525979 13.4233548,13.0691586 13.3984213,12.9967463 C13.3271826,12.7898541 13.3732965,12.5541252 13.5377867,12.393347 C13.5995132,12.3373796 13.6473331,12.2746295 13.7054976,12.2083175 C13.8226494,12.0588802 14.0039712,11.9723593 14.186562,11.9777003 L14.277672,11.98816 C14.3539874,12.0081668 14.4364031,11.9450755 14.4460653,11.8723221 L14.6437452,10.8669977 C14.6537487,10.82884 14.6395009,10.7874615 14.6184705,10.7599896 C14.5974401,10.7325177 14.5660651,10.7086078 14.5279074,10.6986044 C14.306085,10.6592731 14.1349621,10.4983448 14.0705061,10.2775461 L13.9921435,10.0499646 C13.9069983,9.83628975 13.9427676,9.6041228 14.0933513,9.43656186 C14.1411712,9.37381181 14.1437096,9.28036912 14.0809595,9.2325492 L13.3269353,8.55492282 C13.2955603,8.53101286 13.2574026,8.52100945 13.2228068,8.52135064 C13.188211,8.52169183 13.1503945,8.54628419 13.1229226,8.5673146 C12.972339,8.73487554 12.7515402,8.79933156 12.5365006,8.74609374 C12.4601852,8.72608691 12.3735251,8.70964201 12.2904271,8.70354173 C12.0721667,8.67455506 11.8803546,8.52075069 11.8091159,8.31385847 C11.7702758,8.23466353 11.6868365,8.19396747 11.6144242,8.21890102 Z M4.91200547,11.3187984 L1.91200547,11.3187984 L1.91243743,12.2123461 C1.91196451,12.4397297 2.00258742,12.6578325 2.16407179,12.8179149 C2.2981348,12.9522059 2.47234075,13.037142 2.6584637,13.0610986 L2.7713417,13.0680619 L4.91246472,13.0680619 L4.91200547,11.3187984 Z M13.3253024,10.4074001 C13.5793823,11.1453015 13.1835282,11.9569225 12.4456268,12.2110024 C11.7077254,12.4650822 10.8961043,12.0692282 10.6420245,11.3313267 C10.3879447,10.5934253 10.7837987,9.78180427 11.5217001,9.52772443 C12.2596016,9.27364459 13.0712226,9.66949863 13.3253024,10.4074001 Z M11.7139518,10.0860639 C11.2831371,10.2344053 11.0520226,10.7082603 11.200364,11.139075 C11.3487054,11.5698898 11.8225604,11.8010043 12.2533751,11.6526629 C12.6841898,11.5043215 12.9153043,11.0304665 12.7669629,10.5996518 C12.6186215,10.168837 12.1447665,9.93772252 11.7139518,10.0860639 Z M4.91200547,8.82779842 L1.91200547,8.82779842 L1.91200547,10.4167984 L4.91200547,10.4167984 L4.91200547,8.82779842 Z M4.91246472,5.76619033 L1.91243743,5.76619033 L1.91200547,7.92479842 L4.91200547,7.92479842 L4.91246472,5.76619033 Z M8.343097,5.76619033 L5.76891393,5.76619033 L5.76800547,7.92479842 L8.34300547,7.92479842 L8.343097,5.76619033 Z M11.3438438,2.56923829 L2.77132831,2.56923829 C2.54344022,2.56871139 2.32479603,2.65930675 2.16407179,2.82086475 C2.02943738,2.95480433 1.94408467,3.12896765 1.91968462,3.31518391 L1.91245228,3.42813465 L1.91245228,4.90972773 L12.1995749,4.90972773 L12.1995749,3.42812126 C12.2001351,3.20070616 12.1102607,2.98239689 11.949749,2.82129469 C11.8159892,2.68704286 11.6423224,2.60169856 11.4565427,2.57682234 L11.3438438,2.56923829 Z" id="形状结合" fill="currentColor" fill-rule="evenodd"></path>
                    </g>
                </g>
            </g>
        </g>
    </g>
</svg>