<?xml version="1.0" encoding="UTF-8"?>
<svg width="16px" height="16px" viewBox="0 0 16 16" version="1.1" xmlns="http://www.w3.org/2000/svg" xmlns:xlink="http://www.w3.org/1999/xlink">
    <g id="组件分类" stroke="none" stroke-width="1" fill="none" fill-rule="evenodd">
        <g id="Icon图标-Light" transform="translate(-360.000000, -518.000000)">
            <g id="控制" transform="translate(120.000000, 470.000000)">
                <g id="General/Icon/树展开" transform="translate(240.000000, 48.000000)">
                    <g id="1.通用/1.Icon图标/树展开">
                        <rect id="矩形" fill-rule="nonzero" x="0" y="0" width="16" height="16"></rect>
                        <g id="形状" stroke-width="1" fill-rule="evenodd" transform="translate(1.500000, 1.500000)">
                            <rect id="矩形" stroke-opacity="0.15" stroke="currentColor" x="0.5" y="0.5" width="12" height="12" rx="2"></rect>
                            <path d="M6.5,3 C6.77614237,3 7,3.22385763 7,3.5 L7,6 L9.5,6 C9.77614237,6 10,6.22385763 10,6.5 C10,6.77614237 9.77614237,7 9.5,7 L7,7 L7,9.5 C7,9.77614237 6.77614237,10 6.5,10 C6.22385763,10 6,9.77614237 6,9.5 L6,7 L3.5,7 C3.22385763,7 3,6.77614237 3,6.5 C3,6.22385763 3.22385763,6 3.5,6 L6,6 L6,3.5 C6,3.22385763 6.22385763,3 6.5,3 Z" id="形状结合" fill="currentColor"></path>
                        </g>
                    </g>
                </g>
            </g>
        </g>
    </g>
</svg>