<?xml version="1.0" encoding="UTF-8"?>
<svg width="16px" height="16px" viewBox="0 0 16 16" version="1.1" xmlns="http://www.w3.org/2000/svg" xmlns:xlink="http://www.w3.org/1999/xlink">
    <g id="组件分类" stroke="none" stroke-width="1" fill="none" fill-rule="evenodd">
        <g id="Icon图标-Light" transform="translate(-840.000000, -310.000000)">
            <g id="方向和建议" transform="translate(120.000000, 262.000000)">
                <g id="General/Icon/撤回" transform="translate(720.000000, 48.000000)">
                    <g id="1.通用/1.Icon图标/撤回">
                        <rect id="矩形" x="0" y="0" width="16" height="16"></rect>
                        <path d="M5.77671508,2.29121585 C5.97197722,2.486478 5.97197722,2.80306049 5.77671508,2.99832264 L3.85373456,4.91976925 L10.0225191,4.92 C12.5078005,4.92 14.5225191,6.93471863 14.5225191,9.42 C14.5225191,11.9052814 12.5078005,13.92 10.0225191,13.92 L5.02173125,13.92 C4.74558887,13.92 4.52173125,13.6961424 4.52173125,13.42 C4.52173125,13.1438576 4.74558887,12.92 5.02173125,12.92 L10.0225191,12.92 C11.9555158,12.92 13.5225191,11.3529966 13.5225191,9.42 C13.5225191,7.48700338 11.9555158,5.92 10.0225191,5.92 L3.84173456,6.01176925 L5.77671508,7.9480701 C5.97197722,8.14333225 5.97197722,8.45991474 5.77671508,8.65517689 C5.58145293,8.85043903 5.26487044,8.85043903 5.0696083,8.65517689 L2.24118117,5.82674976 C2.04591903,5.63148761 2.04591903,5.31490513 2.24118117,5.11964298 L5.0696083,2.29121585 C5.26487044,2.09595371 5.58145293,2.09595371 5.77671508,2.29121585 Z" id="形状结合" fill="currentColor" fill-rule="evenodd"></path>
                    </g>
                </g>
            </g>
        </g>
    </g>
</svg>