<?xml version="1.0" encoding="UTF-8"?>
<svg width="16px" height="16px" viewBox="0 0 16 16" version="1.1" xmlns="http://www.w3.org/2000/svg" xmlns:xlink="http://www.w3.org/1999/xlink">
    <g id="组件分类" stroke="none" stroke-width="1" fill="none" fill-rule="evenodd">
        <g id="Icon图标-Light" transform="translate(-1104.000000, -414.000000)">
            <g id="业务相关" transform="translate(120.000000, 366.000000)">
                <g id="General/Icon/有权限" transform="translate(984.000000, 48.000000)">
                    <g id="1.通用/1.Icon图标/有权限">
                        <rect id="矩形" x="0" y="0" width="16" height="16"></rect>
                        <g id="形状" stroke-width="1" fill-rule="evenodd" transform="translate(2.000000, 1.000000)">
                            <path d="M6,0 C3.67883815,0 1.82536661,1.76486908 1.70610108,3.84374692 C2.14792062,3.84374692 2.25779592,3.84137615 2.70806142,3.84137615 C2.82824617,2.24058058 4.27662155,0.943396226 6,0.943396226 C7.8,0.943396226 9.3,2.35849057 9.3,4.05660377 L9.3,6.06901686 L10.3,6.06901686 L10.3,4.05660377 C10.3,1.73544193 8.32116185,0 6,0 Z" id="Fill-3" fill-opacity="0.45" fill="#252D3E"></path>
                            <path d="M10,6 L2,6 C0.9,6 0,6.9 0,8 L0,12 C0,13.1 0.9,14 2,14 L10,14 C11.1,14 12,13.1 12,12 L12,8 C12,6.9 11.1,6 10,6 Z" id="路径" stroke="#9BD57C" fill="#C8EDB3" fill-rule="nonzero"></path>
                            <path d="M8.35421658,8.37796369 C8.54947872,8.57322583 8.54947872,8.88980832 8.35421658,9.08507047 L5.81868267,11.6206044 C5.731389,11.707898 5.61984806,11.7561663 5.50573976,11.7654092 C5.36174959,11.7811242 5.21204019,11.7335993 5.10148977,11.6230488 C5.10067777,11.6222369 5.0998686,11.621422 5.09906225,11.6206044 L3.64333903,10.1445402 C3.45038688,9.9488919 3.45147855,9.63419975 3.64578344,9.43989485 L3.64822792,9.43745037 C3.84214002,9.24353827 4.15653365,9.24353827 4.35044575,9.43745037 C4.35125774,9.43826237 4.35206692,9.43907718 4.35287326,9.43989479 L5.46033682,10.5635171 L7.64710979,8.37796369 C7.84237194,8.18270154 8.15895443,8.18270154 8.35421658,8.37796369 Z" id="形状结合" fill="#9BD57C"></path>
                        </g>
                    </g>
                </g>
            </g>
        </g>
    </g>
</svg>