<?xml version="1.0" encoding="UTF-8"?>
<svg width="16px" height="16px" viewBox="0 0 16 16" version="1.1" xmlns="http://www.w3.org/2000/svg" xmlns:xlink="http://www.w3.org/1999/xlink">
    <g id="组件分类" stroke="none" stroke-width="1" fill="none" fill-rule="evenodd">
        <g id="Icon图标-Light" transform="translate(-480.000000, -310.000000)">
            <g id="方向和建议" transform="translate(120.000000, 262.000000)">
                <g id="General/Icon/注销" transform="translate(360.000000, 48.000000)">
                    <g id="1.通用/1.Icon图标/注销">
                        <rect id="矩形" fill-rule="nonzero" transform="translate(8.000000, 8.000000) scale(-1, 1) rotate(-90.000000) translate(-8.000000, -8.000000) " x="0" y="0" width="16" height="16"></rect>
                        <path d="M7.93849829,1 C11.8044915,1 14.9384983,4.13400675 14.9384983,8 C14.9384983,11.8659932 11.8044915,15 7.93849829,15 C6.00550167,15 4.25550167,14.2164983 2.98875082,12.9497475 C2.90640689,12.8601061 2.85530655,12.7401065 2.85530655,12.6081718 C2.85530655,12.3320294 3.07916417,12.1081718 3.35530655,12.1081718 C3.45414439,12.1081718 3.54628408,12.13685 3.62385842,12.1863393 L3.69585761,12.2426407 C4.78164404,13.3284271 6.28164404,14 7.93849829,14 C11.2522068,14 13.9384983,11.3137085 13.9384983,8 C13.9384983,4.6862915 11.2522068,2 7.93849829,2 C6.28164404,2 4.78164404,2.67157288 3.69585761,3.75735931 C3.60710389,3.84000848 3.4876402,3.89060355 3.3563594,3.89060355 C3.08021703,3.89060355 2.8563594,3.66674593 2.8563594,3.39060355 C2.8563594,3.2924196 2.88465943,3.20084547 2.93354741,3.12359324 L2.98875082,3.05025253 C4.25550167,1.78350169 6.00550167,1 7.93849829,1 Z M4.36108705,5.14512029 C4.5346534,5.31868664 4.55393855,5.58811104 4.4189425,5.78297918 L4.36108705,5.85222707 L2.70151361,7.51084783 L10.4984679,7.51054513 C10.7184224,7.51054513 10.9013581,7.6874203 10.939295,7.9206695 L10.9465136,8.01054513 C10.9465136,8.25600502 10.7880173,8.4601535 10.5790047,8.50248947 L10.4984679,8.51054513 L2.68351361,8.51084783 L4.36108705,10.1892944 C4.5346534,10.3628608 4.55393855,10.6322852 4.4189425,10.8271533 L4.36108705,10.8964012 C4.1875207,11.0699676 3.9180963,11.0892527 3.72322816,10.9542567 L3.65398027,10.8964012 L1.15265395,8.39507489 C1.08756656,8.32998751 1.04417498,8.25142009 1.02247918,8.16835932 L1.00801532,8.08413362 L1.00801532,7.95738789 C1.01524725,7.87233008 1.04417498,7.78877005 1.09479849,7.7156945 L1.15265395,7.64644661 L3.65398027,5.14512029 C3.84924241,4.94985814 4.1658249,4.94985814 4.36108705,5.14512029 Z" id="形状结合备份" fill="currentColor" fill-rule="evenodd"></path>
                    </g>
                </g>
            </g>
        </g>
    </g>
</svg>