<?xml version="1.0" encoding="UTF-8"?>
<svg width="16px" height="16px" viewBox="0 0 16 16" version="1.1" xmlns="http://www.w3.org/2000/svg" xmlns:xlink="http://www.w3.org/1999/xlink">
    <g id="组件分类" stroke="none" stroke-width="1" fill="none" fill-rule="evenodd">
        <g id="Icon图标-Light" transform="translate(-360.000000, -310.000000)">
            <g id="方向和建议" transform="translate(120.000000, 262.000000)">
                <g id="General/Icon/上传" transform="translate(240.000000, 48.000000)">
                    <g id="1.通用/1.Icon图标/上传">
                        <rect id="矩形" fill-rule="nonzero" x="0" y="0" width="16" height="16"></rect>
                        <path d="M1.5390625,10.0056926 C1.8375,10.0056926 2.0796875,10.2479071 2.0796875,10.5463779 L2.0796875,10.5463779 L2.0796875,13.6014064 C2.0796875,13.7795513 2.225,13.9233173 2.4015625,13.9233173 L2.4015625,13.9233173 L13.596875,13.9233173 C13.775,13.9233173 13.91875,13.7779886 13.91875,13.6014064 L13.91875,13.6014064 L13.91875,10.5479406 C13.91875,10.2494698 14.1609375,10.0072553 14.459375,10.0072553 C14.7578125,10.0072553 15,10.2494698 15,10.5463779 L15,10.5463779 L15,14.0295792 C15,14.5640138 14.565625,15 14.0296875,15 L14.0296875,15 L1.9703125,15 C1.4359375,15 1,14.5655765 1,14.0295792 L1,14.0295792 L1,10.5463779 C1,10.2494698 1.240625,10.0056926 1.5390625,10.0056926 Z M8.01855414,1 C8.15761664,1 8.29667914,1.05313093 8.40136664,1.15783011 L10.8357416,3.59403951 C11.0451166,3.80500056 11.0451166,4.14722625 10.8341791,4.3581873 C10.6248041,4.56914834 10.2826166,4.56914834 10.0716791,4.3581873 L8.55761664,2.8439558 L8.55761664,11.8730885 C8.55761664,12.1715593 8.31542914,12.4137739 8.01699164,12.4137739 C7.71855414,12.4137739 7.47636664,12.1715593 7.47636664,11.8730885 L7.47636664,2.8439558 L5.96230414,4.3581873 C5.86074164,4.45976113 5.72480414,4.51601741 5.58105414,4.51601741 C5.43730414,4.51601741 5.30136664,4.45976113 5.19980414,4.3581873 C4.98886664,4.14722625 4.98886664,3.80500056 5.19980414,3.59403951 L7.63574164,1.15783011 C7.74199164,1.05313093 7.87949164,1 8.01855414,1 Z" id="形状" fill="currentColor" fill-rule="evenodd"></path>
                    </g>
                </g>
            </g>
        </g>
    </g>
</svg>