<?xml version="1.0" encoding="UTF-8"?>
<svg width="16px" height="16px" viewBox="0 0 16 16" version="1.1" xmlns="http://www.w3.org/2000/svg" xmlns:xlink="http://www.w3.org/1999/xlink">
    <g id="组件分类" stroke="none" stroke-width="1" fill="none" fill-rule="evenodd">
        <g id="Icon图标-Light" transform="translate(-1128.000000, -414.000000)">
            <g id="业务相关" transform="translate(120.000000, 366.000000)">
                <g id="General/Icon/用户/1" transform="translate(1008.000000, 48.000000)">
                    <g id="1.通用/1.Icon图标/用户/1">
                        <rect id="矩形" x="0" y="0" width="16" height="16"></rect>
                        <g id="形状" stroke-width="1" fill-rule="evenodd" transform="translate(3.000000, 1.000000)">
                            <g id="编组" transform="translate(0.000000, 1.739791)" fill-rule="nonzero">
                                <rect id="矩形" fill="#FFCFA7" x="4.17200222" y="9.00594279" width="2.13094709" height="2.38663175"></rect>
                                <path d="M4.17207471,9.28700017 C4.17207471,9.28700017 5.06845711,9.85781417 6.3030218,9.72558598 L6.3030218,9.00587029 L4.17207471,9.00587029 L4.17207471,9.28700017 Z" id="路径" fill="#E1A674"></path>
                                <ellipse id="椭圆形" fill="#F6C398" cx="1.09929177" cy="5.30514846" rx="1.03977459" ry="1.186284"></ellipse>
                                <ellipse id="椭圆形" fill="#F6C398" cx="9.37573224" cy="5.30514846" rx="1.03977459" ry="1.186284"></ellipse>
                                <path d="M9.37152762,3.03929093 C9.37152762,1.29197956 8.09295936,0.0133388081 5.23751201,0.0133388081 C2.38206465,0.0133388081 1.1034964,1.29190706 1.1034964,3.03929093 C1.1034964,4.78667479 0.805185554,9.38950601 5.23751201,9.38950601 C9.66983846,9.38950601 9.37152762,4.78667479 9.37152762,3.03929093 Z" id="路径" fill="#FCDFC2"></path>
                                <path d="M5.23751201,6.74501481 C4.79530152,6.74501481 4.52896032,6.41473432 4.52896032,6.57451004 C4.52896032,6.73435826 4.65683889,7.03803363 5.23751201,7.03803363 C5.81818512,7.03803363 5.9460637,6.73435826 5.9460637,6.57451004 C5.9460637,6.41466183 5.67965,6.74501481 5.23751201,6.74501481 Z" id="路径" fill="#E1A674"></path>
                            </g>
                            <path d="M5.23751201,11.7046056 L5.23751201,14.3896207 L0.0595171819,14.3896207 C0.0595171819,13.3027978 2.78694098,11.7046056 5.23751201,11.7046056 Z" id="路径" fill="#4471AD" fill-rule="nonzero"></path>
                            <path d="M5.23751201,11.7046056 L5.23751201,14.3896207 L10.4155068,14.3896207 C10.4155068,13.3027978 7.68808304,11.7046056 5.23751201,11.7046056 Z" id="路径" fill="#4471AD" fill-rule="nonzero"></path>
                            <path d="M5.23751201,11.7046056 C4.71628358,11.7046056 4.18258627,11.7774616 3.6652,11.901788 C3.66867969,11.9063551 4.23905872,12.6422368 5.23751201,12.6422368 C6.16209439,12.6422368 6.77676697,12.0120506 6.86586151,11.9151268 C6.3310043,11.7823912 5.77758875,11.7046056 5.23751201,11.7046056 Z" id="路径" fill="#91B2DE" fill-rule="nonzero"></path>
                            <path d="M4.17200222,11.7975423 C4.17200222,11.7975423 4.48365187,12.1840778 5.23743952,12.1840778 C5.99122716,12.1840778 6.30294931,11.7975423 6.30294931,11.7975423 C6.30294931,11.7975423 5.19756808,11.3951308 4.17200222,11.7975423 Z" id="路径" fill="#FFCFA7" fill-rule="nonzero"></path>
                            <path d="M8.63629831,1.38029563 C8.63629831,1.38029563 7.10204541,-0.569490145 3.91320034,0.165666666 C0.72442777,0.900750984 0.48548912,2.81863961 0.58139805,4.68455039 C0.67730698,6.55053365 0.932991634,7.64518584 1.23543461,7.50991293 C1.53787758,7.37456752 1.38049415,6.14290258 1.41246379,5.85865548 C1.44443343,5.57440837 1.73208773,4.28895324 3.67150694,4.4807711 C5.61085365,4.67258896 7.24514762,3.96932929 7.24514762,3.96932929 C7.24514762,3.96932929 7.90302633,4.80090249 8.33595765,4.96024325 C9.20109535,5.27856231 8.9173557,7.40110015 9.25633541,7.40110015 C9.59531512,7.40110015 11.2573741,2.49901567 8.63629831,1.38029563 Z" id="路径" fill="#61626A" fill-rule="nonzero"></path>
                        </g>
                    </g>
                </g>
            </g>
        </g>
    </g>
</svg>