<?xml version="1.0" encoding="UTF-8"?>
<svg width="12px" height="14px" viewBox="0 0 12 14" version="1.1" xmlns="http://www.w3.org/2000/svg" xmlns:xlink="http://www.w3.org/1999/xlink">
    <g id="组件分类" stroke="none" stroke-width="1" fill="none" fill-rule="evenodd">
        <g id="Icon图标-Light" transform="translate(-314.000000, -415.000000)">
            <g id="业务相关" transform="translate(120.000000, 366.000000)">
                <g id="General/Icon/查看" transform="translate(192.000000, 48.000000)">
                    <g id="1.通用/1.Icon图标/查看">
                        <rect id="矩形" fill-rule="nonzero" x="0" y="0" width="16" height="16"></rect>
                        <path d="M11,4.5 C11,4.2258567 10.7870722,4 10.5253485,4 L4.47465146,4 C4.21440642,4 4,4.22429907 4,4.5 C4,4.7741433 4.21292776,5 4.47465146,5 L10.5253485,5 C10.7870722,5 11,4.7741433 11,4.5 L11,4.5 Z M4.50293671,7 C4.22718325,7 4,7.22429907 4,7.5 C4,7.7741433 4.22561647,8 4.50293671,8 L7.49705524,8 C7.77437548,8 8.00155873,7.77570093 8,7.5 C8,7.2258567 7.77437548,7 7.49705524,7 L4.50293671,7 Z M12.5896899,12.8961336 C12.5577325,12.8641356 12.5227316,12.8367088 12.4846871,12.8169005 C12.7601294,12.4237826 12.9214381,11.9468605 12.9214381,11.4318456 C12.9214381,10.0879309 11.819669,9 10.460719,9 C9.10176907,9 8,10.0879309 8,11.4318456 C8,12.7757603 9.10176907,13.8636912 10.460719,13.8636912 C10.9583413,13.8636912 11.4224843,13.7174148 11.8105383,13.4660022 C11.833365,13.5101898 11.8622789,13.5513301 11.8988016,13.5878992 L13.1664447,14.8571519 C13.3566673,15.047616 13.6671105,15.047616 13.8573331,14.8571519 C14.0475556,14.6666878 14.0475556,14.3558504 13.8573331,14.1653863 L12.5896899,12.8961336 Z M12.5273682,1 C13.5831042,1 13.9970007,1.90020094 13.9970007,3.00044653 L13.9970007,3.00044653 L13.9970007,8.93927216 C13.9985004,8.95802635 14,8.97521768 14,8.99397187 C14,9.27059612 13.784054,9.49564635 13.5171207,9.49564635 C13.2501875,9.49564635 13.0342414,9.27059612 13.0297426,8.99240902 L13.0297426,8.99240902 L13.0297426,3.01607502 C13.0297426,2.46595222 12.5978505,2.01585175 12.0699825,2.01585175 L12.0699825,2.01585175 L3.86253437,2.01585175 C3.33466633,2.01585175 2.90277431,2.46595222 2.90277431,3.01607502 L2.90277431,3.01607502 L2.90277431,12.9964278 C2.90277431,13.5465506 3.33466633,13.996651 3.86253437,13.996651 L3.86253437,13.996651 L8.2071982,13.996651 C8.47113222,13.9997767 8.68407898,14.2232641 8.68407898,14.4983255 C8.68407898,14.7749498 8.46813297,15 8.2011997,15 L8.2011997,15 L3.91952012,15 C2.86378405,15 2,14.0997991 2,12.9995535 L2,12.9995535 L2,3.00044653 C2,1.90020094 2.86378405,1 3.91952012,1 L3.91952012,1 Z M10.5,10 C11.3280612,10 12,10.6716649 12,11.5 C12,12.3283351 11.3295918,13 10.5,13 C9.67193878,13 9,12.3283351 9,11.5 C9,10.6716649 9.67193878,10 10.5,10 Z" id="形状" fill="currentColor" fill-rule="evenodd"></path>
                    </g>
                </g>
            </g>
        </g>
    </g>
</svg>