<?xml version="1.0" encoding="UTF-8"?>
<svg width="16px" height="16px" viewBox="0 0 16 16" version="1.1" xmlns="http://www.w3.org/2000/svg" xmlns:xlink="http://www.w3.org/1999/xlink">
    <g id="组件分类" stroke="none" stroke-width="1" fill="none" fill-rule="evenodd">
        <g id="Icon图标-Light" transform="translate(-888.000000, -414.000000)">
            <g id="业务相关" transform="translate(120.000000, 366.000000)">
                <g id="General/Icon/预警/line" transform="translate(768.000000, 48.000000)">
                    <g id="1.通用/1.Icon图标/预警/line">
                        <rect id="矩形" x="0" y="0" width="16" height="16"></rect>
                        <path d="M8.02959198,1.0002971 C8.69032673,0.997053047 9.34451836,1.13968589 9.95087107,1.41919193 C10.5428777,1.68783263 11.0814225,2.07404392 11.5377296,2.55718955 C12.4718139,3.55455499 12.9974729,4.90479971 13,6.31327987 L13,13.9930184 L11.8983792,13.9930184 L11.8983792,6.31327987 C11.8957233,5.2016728 11.4781951,4.13677165 10.7377431,3.35308973 C10.0123647,2.5606367 9.01643017,2.11482355 7.97713385,2.11734998 C6.93214193,2.12202552 5.93182776,2.56914283 5.19685285,3.36007131 C4.45640077,4.14375323 4.03887259,5.20865438 4.03621667,6.32026145 L4.03621667,14 L14.4045181,14.0001516 C14.5598974,13.9968415 14.7103271,14.0478485 14.8222095,14.1417803 C14.9340918,14.2357122 14.9981061,14.3647438 15.0000429,14.5000562 C15.0018781,14.6331454 14.9420029,14.7612732 14.8339052,14.8553889 C14.7258075,14.9495046 14.5786449,15.0016352 14.4257837,15 L14.4257837,14.9937892 L1.51047304,14.9937892 C1.21982188,14.9655409 1,14.7515988 1,14.4969704 C1,14.242342 1.21982188,14.0284 1.51047304,14.0001516 L3.00016856,14 L3.00016856,6.32026145 C2.99456956,5.60071841 3.12850858,4.88768805 3.39360455,4.2257873 C3.64755516,3.60846043 4.00785981,3.04723918 4.45588173,2.57115272 C4.91522549,2.08215845 5.46132993,1.69532133 6.06241203,1.43315509 C6.6813207,1.14008766 7.35227414,0.99245116 8.02959198,1.0002971 Z M8.38709677,5 L8.38709677,8.22187822 L10,8.22187822 L7.70967742,12 L7.70967742,8.94427245 L6,8.94427245 L8.38709677,5 Z" id="形状" fill="currentColor" fill-rule="evenodd"></path>
                    </g>
                </g>
            </g>
        </g>
    </g>
</svg>