<?xml version="1.0" encoding="UTF-8"?>
<svg width="16px" height="16px" viewBox="0 0 16 16" version="1.1" xmlns="http://www.w3.org/2000/svg" xmlns:xlink="http://www.w3.org/1999/xlink">
    <g id="组件分类" stroke="none" stroke-width="1" fill="none" fill-rule="evenodd">
        <g id="Icon图标-Light" transform="translate(-456.000000, -414.000000)">
            <g id="业务相关" transform="translate(120.000000, 366.000000)">
                <g id="General/Icon/网页" transform="translate(336.000000, 48.000000)">
                    <g id="1.通用/1.Icon图标/网页">
                        <rect id="矩形" x="0" y="0" width="16" height="16"></rect>
                        <path d="M2.5625,4.25 C2.5625,4.56066017 2.81433983,4.8125 3.125,4.8125 C3.43566017,4.8125 3.6875,4.56066017 3.6875,4.25 C3.6875,3.93933983 3.43566017,3.6875 3.125,3.6875 C2.81433983,3.6875 2.5625,3.93933983 2.5625,4.25 Z M13.875,2 L2.125,2 C1.503125,2 1,2.503125 1,3.125 L1,12.875 C1,13.496875 1.503125,14 2.125,14 L13.875,14 C14.496875,14 15,13.496875 15,12.875 L15,3.125 C15,2.503125 14.496875,2 13.875,2 Z M5.00759174,13.0039348 L2.00194762,13.0039348 L2.00194762,6.5 L5.00759174,6.5 L5.00759174,13.0039348 Z M13.9858182,13.0039348 L6.00176548,13.0039348 L6.00176548,6.5 L14.0019476,6.5 C13.9976465,10.8359566 13.99227,13.0039348 13.9858182,13.0039348 Z M14.0019476,5.65388182 L2.00194762,5.65388182 L2.00194762,3.00189453 L14.0019476,3.00189453 L14.0019476,5.65388182 Z M4.1875,4.25 C4.1875,4.56066017 4.43933983,4.8125 4.75,4.8125 C5.06066017,4.8125 5.3125,4.56066017 5.3125,4.25 C5.3125,3.93933983 5.06066017,3.6875 4.75,3.6875 C4.43933983,3.6875 4.1875,3.93933983 4.1875,4.25 L4.1875,4.25 Z M5.8125,4.25 C5.8125,4.56066017 6.06433983,4.8125 6.375,4.8125 C6.68566017,4.8125 6.9375,4.56066017 6.9375,4.25 C6.9375,3.93933983 6.68566017,3.6875 6.375,3.6875 C6.06433983,3.6875 5.8125,3.93933983 5.8125,4.25 Z" id="Shape" fill="currentColor" fill-rule="evenodd"></path>
                    </g>
                </g>
            </g>
        </g>
    </g>
</svg>