<?xml version="1.0" encoding="UTF-8"?>
<svg width="16px" height="16px" viewBox="0 0 16 16" version="1.1" xmlns="http://www.w3.org/2000/svg" xmlns:xlink="http://www.w3.org/1999/xlink">
    <g id="组件分类" stroke="none" stroke-width="1" fill="none" fill-rule="evenodd">
        <g id="Icon图标-Light" transform="translate(-480.000000, -798.000000)">
            <g id="导航菜单" transform="translate(120.000000, 750.000000)">
                <g id="General/Icon/流程" transform="translate(360.000000, 48.000000)">
                    <g id="1.通用/1.Icon图标/流程">
                        <rect id="矩形" fill-rule="nonzero" x="0" y="0" width="16" height="16"></rect>
                        <path d="M12.396628,9.85813021 L12.396628,8.19513021 C12.3963775,7.64294326 11.9488149,7.19526853 11.396628,7.19487977 L8.40364559,7.19413021 L8.40364559,7.19413021 L8.40364559,6.10413021 L9.36764559,6.10413021 C9.91993034,6.10413021 10.3676456,5.65641496 10.3676456,5.10413021 L10.3676456,2.60321705 C10.3676456,2.0509323 9.91993034,1.60321705 9.36764559,1.60321705 L6.48092424,1.60321705 C5.93234293,1.60321705 5.48617665,2.04516805 5.48096929,2.59372464 L5.45721898,5.09564532 C5.45197646,5.64790518 5.89542165,6.09985016 6.44768151,6.10509267 C6.45051274,6.10511955 6.45334407,6.1051344 6.45617542,6.10513722 L7.45064559,6.10613021 L7.45064559,6.10613021 L7.45064559,7.19513021 L4.60337202,7.19513021 C4.05108727,7.19513021 3.60337202,7.64284546 3.60337202,8.19513021 L3.60337202,9.85913021 L3.60337202,9.85913021 L2.52237202,9.85913021 C1.97008727,9.85913021 1.52237202,10.3068455 1.52237202,10.8591302 L1.52237202,13.3967829 C1.52237202,13.9490677 1.97008727,14.3967829 2.52237202,14.3967829 L5.41964559,14.3967829 C5.97193034,14.3967829 6.41964559,13.9490677 6.41964559,13.3967829 L6.41964559,10.8591302 C6.41910293,10.3070573 5.97171826,9.85942986 5.41964574,9.85858769 L4.57637202,9.85813021 L4.57637202,9.85813021 L4.57637202,8.16613021 L11.404628,8.16613021 L11.404628,9.85813021 L10.5186278,9.85859998 C9.9665505,9.85942307 9.51915834,10.3070525 9.51862798,10.8591302 L9.51862798,13.3295016 C9.51862798,13.8817863 9.96634323,14.3295016 10.518628,14.3295016 L13.477628,14.3295016 C14.0299127,14.3295016 14.477628,13.8817863 14.477628,13.3295016 L14.477628,10.8591302 C14.4771473,10.3070331 14.0297249,9.85939562 13.4776281,9.85864967 L12.396628,9.85813021 L12.396628,9.85813021 Z M6.41964559,2.57521705 L9.41964559,2.57521705 L9.41964559,5.13613021 L6.41964559,5.13613021 L6.41964559,2.57521705 Z M5.49037202,13.4247829 L2.49037202,13.4247829 L2.49037202,10.8261302 L5.49037202,10.8261302 L5.49037202,13.4247829 Z M13.505628,13.4247829 L10.505628,13.4247829 L10.505628,10.8261302 L13.505628,10.8261302 L13.505628,13.4247829 Z" id="流程管理" fill="currentColor" fill-rule="evenodd"></path>
                    </g>
                </g>
            </g>
        </g>
    </g>
</svg>